<svg width="256" height="256" viewBox="0 0 256 256" fill="none" xmlns="http://www.w3.org/2000/svg">
<path d="M256 128C256 198.692 198.692 256 128 256C57.3076 256 0 198.692 0 128C0 57.3076 57.3076 0 128 0C198.692 0 256 57.3076 256 128Z" fill="#FFE3A1"/>
<path d="M101.7 70.6C97.6 73.2 95.5 78.7 96.6 83.4C97.6 87.5 100.6 91.6 99 95.4C97.8 98.3 94.3 99.6 91.2 99.4C88.1 99.1 85.2 97.6 82.4 96.3C73.1 91.8 61.4 88.6 52.9 94.6C48.8 97.5 46.2 102.2 44.6 107C41.2 117.2 41.5 128.6 45.5 138.6C46.9 142.1 48.8 145.5 51.7 147.8C55.9 151.3 61.8 152.2 67.3 152.2C73.9 152.2 81.2 150.8 85 145.5C89 140 89.1 130.8 95.6 128.9C99.8 127.7 104.1 130.6 108.5 130.9C114.8 131.3 120.3 126.1 122.1 120C123.9 114 122.6 107.5 120.6 101.5C119.3 97.7 117.5 93.9 116.5 90C115.9 87.6 116.5 85.9 117.5 83.7C120.1 78.1 117.4 71.2 111.3 69.2C108.1 68.5 104.5 68.9 101.7 70.6Z" fill="#E38195"/>
<path d="M77 209.5L71.7 206.7L61.8 231C61.8 231 70.2 236.4 74.8 220.8L77 209.5Z" fill="white"/>
<path d="M65.2 232.1C63.2 232.1 61.8 231.2 61.7 231.2L61.6 231.1L71.6 206.4L77.2 209.3L75 220.9C73.2 226.9 70.7 230.5 67.5 231.7C66.7 232 65.9 232.1 65.2 232.1ZM62 231C62.5 231.3 64.8 232.4 67.4 231.4C70.5 230.2 72.9 226.7 74.7 220.8L76.8 209.5L71.7 206.9L62 231Z" fill="#27374A"/>
<path d="M73.6924 207.81L63.9566 231.809L64.2346 231.922L73.9704 207.923L73.6924 207.81Z" fill="#27374A"/>
<path d="M74.2 224.4C73.7 223 72.8 221.8 71.6 221C71.3 220.8 71 221.2 71.3 221.4C72.4 222.2 73.3 223.3 73.8 224.6C73.8 225 74.4 224.7 74.2 224.4Z" fill="#27374A"/>
<path d="M73.4 226C72.8 224.8 72 223.7 70.9 222.8C70.6 222.6 70.3 223 70.6 223.2C71.6 224 72.3 225 72.9 226.1C73 226.5 73.5 226.3 73.4 226Z" fill="#27374A"/>
<path d="M71.7 228C71.5 226.9 70.6 225.9 69.5 225.6C69.4 225.6 69.2 225.6 69.1 225.8C69 225.9 69.1 226.1 69.3 226.2C70.2 226.5 71 227.3 71.2 228.2C71.3 228.4 71.8 228.4 71.7 228Z" fill="#27374A"/>
<path d="M76.5 213.2C76.9 213.2 76.8 212.6 76.4 212.7C74.9 212.8 73.3 212.6 71.9 212.1C71.6 212 71.4 212.5 71.7 212.6C73.3 213.1 74.9 213.3 76.5 213.2Z" fill="#27374A"/>
<path d="M106.9 136.7C107.3 143.6 108.3 156.4 104.9 162.4C103.8 164.4 102.4 166.4 102.4 168.7C102.4 169.6 102.7 170.6 102.3 171.5C101.7 172.9 99.7 173.5 99.6 175C99.5 175.7 100 176.5 100 177.2C100 178 99.5 178.6 99 179.2C90 190.7 78.9 200.6 66.3 207.9C67.7 214.7 73.8 220.6 80.5 222.2C89.3 210.4 98.5 198.5 107.3 186.7C109.1 184.3 110.9 181.9 112 179.1C113.4 175.4 122.1 157 123.4 153.3C124.8 149.1 119.1 159.6 119.2 155.1C119.4 150.1 111.7 138.9 106.9 136.7Z" fill="#508398"/>
<path d="M114.8 156.6C112.2 165.2 108.9 173.6 104.9 181.7C104.8 181.9 105.1 182 105.1 181.8C109.1 173.7 112.5 165.3 115 156.6C115.1 156.5 114.9 156.4 114.8 156.6Z" fill="#333338"/>
<path d="M86.3 210.7C83.7 211.8 81.1 212.9 78.5 213.9C78.3 214 78.4 214.2 78.6 214.2C81.2 213.1 83.8 212 86.4 211C86.5 210.9 86.4 210.6 86.3 210.7Z" fill="#333338"/>
<path d="M83.3 213.9C81.1 214.2 79 214.7 77.1 215.7C76.9 215.8 77.1 216 77.2 215.9C79.1 215 81.2 214.4 83.3 214.2C83.4 214.2 83.4 213.9 83.3 213.9Z" fill="#333338"/>
<path d="M86.8 183.5L83.8 178.3L62.3 193.4C62.3 193.4 66.5 202.5 78.8 191.9L86.8 183.5Z" fill="white"/>
<path d="M68.4 197.2C67.9 197.2 67.3 197.1 66.8 197C63.5 196.3 62.2 193.5 62.2 193.4L62.1 193.3L62.2 193.2L83.9 178L87 183.5L78.9 192C74.9 195.5 71.4 197.2 68.4 197.2ZM62.5 193.4C62.8 193.9 64.1 196.1 66.8 196.7C70 197.4 74 195.7 78.6 191.8L86.5 183.5L83.7 178.5L62.5 193.4Z" fill="#27374A"/>
<path d="M84.9451 180.295L63.7408 195.167L63.913 195.413L85.1174 180.541L84.9451 180.295Z" fill="#27374A"/>
<path d="M76.4 194.6C76.7 193.2 76.6 191.6 76.1 190.3C76 190 75.4 190.2 75.6 190.5C76.1 191.8 76.2 193.2 75.9 194.5C75.8 194.8 76.3 194.9 76.4 194.6Z" fill="#27374A"/>
<path d="M74.8 195.4C75 194.1 74.8 192.7 74.4 191.4C74.3 191.1 73.8 191.2 73.9 191.6C74.3 192.8 74.4 194.1 74.2 195.3C74.2 195.7 74.7 195.8 74.8 195.4Z" fill="#27374A"/>
<path d="M72.3 196.2C72.7 195.1 72.5 193.8 71.8 192.9C71.7 192.8 71.5 192.7 71.4 192.8C71.3 192.9 71.2 193.1 71.3 193.2C71.9 193.9 72.1 195 71.8 195.9C71.7 196.3 72.2 196.6 72.3 196.2Z" fill="#27374A"/>
<path d="M84.4 186.4C84.7 186.6 84.9 186.1 84.6 185.9C83.3 185.2 82.1 184.2 81.1 183C80.9 182.7 80.4 183 80.6 183.3C81.7 184.5 83 185.6 84.4 186.4Z" fill="#27374A"/>
<path d="M78.6 196.8C85.8 200.5 103.2 199.7 111.1 198.2C119 196.6 126.4 192.4 131.6 186.3C133.4 184.2 134.9 181.9 135.7 179.3C136.3 177.2 136.4 174.9 136.3 172.7C136.1 160.1 133.3 147.7 128.3 136.1C122.4 134.5 117.2 130.3 111.8 127.4C108.1 129.7 106.5 134.4 107 138.7C107.4 143 109.5 147 111.8 150.7C115.8 157.3 120.2 163.6 125.2 169.5C125.8 170.2 126.4 171 126.5 171.9C126.5 172.8 125.6 173.8 124.8 173.5C124.1 173.2 123.7 172.1 122.9 172.2C121.8 172.3 122.3 174 122.6 175C123.3 177.6 120.8 180 118.4 181.2C113.3 183.7 107.3 184.3 101.6 183.6C95.9 182.9 90.4 180.9 85.2 178.6C84.3 184.8 76 191 78.6 196.8Z" fill="#508398"/>
<path d="M109.7 183.3C105.2 184.2 100.6 183.9 96.2 182.6C96 182.5 96 182.8 96.1 182.9C100.5 184.2 105.2 184.5 109.7 183.6C109.9 183.6 109.9 183.3 109.7 183.3Z" fill="#333338"/>
<path d="M98.1 199.5C92.1 199.7 86.1 198.8 80.3 197.1C80.1 197 80.1 197.3 80.2 197.4C86 199.1 92 200 98.1 199.8C98.2 199.8 98.2 199.5 98.1 199.5Z" fill="#333338"/>
<path d="M120.8 163.4C114 155.6 107.9 146.4 106.9 135.8C106.9 135.6 106.6 135.6 106.6 135.8C107.6 146.5 113.7 155.7 120.6 163.6C120.7 163.7 120.9 163.5 120.8 163.4Z" fill="#333338"/>
<path d="M111.8 132.7C113.7 140.2 116.7 147.3 120.3 154.2C122.1 157.7 124 161 126 164.4C127 166.1 128 167.7 129 169.4C129.9 170.9 131.2 173.8 128.9 174.8C128 175.2 127.4 174.5 126.5 174.6C126 174.6 125.7 175 125.6 175.4C125.4 176.3 125.6 177.8 126.3 178.5C126.9 179.1 127.9 178.9 127.8 178C127.7 177 126.7 176.6 125.8 176.9C124.4 177.5 124.3 179.3 123.6 180.5C122.8 182.1 121.2 183 119.7 183.8C116.1 185.6 112.3 186.9 108.4 187.6C100.3 189 91.4 187.3 85.7 181C85.6 180.9 85.4 181.1 85.5 181.2C89.6 185.8 95.8 188.2 102 188.3C105.6 188.4 109.2 187.8 112.7 186.8C114.4 186.3 116 185.7 117.6 185C119.1 184.4 120.7 183.7 122 182.7C123.1 181.9 123.9 180.9 124.4 179.5C124.7 178.6 125 177.6 125.8 177.1C126.3 176.8 126.9 176.8 127.3 177.2C127.5 177.4 127.6 177.7 127.6 177.9C127.5 178.4 127 178.5 126.7 178.2C126.2 177.8 126 176.9 125.9 176.2C125.8 175.5 125.8 174.7 127 174.8C127.3 174.8 127.7 175 128 175.1C129.1 175.2 130 174.4 130.3 173.5C130.8 172.2 130.2 170.8 129.5 169.6C128.6 168.1 127.7 166.5 126.8 165C124.9 161.8 123.1 158.6 121.4 155.3C117.6 148 114.3 140.5 112.2 132.5C112 132.5 111.7 132.6 111.8 132.7Z" fill="#333338"/>
<path d="M121 137.9C122.1 141.5 120.2 145.6 116.7 147.2C116.5 147.3 116.7 147.5 116.8 147.4C120.3 145.8 122.3 141.5 121.2 137.8C121.2 137.6 120.9 137.7 121 137.9Z" fill="#333338"/>
<path d="M119.1 192C116 193.4 112.6 194.1 109.2 194.1C109 194.1 109 194.4 109.2 194.4C112.7 194.4 116.1 193.7 119.2 192.3C119.4 192.2 119.2 192 119.1 192Z" fill="#333338"/>
<path d="M115.1 191.3C114.2 191.6 113.2 191.7 112.3 191.6C112.1 191.6 112.1 191.9 112.3 191.9C113.3 192 114.2 191.9 115.2 191.6C115.3 191.5 115.3 191.3 115.1 191.3Z" fill="#333338"/>
<path d="M121.2 94.2C119.3 92.5 118.7 92 116.9 90.3C118.3 89.3 119.9 87.9 120.3 86.1C119.6 82.6 114.4 79.7 111.3 77.9C106.3 75.6 105 83.9 108.3 86.5C102.7 85.7 108.4 95.6 111 89.3C112.8 92.1 114.9 95.4 116.6 98.1L114.2 106.6C116.7 105.4 127.5 102.9 127.9 93.4L121.2 94.2Z" fill="#EBBEB2"/>
<path d="M107.7 87.6C107.1 88.6 107.9 90 109.1 90C109.2 90 109.3 89.8 109.1 89.8C106.9 89.6 108.2 87.4 107.7 87.6Z" fill="#333338"/>
<path d="M108.1 89.2C108.3 89 108.7 89 109 89.2C109.6 89 108.2 88.6 108 89C107.8 89.1 108 89.3 108.1 89.2Z" fill="#333338"/>
<path d="M120 96.4C119.7 96.3 118.4 96.6 118.9 96.8C119.1 96.5 120.4 96.8 120 96.4Z" fill="#333338"/>
<path d="M120.9 95.8C120.7 95.5 120.6 95.2 120.6 94.8C120.1 94.2 120.7 96.5 120.9 95.8Z" fill="#333338"/>
<path d="M110.8 84C112.5 85.3 114 83.7 112.4 82.2C112.3 82.1 112.2 82.2 112.2 82.3C113.6 83.7 112.4 84.9 110.9 83.8C110.8 83.7 110.7 83.9 110.8 84Z" fill="#333338"/>
<path d="M113.3 81.2C115.1 82.1 115.9 80.4 114.2 79.4C114.1 79.3 113.9 79.5 114 79.5C115.5 80.4 115 81.7 113.3 80.9C113.2 80.9 113.2 81.1 113.3 81.2Z" fill="#333338"/>
<path d="M109.8 83.7C109.6 82.9 110.3 82 110 81.4C109.4 81.4 109 84.5 109.8 83.7Z" fill="#333338"/>
<path d="M111.7 79.8C111.9 79.3 112.8 79.1 112.7 78.6C112.4 78.3 110.7 80.1 111.7 79.8Z" fill="#333338"/>
<path d="M112.6 90.1C114.1 91.5 116 91 117.5 89.8C117.6 89.7 117.5 89.5 117.4 89.6C116 90.7 114.2 91.2 112.7 89.9C112.6 89.9 112.5 90.1 112.6 90.1Z" fill="#333338"/>
<path d="M113.5 84.5C114.1 85.1 112.7 86.5 112.1 85.9C111.5 85.3 113 83.9 113.5 84.5Z" fill="#D77371"/>
<path d="M116.3 81.3C116.9 81.9 116 82.7 115.5 82.1C114.9 81.6 115.7 80.7 116.3 81.3Z" fill="#D77371"/>
<path d="M114.8 82.8C114.8 82.3 115.8 82 115.7 82.6C115.7 82.9 114.8 83.2 115.3 83.3C116.9 82.6 115 81.2 114.5 82.7C114.5 82.8 114.7 82.9 114.8 82.8Z" fill="#333338"/>
<path d="M114.2 84.7C113 86.5 116.5 87.4 117.5 86.1C118.5 85.3 118 83.4 116.7 83.5C115.8 83.8 114.9 84.3 114.2 84.7Z" fill="#333338"/>
<path d="M114.7 84.8C116.6 85.3 118 82.4 115.1 84.2C114.8 84.3 114.2 84.5 114.7 84.8Z" fill="white"/>
<path d="M115.5 86.7C115.5 86.7 116.2 85.3 117.8 85.7C117.8 85.7 117.3 86.9 115.5 86.7Z" fill="#D77371"/>
<path d="M109.5 127.5C110.7 127 112 126.5 112.9 125.6C113.8 124.7 114.3 123.2 113.8 122C113.3 120.9 112 120.1 112.1 118.9C112.2 118.2 112.7 117.8 113 117.2C113.7 115.9 113.1 114.3 112.5 112.9C111.7 111.1 111 109.1 110.8 107.1C110.7 105.1 111.3 102.9 112.8 101.7C113.6 101 114.5 100.6 114.8 99.6C113.7 98.8 113.1 97.4 113.2 96C113.2 95.6 113.6 95.2 113.9 95.1C115.9 94.3 117.6 93 119 91.4C120.3 91.2 121.6 92 121.7 93.3C125.8 92.4 130.3 92.7 134.3 94.1C135.6 94.6 137 95.2 137.9 96.3C138.6 97.2 139.1 98.3 139.4 99.4C141.4 105.3 142.2 111.7 141.4 117.9C140.6 124.1 138.1 130.1 133.9 134.8C131.3 137.7 126.3 137.1 122.4 136.3C118.5 135.5 115 133.6 111.7 131.3C110.6 130.3 109.8 129 109.5 127.5Z" fill="#824F49"/>
<path d="M119.2 90.8C118.8 91 118.5 91.3 118.2 91.6C117.7 92.1 117.1 92.5 116.4 92.8C115.6 93.3 114.8 93.7 114 94.1C113.5 94.3 113 94.6 112.7 95C112.1 95.8 112.4 97 112.8 98C113 98.5 113.2 98.9 113.6 99.3C114.1 99.7 114.9 99.8 115.6 99.6C116.3 99.4 116.8 99 117.4 98.6C118.2 98 119.1 97.3 119.9 96.6C120.7 96 121.5 95.4 122.1 94.6C122.5 94.1 122.9 93.6 122.8 92.9C122.8 92.2 122.3 91.4 121.7 91C121 90.4 120 90.4 119.2 90.8Z" fill="#83753C"/>
<path d="M134.9 135.9C134.2 137.3 133.4 138.9 132 139.5C131.2 139.9 130.3 139.9 129.4 139.9C121.7 139.7 114.2 135.9 109.5 129.8C108.8 128.8 108.1 127.6 108.5 126.5C108.8 125.5 109.8 125 110.7 124.5C111.8 123.9 113.1 123.3 114.4 123.6C115.2 123.8 115.8 124.4 116.4 124.9C119.9 128 123.9 130.5 128.2 132.4C129.5 133 131 133.6 132.5 133.7C133.1 133.7 133.6 133.6 134.2 133.4C134.6 133.2 134.9 133.2 135.2 133.6C135.6 134.3 135.2 135.2 134.9 135.9Z" fill="#83753C"/>
<path d="M118.4 91.8C118.7 91.6 119.3 91.9 119.6 92.1C120 92.3 120.3 92.6 120.6 92.9C121.2 93.5 121.6 94.2 121.7 95C121.7 95.2 122 95.1 122 94.9C121.8 94 121.3 93.2 120.6 92.5C120.3 92.2 119.9 91.9 119.5 91.7C119.1 91.5 118.6 91.3 118.2 91.6C118.1 91.7 118.3 91.9 118.4 91.8Z" fill="#333338"/>
<path d="M116.9 92.8C118.2 93.7 119.2 95.1 119.6 96.7C119.6 96.9 119.9 96.8 119.9 96.6C119.5 95 118.5 93.5 117.1 92.5C116.9 92.5 116.7 92.7 116.9 92.8Z" fill="#333338"/>
<path d="M115.2 93.6C115.4 95.5 116.2 97.3 117.4 98.8C117.5 98.9 117.7 98.7 117.6 98.6C116.5 97.2 115.7 95.4 115.5 93.6C115.5 93.4 115.2 93.4 115.2 93.6Z" fill="#333338"/>
<path d="M113.6 94.4C113.9 96.2 114.5 97.9 115.5 99.5C115.6 99.6 115.8 99.5 115.7 99.4C114.7 97.9 114.1 96.2 113.8 94.4C113.9 94.1 113.6 94.2 113.6 94.4Z" fill="#333338"/>
<path d="M131.7 133.7C131.9 135.8 131.3 137.8 130 139.4C129.9 139.5 130.1 139.7 130.2 139.6C131.5 137.9 132.2 135.8 132 133.7C131.9 133.5 131.7 133.5 131.7 133.7Z" fill="#333338"/>
<path d="M127.6 132.4C127.5 134.9 126.6 137.2 125 139.1C124.9 139.2 125.1 139.4 125.2 139.3C126.8 137.3 127.7 134.9 127.8 132.4C127.9 132.2 127.6 132.2 127.6 132.4Z" fill="#333338"/>
<path d="M124.3 130.5C122.5 132.5 121.3 134.9 120.7 137.5C120.7 137.7 120.9 137.7 121 137.6C121.5 135.1 122.7 132.7 124.5 130.7C124.6 130.6 124.4 130.4 124.3 130.5Z" fill="#333338"/>
<path d="M120.3 127.7C118.2 129.7 116.8 132.4 116.2 135.3C116.2 135.5 116.4 135.5 116.5 135.4C117.1 132.6 118.5 130 120.5 128C120.7 127.8 120.5 127.6 120.3 127.7Z" fill="#333338"/>
<path d="M115.9 124.9C113.8 126.6 112.3 129 111.8 131.6C111.8 131.8 112 131.8 112.1 131.7C112.6 129.1 114 126.8 116.1 125.1C116.2 124.9 116 124.7 115.9 124.9Z" fill="#333338"/>
<path d="M138.6 99.8C138.6 101 138.1 102.2 137.6 103.2C137.2 104.2 136.7 105.2 136.2 106.2C135.2 108.2 134.1 110.1 132.9 112C132.8 112.1 133 112.3 133.1 112.1C134.4 110.1 135.5 108.1 136.6 105.9C137.1 104.9 137.6 103.8 138 102.7C138.4 101.7 138.8 100.8 138.8 99.7C138.9 99.7 138.6 99.7 138.6 99.8Z" fill="#333338"/>
<path d="M125.1 114.3C124.2 114.3 123.3 113.7 122.9 112.9C122.8 112.7 122.6 112.9 122.7 113C123.2 113.9 124.1 114.5 125.2 114.6C125.3 114.5 125.3 114.3 125.1 114.3Z" fill="#333338"/>
<path d="M138.7 104.3C138.6 107.8 137.7 111.2 136.1 114.3C136 114.5 136.3 114.6 136.3 114.4C137.9 111.3 138.8 107.8 139 104.3C139 104.1 138.7 104.1 138.7 104.3Z" fill="#333338"/>
<path d="M153.176 63.4411L176.058 59.6155L172.596 38.9032L149.713 42.7288L153.176 63.4411Z" fill="#E38195"/>
<path d="M148.027 44.5269L174.657 40.0746L173.701 34.354L147.071 38.8063L148.027 44.5269Z" fill="#EEBD77"/>
<path d="M164.2 61.5C162.2 53.3 160.6 45.1 159.5 36.7C159.5 36.6 159.3 36.6 159.3 36.8C160.5 45.1 162.1 53.4 164 61.6C164 61.7 164.2 61.7 164.2 61.5Z" fill="#333338"/>
<path d="M159.5 37.1C162.5 34.6 164.9 30.9 164.2 26.9C164 25.5 163.1 23.5 161.3 24C159.5 24.5 159.1 26.8 159 28.3C158.9 29.6 159 30.8 159.1 32.1C159.2 33.5 159.3 35 159.4 36.4C159.4 36.5 159.6 36.5 159.6 36.4C159.5 34 159.2 31.5 159.2 29C159.2 27.8 159.4 26.5 160 25.4C160.7 24.2 162.3 23.6 163.3 24.9C164.7 26.8 164.3 29.7 163.5 31.7C162.7 33.8 161.1 35.5 159.4 36.9C159.2 37 159.4 37.2 159.5 37.1Z" fill="#333338"/>
<path d="M159.5 37.1C158.7 35.1 158 33.2 156.9 31.4C155.9 29.7 154.5 28 152.6 27.1C151.8 26.8 151 26.7 150.3 27.2C149.7 27.7 149.4 28.5 149.4 29.3C149.5 30.3 150.1 31.3 150.7 32.1C151.3 32.9 152.1 33.7 152.9 34.3C154.7 35.7 156.9 36.7 159.2 37C159.3 37 159.4 36.8 159.3 36.8C157.5 36.5 155.7 35.9 154.1 34.9C152.5 33.9 151 32.5 150.1 30.9C149.6 30 149.4 28.9 149.9 28C150.6 26.9 151.8 27 152.9 27.6C154.5 28.5 155.8 30 156.7 31.6C157.8 33.4 158.6 35.3 159.3 37.3C159.4 37.3 159.6 37.3 159.5 37.1Z" fill="#333338"/>
<path d="M159.6 36.7C160.5 35.1 160.8 33.4 161.4 31.7C162.1 30 163.2 28.5 164.7 27.5C165.5 27 166.7 26.2 167.6 26.7C168.3 27 168.6 27.9 168.5 28.7C168.4 29.6 167.7 30.4 167 31C166.3 31.6 165.5 32.2 164.7 32.8C162.8 34.3 160.9 35.7 159 37C158.9 37.1 159 37.3 159.1 37.2C161 35.9 162.9 34.5 164.8 33C165.7 32.3 166.6 31.7 167.4 30.9C168 30.3 168.5 29.6 168.7 28.8C168.8 28.1 168.7 27.4 168.2 26.9C167.7 26.3 166.9 26.2 166.2 26.5C164.5 27 163 28.4 162 29.9C160.7 31.9 160.5 34.4 159.3 36.6C159.4 36.7 159.6 36.8 159.6 36.7Z" fill="#333338"/>
<path d="M170.9 43.2C171.2 44.3 171.4 45.4 171.7 46.5L171.8 46.4C170.6 46.5 169.5 46.5 168.3 46.6C167.7 46.6 167.2 46.7 166.6 46.7C166.4 46.7 166.2 46.7 166.1 46.5C166.1 46.4 166.1 46.3 166.1 46.1C166.1 45.8 166 45.5 166 45.2C166 44.9 165.9 44.6 165.9 44.3C165.9 44.1 165.7 43.6 165.9 43.4C166.1 43.2 166.4 43.2 166.7 43.2C167 43.2 167.3 43.2 167.5 43.1C168.6 43.1 169.8 43.1 170.9 43.2C171.1 43.2 171.1 43 171 43C169.9 42.9 168.8 42.9 167.7 43C167.2 43 166.7 43 166.2 43.1C165.9 43.1 165.6 43.3 165.6 43.6C165.6 43.8 165.6 44 165.6 44.2C165.6 44.5 165.7 44.7 165.7 45C165.8 45.5 165.8 46 165.9 46.4C166 46.7 166.1 46.9 166.5 46.9C167 46.9 167.6 46.8 168.1 46.8C169.3 46.7 170.6 46.7 171.8 46.6C171.9 46.6 171.9 46.5 171.9 46.5C171.6 45.4 171.4 44.3 171.1 43.2C171 43 170.8 43.1 170.9 43.2Z" fill="#333338"/>
<path d="M171.5 60.4C170.2 61.6 168.3 61.9 166.6 62.4C162 63.7 158 66.9 155.6 71C153.8 70.8 151.8 69.7 150.1 68.9C151.2 66.6 151.7 63.9 151.8 61.3C151.8 59.6 151.7 57.9 152.2 56.3C152.7 54.7 154.2 53.3 155.9 53.6C157.2 55.5 154 58.2 155.3 60.1C155.9 61.1 157.3 61.1 158.5 60.8C159.7 60.5 161 60 161.7 59C162.3 58.1 162.3 56.9 162.8 56C163.3 55.1 164.3 54.4 165.3 54.3C165.7 54.2 166.2 54.3 166.5 54.6C167 55.1 166.7 55.9 166.4 56.6C165.8 57.8 165.2 59 164.6 60.2C165.7 60.6 166.9 60.2 168 59.8C169 59.5 170.6 59.7 171.5 60.4Z" fill="#EBBEB2"/>
<path d="M155.6 53.8C155.4 54.3 155.1 54.8 154.6 55.1C154.1 55.3 153.6 55.2 153.2 54.9C153.1 54.8 152.9 55 153 55.1C153.4 55.6 154.1 55.6 154.6 55.4C155.2 55.1 155.6 54.6 155.8 54C155.9 53.7 155.6 53.6 155.6 53.8Z" fill="#333338"/>
<path d="M165.9 54.4C165.8 54.7 165.7 54.9 165.6 55.2C165.5 55.5 165.4 55.7 165.4 56C165.4 56.4 165.6 56.9 166.1 56.9C166.3 56.9 166.3 56.6 166.1 56.6C165.9 56.6 165.8 56.5 165.7 56.3C165.6 56.1 165.6 55.9 165.7 55.7C165.8 55.5 165.8 55.3 165.9 55.1C166 54.9 166.1 54.7 166.2 54.5C166.2 54.3 166 54.3 165.9 54.4Z" fill="#333338"/>
<path d="M164.9 59.1C164.7 59.6 164.4 60.2 164.2 60.7C164 61.2 163.7 61.7 163.4 62C163 62.4 162.5 62.6 162.1 62.9C161.6 63.2 161 63.5 160.5 63.8C160.4 63.9 160.5 64.1 160.6 64C161.1 63.7 161.7 63.4 162.2 63C162.7 62.7 163.1 62.5 163.5 62.1C163.9 61.7 164.1 61.3 164.3 60.8C164.6 60.2 164.8 59.7 165.1 59.1C165.2 59.1 165 58.9 164.9 59.1Z" fill="#333338"/>
<path d="M169.7 61.4C169.7 60.9 170 60.4 170.4 60.3C170.5 60.3 170.5 60.2 170.5 60.1C170.5 60 170.4 60 170.3 60C169.7 60.2 169.3 60.8 169.4 61.4C169.4 61.6 169.7 61.6 169.7 61.4Z" fill="#333338"/>
<path d="M122.7 108.9C128.6 106.5 134.3 103.7 139.8 100.6C142.4 99.1 145 97.5 146.8 95.1C148.4 93.1 149.3 90.7 150.1 88.3C152.5 81.9 154.9 75.4 157.3 69C154.7 68 152.1 67.4 149.7 66.1C147.6 72.1 145.2 78 143.1 84C143 84.3 142.9 84.6 142.6 84.7C142.3 84.9 141.8 84.8 141.5 84.8C140.6 84.9 140.2 86.3 140.9 86.9C140.3 86.6 139.4 87 139.3 87.8C139.3 88.1 139.3 88.3 139.3 88.6C139.2 88.8 139 89 138.8 89.2C136.4 91 133.8 92.5 131.1 93.7C128.7 94.8 126.1 95.6 123.8 96.9C121.5 98.2 119.5 100.3 118.9 102.9C118.3 105.4 120.2 108.1 122.7 108.9Z" fill="#824F49"/>
<path d="M140.3 99.9C137.1 101.6 133.9 103.5 130.4 104.7C127.2 105.8 122.2 106.5 120.9 102.4C120.8 102.2 120.6 102.3 120.6 102.5C121.8 106.2 125.9 106.2 129.1 105.4C133.1 104.4 136.8 102.1 140.4 100.2C140.6 100.1 140.4 99.8 140.3 99.9Z" fill="#333338"/>
<path d="M132.3 92.9C130.8 93.5 129.3 94.1 127.8 94.6C127.6 94.7 127.7 94.9 127.9 94.9C129.4 94.4 130.9 93.9 132.4 93.2C132.5 93.1 132.4 92.8 132.3 92.9Z" fill="#333338"/>
<path d="M144.4 87.1C143.4 87 142.5 86.8 141.5 86.7C141.3 86.7 141.3 86.9 141.4 87C142.4 87.1 143.3 87.3 144.3 87.4C144.5 87.4 144.5 87.1 144.4 87.1Z" fill="#333338"/>
<path d="M141.9 88.5C141.6 88.1 141.3 87.6 141 87.2C141 87.1 140.9 87.1 140.8 87.2C140.7 87.2 140.7 87.3 140.8 87.4C141.1 87.8 141.4 88.3 141.7 88.7C141.7 88.8 141.8 88.8 141.9 88.7C141.9 88.7 141.9 88.6 141.9 88.5Z" fill="#333338"/>
<path d="M180.8 47.2C180.5 46.5 180.1 45.9 179.8 45.2C179.2 44.1 178.6 42.9 177.4 42.5C176.7 42.2 175.8 42.3 175.1 42.5C174.6 42.7 174.4 43.1 174.3 43.6C174.2 44 174.1 44.5 174.2 45C174.3 45.3 174.5 45.6 174.7 45.9C175.9 47.6 176.9 49.6 177.5 51.6C177.5 51.8 177.6 51.9 177.7 52C177.9 52.1 178.2 51.9 178.4 51.7C179.1 50.9 179.9 50 180.6 49.2C180.8 49 181 48.7 181 48.4C181.1 48 180.9 47.6 180.8 47.2ZM176.3 43.8C176.3 43.9 176.3 44 176.2 44.1C176.1 44.2 175.9 44.3 175.7 44.3C175.5 44.3 175.3 44.2 175.2 44C175 43.7 175.1 43.3 175.3 43.1L175.4 43C175.6 42.9 175.8 42.9 176 43C176.2 43.1 176.4 43.5 176.3 43.8Z" fill="#BF5A48"/>
<path d="M176.6 48.4C176.5 48.4 176.5 48.4 176.4 48.3C176.3 48.2 176.3 48.1 176.4 48L179.4 45.7C179.5 45.6 179.6 45.6 179.7 45.7C179.8 45.8 179.8 45.9 179.7 46L176.7 48.3C176.7 48.4 176.7 48.4 176.6 48.4Z" fill="#EEBD77"/>
<path d="M178.1 46.3C178 46.3 177.9 46.3 177.9 46.3C177.7 46.2 177.5 46.1 177.4 45.9C177.3 45.7 177.3 45.5 177.3 45.2C177.4 45 177.5 44.8 177.7 44.7C177.9 44.6 178.1 44.6 178.4 44.6C178.9 44.7 179.1 45.2 179 45.7C178.8 46 178.4 46.3 178.1 46.3ZM178.1 45C178 45 177.9 45 177.9 45.1C177.8 45.2 177.7 45.3 177.7 45.4C177.7 45.5 177.7 45.6 177.7 45.7C177.8 45.8 177.9 45.9 178 45.9C178.1 45.9 178.2 45.9 178.3 45.9C178.4 45.8 178.5 45.7 178.5 45.6C178.6 45.4 178.4 45.1 178.2 45.1C178.1 45 178.1 45 178.1 45Z" fill="#EEBD77"/>
<path d="M178.8 49.4C178.7 49.4 178.6 49.4 178.6 49.4C178.4 49.3 178.2 49.2 178.1 49C178 48.8 178 48.6 178 48.3C178.1 48.1 178.2 47.9 178.4 47.8C178.6 47.7 178.8 47.7 179.1 47.7C179.6 47.8 179.8 48.3 179.7 48.8C179.6 49 179.5 49.2 179.3 49.3C179.1 49.4 178.9 49.4 178.8 49.4ZM178.8 48.1C178.7 48.1 178.6 48.1 178.6 48.2C178.5 48.3 178.4 48.4 178.4 48.5C178.4 48.6 178.4 48.7 178.4 48.8C178.5 48.9 178.6 49 178.7 49C178.8 49 178.9 49 179 49C179.1 48.9 179.2 48.8 179.2 48.7C179.3 48.5 179.1 48.2 178.9 48.2C178.8 48.1 178.8 48.1 178.8 48.1Z" fill="#EEBD77"/>
<path d="M175.7 43.4C173.9 42.5 172 41.6 170.4 40.2C169.7 39.6 169 38.9 168.5 38.1C168.2 37.7 168 37.3 167.8 36.9C167.6 36.4 167.4 35.9 167.4 35.4C167.4 34.9 167.6 34.3 168.2 34.1C168.8 33.9 169.3 34.4 169.7 34.7C169.8 34.8 169.9 34.7 169.8 34.6C169.5 34.3 169.1 33.9 168.6 33.9C168.2 33.9 167.8 34.1 167.5 34.4C166.9 35.3 167.3 36.4 167.7 37.3C168.6 39.2 170.3 40.6 172 41.7C173.1 42.4 174.3 43 175.4 43.6C175.7 43.6 175.8 43.5 175.7 43.4Z" fill="#83753C"/>
<path d="M174.1 40.5C174.3 41.1 174.5 41.6 174.8 42.2C174.9 42.3 175 42.2 175 42.1C174.7 41.6 174.5 41 174.3 40.5C174.2 40.3 174 40.4 174.1 40.5Z" fill="#83753C"/>
<path d="M142.855 210.559H179.555V177.459H142.855V210.559Z" fill="#BF5A48"/>
<path d="M139.855 179.823H182.555V170.723H139.855V179.823Z" fill="#EEBD77"/>
<path d="M160.7 210.5C159.7 197.2 159.4 184 159.8 170.7C159.8 170.5 159.5 170.5 159.5 170.7C159.2 184 159.5 197.3 160.4 210.5C160.3 210.7 160.7 210.7 160.7 210.5Z" fill="#333338"/>
<path d="M159.6 171.2C165 168.1 169.7 163 169.6 156.4C169.6 154.1 168.7 150.8 165.7 151.2C162.8 151.6 161.5 155.2 160.9 157.7C160.5 159.6 160.3 161.5 160.1 163.4C159.9 165.6 159.6 167.8 159.4 170C159.4 170.2 159.7 170.2 159.7 170C160 166.8 160.3 163.6 160.7 160.5C161.1 157.7 161.7 154.2 164 152.3C165.3 151.2 167.2 151.1 168.3 152.6C169.1 153.7 169.2 155.2 169.2 156.5C169.2 159.4 168.2 162.2 166.5 164.6C164.7 167.2 162.1 169.3 159.3 170.9C159.3 171 159.4 171.3 159.6 171.2Z" fill="#333338"/>
<path d="M159.7 171.2C159 167.9 158.3 164.5 157 161.4C155.8 158.6 154.1 155.6 151.5 153.9C150.4 153.1 148.9 152.8 147.7 153.5C146.6 154.2 146 155.5 146 156.7C145.9 158.4 146.7 160 147.5 161.4C148.3 162.7 149.2 164 150.3 165.1C152.8 167.7 155.9 169.7 159.3 170.8C159.5 170.9 159.6 170.5 159.4 170.5C154 168.8 148.7 164.5 146.7 159.1C146.1 157.5 146 155.6 147.2 154.3C148.6 152.7 150.6 153.4 151.9 154.6C154.2 156.5 155.7 159.2 156.8 161.9C158 164.9 158.7 168.1 159.3 171.2C159.5 171.5 159.8 171.4 159.7 171.2Z" fill="#333338"/>
<path d="M160 170.6C161.7 168.4 162.7 165.8 164.1 163.4C165.6 160.9 167.7 158.8 170.4 157.6C171.7 157 173.8 156.1 175.2 157C176.3 157.7 176.5 159.3 176.1 160.5C175.7 161.9 174.4 162.9 173.2 163.6C171.9 164.4 170.5 165.1 169.2 165.8C165.9 167.6 162.5 169.3 159.1 170.9C158.9 171 159.1 171.3 159.3 171.2C162.8 169.6 166.2 167.8 169.6 166C171.1 165.2 172.7 164.4 174 163.4C175 162.7 175.9 161.8 176.3 160.6C176.6 159.6 176.6 158.4 176 157.5C175.3 156.5 174.2 156.2 173 156.3C170.1 156.7 167.3 158.6 165.4 160.8C162.9 163.6 162 167.3 159.7 170.2C159.6 170.5 159.9 170.8 160 170.6Z" fill="#333338"/>
<path d="M185 210.1H104.6V231.4H185V210.1Z" fill="#E38195"/>
<path d="M186.7 210.1H102.8V216.8H186.7V210.1Z" fill="#508398"/>
<path d="M108.1 223.7C110 225.8 112.1 227.7 114.4 229.5C114.5 229.6 114.7 229.4 114.6 229.3C112.4 227.6 110.3 225.6 108.3 223.5C108.1 223.4 108 223.6 108.1 223.7Z" fill="#333338"/>
<path d="M110.3 222.9C111.4 224.1 112.6 225.3 113.7 226.5C113.8 226.6 114 226.4 113.9 226.3C112.8 225.1 111.6 223.9 110.5 222.7C110.3 222.5 110.1 222.7 110.3 222.9Z" fill="#333338"/>
<path d="M175.9 228.1C176.7 226.1 177.6 224 178.4 222C178.5 221.8 178.2 221.8 178.1 221.9C177.3 223.9 176.4 226 175.6 228C175.6 228.2 175.8 228.3 175.9 228.1Z" fill="#333338"/>
<path d="M174.4 224.8C174.7 224 175.1 223.2 175.4 222.5C175.5 222.3 175.2 222.2 175.2 222.4C174.9 223.2 174.5 224 174.2 224.7C174.1 224.8 174.4 224.9 174.4 224.8Z" fill="#333338"/>
<path d="M146.2 199.3C147.4 202.1 149.2 204.6 151.5 206.7C151.6 206.8 151.8 206.6 151.7 206.5C149.5 204.4 147.7 201.9 146.4 199.1C146.3 199 146.1 199.2 146.2 199.3Z" fill="#333338"/>
<path d="M145.7 192.4C146.6 194.1 147.5 195.8 148.3 197.4C148.4 197.6 148.6 197.4 148.5 197.3C147.6 195.6 146.7 193.9 145.9 192.3C145.9 192.1 145.6 192.2 145.7 192.4Z" fill="#333338"/>
<path d="M168.7 195.4C171.1 192.8 172.8 189.7 173.7 186.3C173.7 186.1 173.5 186.1 173.4 186.2C172.5 189.5 170.8 192.6 168.4 195.2C168.4 195.3 168.6 195.5 168.7 195.4Z" fill="#333338"/>
<path d="M173.9 191.3C174 191 174.1 190.6 174.2 190.3C174.2 190.2 174.2 190.1 174.1 190.1C174 190.1 174 190.1 173.9 190.2C173.8 190.5 173.7 190.9 173.6 191.2C173.6 191.3 173.6 191.4 173.7 191.4C173.8 191.4 173.8 191.4 173.9 191.3Z" fill="#333338"/>
<path d="M157.9 130.7C158 131.9 158.2 133.1 158.3 134.4C158.4 135.3 158.5 136.3 158.4 137.2C158.3 138.1 157.8 139 157 139.6C156.6 139.9 156.1 140 155.7 140.3C155.1 140.6 154.5 141.2 154.2 141.8C153.9 141.1 153.3 140.5 152.7 140C152.3 139.7 151.8 139.4 151.4 139.1C150.5 138.3 150 137.1 149.9 135.9C149.8 134.7 150 133.5 150.2 132.3C150.3 131.5 151.5 130.8 152.2 130.6C154.2 130.2 156.1 130.4 157.9 130.7Z" fill="#E3823A"/>
<path d="M156 134.9C157 134.9 157.9 134.7 158.7 134.1C159.1 133.8 159.4 133.5 159.6 133.1C159.8 132.5 159.5 131.8 159.1 131.3C158.6 130.8 158 130.5 157.4 130.3C155.9 129.6 154.1 129 152.6 129.6C152.1 129.8 151.6 130.2 151.1 130.4C150.6 130.6 150 130.7 149.6 131.1C149.1 131.6 149.1 132.4 149.4 133C149.7 133.6 150.4 134 151 134.3C152.4 134.9 155.7 134.9 156 134.9Z" fill="#493832"/>
<path d="M154.7 131.5C154.5 129 154.8 126.4 155.7 124C155.8 123.7 155.3 123.5 155.2 123.9C154.3 126.3 154 129 154.2 131.5C154.1 131.8 154.7 131.8 154.7 131.5Z" fill="#493832"/>
<path d="M150.8 135C150.4 136.5 151.3 137.9 152.5 138.8C152.6 138.9 152.7 138.7 152.6 138.7C151.4 137.9 150.6 136.5 151 135.1C151 135 150.8 134.9 150.8 135Z" fill="#27374A"/>
<path d="M151.3 136.5C151.4 136.9 151.6 137.3 151.9 137.6H152V137.5C151.8 137.2 151.6 136.9 151.5 136.5C151.4 136.4 151.3 136.4 151.3 136.5Z" fill="#27374A"/>
<path d="M156 139.5C156.8 138.8 157.6 137.9 157.6 136.7C157.6 136.6 157.4 136.6 157.5 136.7C157.5 137.8 156.7 138.7 156 139.4C155.8 139.4 155.9 139.5 156 139.5Z" fill="#27374A"/>
<path d="M157.1 137.4C157.3 136.9 157.3 136.4 157.1 135.9C157.1 135.8 156.9 135.9 157 135.9C157.2 136.4 157.2 136.9 157 137.3C156.9 137.5 157 137.5 157.1 137.4Z" fill="#27374A"/>
<path d="M150 131.4C150.1 132.7 151.5 133 152.6 133.3C154 133.7 155.4 133.9 156.7 133.5C156.8 133.5 156.8 133.3 156.7 133.4C155.5 133.7 154.2 133.6 153 133.2C152 132.9 150.3 132.6 150.2 131.3C150.1 131.4 150 131.4 150 131.4Z" fill="#27374A"/>
<path d="M157.6 133.4C157.9 133.3 158.2 133.2 158.5 133C158.6 132.9 158.5 132.8 158.4 132.9C158.1 133.1 157.8 133.2 157.5 133.2C157.4 133.3 157.5 133.4 157.6 133.4Z" fill="#27374A"/>
<path d="M152.8 132.2C153.4 132.4 154 132.6 154.7 132.7C154.8 132.7 154.8 132.6 154.7 132.6C154.1 132.5 153.4 132.4 152.8 132.1C152.7 132 152.7 132.2 152.8 132.2Z" fill="#27374A"/>
<path d="M80.6 160.4C81.2 160.9 81.3 161.8 80.8 162.5C80.3 163.1 79.4 163.2 78.7 162.7C78.1 162.2 78 161.3 78.5 160.6C79.1 159.9 80 159.9 80.6 160.4Z" fill="#C95555"/>
<path d="M82.2 154C82.8 154.5 82.9 155.4 82.4 156.1C81.9 156.7 81 156.8 80.3 156.3C79.7 155.8 79.6 154.9 80.1 154.2C80.7 153.6 81.6 153.5 82.2 154Z" fill="#C95555"/>
<path d="M88 154.9C88.6 155.4 88.7 156.3 88.2 157C87.7 157.6 86.8 157.7 86.1 157.2C85.5 156.7 85.4 155.8 85.9 155.1C86.5 154.5 87.4 154.4 88 154.9Z" fill="#C95555"/>
<path d="M84.6 165.4C85.2 165.9 85.3 166.8 84.8 167.5C84.3 168.1 83.4 168.2 82.7 167.7C82.1 167.2 82 166.3 82.5 165.6C83.1 165 84 164.9 84.6 165.4Z" fill="#C95555"/>
<path d="M92.4 159.5C93 160 93.1 160.9 92.6 161.6C92.1 162.2 91.2 162.3 90.5 161.8C89.9 161.3 89.8 160.4 90.3 159.7C90.9 159 91.8 159 92.4 159.5Z" fill="#C95555"/>
<path d="M88.6 169.5C89.2 170 89.3 170.9 88.8 171.6C88.3 172.2 87.4 172.3 86.7 171.8C86.1 171.3 86 170.4 86.5 169.7C87 169.1 87.9 169 88.6 169.5Z" fill="#C95555"/>
<path d="M96.1 164.5C96.7 165 96.8 165.9 96.3 166.6C95.8 167.2 94.9 167.3 94.2 166.8C93.6 166.3 93.5 165.4 94 164.7C94.5 164 95.4 164 96.1 164.5Z" fill="#C95555"/>
<path d="M81.7 155.7C86.1 161.8 91.1 167.4 96.6 172.5C96.7 172.6 96.9 172.4 96.8 172.3C91.3 167.3 86.3 161.7 81.9 155.6C81.8 155.5 81.6 155.6 81.7 155.7Z" fill="#27374A"/>
<path d="M80.4 161.3C82.2 161.2 83.9 161.2 85.7 161.1C85.9 161.1 85.9 160.8 85.7 160.8C83.9 160.9 82.2 160.9 80.4 161C80.3 161 80.3 161.3 80.4 161.3Z" fill="#27374A"/>
<path d="M86.8 156.7C86.7 158.6 86.8 160.5 87 162.4C87 162.6 87.3 162.6 87.3 162.4C87.1 160.5 87.1 158.6 87.1 156.7C87.1 156.5 86.8 156.5 86.8 156.7Z" fill="#27374A"/>
<path d="M84.3 166.3C85.9 165.9 87.5 165.5 89.2 165.2C89.4 165.2 89.3 164.9 89.1 165C87.5 165.3 85.9 165.7 84.2 166.1C84.1 166.1 84.1 166.4 84.3 166.3Z" fill="#27374A"/>
<path d="M91.1 161.1C91.2 163 91.2 165 91.3 166.9C91.3 167.1 91.6 167.1 91.6 166.9C91.5 165 91.5 163 91.4 161.1C91.3 161 91.1 161 91.1 161.1Z" fill="#27374A"/>
<path d="M88.2 170.6C90.1 170.5 91.9 170.2 93.7 169.8C93.9 169.8 93.8 169.5 93.6 169.6C91.8 170 90 170.3 88.1 170.4C88 170.3 88 170.6 88.2 170.6Z" fill="#27374A"/>
<path d="M94.8 166.3C94.9 167.9 95.1 169.4 95.2 171C95.2 171.2 95.5 171.2 95.5 171C95.4 169.4 95.2 167.9 95.1 166.3C95 166.1 94.8 166.1 94.8 166.3Z" fill="#27374A"/>
<path d="M198 96.5C198.6 97.3 198.4 98.5 198.1 99.5C198.9 98.7 199.5 97.7 200.4 96.8C201.2 96 202.3 95.3 203.4 95.3C204.6 95.3 205.8 96.2 205.8 97.4C205.8 98.2 205.2 98.9 204.7 99.5C206.1 98.5 207.7 97.8 209.4 97.4C210.3 97.2 211.3 97.1 212.2 97.3C213.1 97.6 213.9 98.4 213.9 99.3C213.9 99.8 213.7 100.2 213.5 100.6C212.4 102.5 210.1 103.3 208.1 103.9C209 103.8 209.9 103.9 210.6 104.5C211.9 105.6 211.1 108 209.5 108.8C207.9 109.6 206.1 109.2 204.4 108.9C205.3 108.7 206.2 109.7 206.1 110.7C206 111.6 205.2 112.4 204.2 112.6C203.3 112.8 202.3 112.7 201.4 112.4C199.2 111.7 197.2 110.4 194.8 110.1C193.5 110 190.9 110 190.5 108.2C190.2 106.9 191.2 105.3 191.8 104.2C192.2 103.4 192.6 102.5 193 101.6C193.4 100.6 193.5 99.6 193.9 98.6C194.2 97.5 194.8 96.6 195.9 96.1C196.3 95.8 197.4 95.8 198 96.5Z" fill="#83753C"/>
<path d="M209.5 100.4C201.7 103.8 194 107.3 186.3 111C186.2 111.1 186.3 111.2 186.4 111.2C194.1 107.5 201.8 104 209.6 100.6C209.8 100.5 209.7 100.3 209.5 100.4Z" fill="#27374A"/>
<path d="M195.5 101.5C195 103.4 194.5 105.3 194.1 107.2C194.1 107.3 194.3 107.4 194.3 107.3C194.8 105.4 195.3 103.5 195.7 101.6C195.7 101.4 195.5 101.3 195.5 101.5Z" fill="#27374A"/>
<path d="M202 98.9C200.5 100.7 199.3 102.8 198.6 105.1C198.6 105.2 198.8 105.3 198.8 105.2C199.5 103 200.6 100.9 202.1 99.1C202.2 98.9 202.1 98.8 202 98.9Z" fill="#27374A"/>
<path d="M207.5 105.6C205.1 105.6 202.7 105.4 200.4 104.8C200.3 104.8 200.2 105 200.3 105C202.6 105.6 205.1 105.9 207.5 105.8C207.6 105.8 207.6 105.6 207.5 105.6Z" fill="#27374A"/>
<path d="M201.7 108.8C199.6 108.1 197.6 107.4 195.5 106.8C195.4 106.8 195.3 107 195.4 107C197.5 107.7 199.5 108.4 201.6 109C201.8 109 201.8 108.9 201.7 108.8Z" fill="#27374A"/>
<path d="M129 63.8C131.7 64.7 134.7 65.5 136.6 67.6C136.4 65.7 137 63.7 136.9 61.8C136.6 58.2 133.1 55.1 129.5 55.3C128 55.4 126.6 55.8 125.1 55.7C124.3 55.7 122.9 55.3 122.2 55.9C121.3 56.6 122.2 58.5 122.6 59.3C123.2 60.4 124.1 61.3 125.1 61.9C126.3 62.8 127.6 63.3 129 63.8Z" fill="#E3823A"/>
<path d="M122.1 56.2C123.5 57.3 125.2 57.5 126.8 57.9C128.9 58.3 130.8 59.2 132.3 60.7C133.8 62.2 134.8 64.1 135.6 66C136.5 68.1 137.3 70.2 138.2 72.4C138.3 72.5 138.5 72.5 138.4 72.3C137.5 70.2 136.7 68 135.8 65.9C135 64.1 134.2 62.3 132.8 60.8C131.5 59.5 129.9 58.5 128.2 57.9C126.2 57.3 123.9 57.3 122.2 56C122.1 55.9 122 56.1 122.1 56.2Z" fill="#27374A"/>
<path d="M133.5 61.4C133.7 60 134 58.7 134.4 57.3C134.4 57.2 134.2 57.1 134.2 57.2C133.8 58.5 133.5 59.9 133.3 61.3C133.3 61.5 133.5 61.5 133.5 61.4Z" fill="#27374A"/>
<path d="M131.6 59.8C130.3 60.8 129 61.8 127.8 63C127.7 63.1 127.9 63.3 128 63.2C129.2 62.1 130.4 61 131.7 60C131.9 59.9 131.8 59.7 131.6 59.8Z" fill="#27374A"/>
<path d="M129.2 58.3C129.1 57.3 129 56.4 128.8 55.5C128.8 55.4 128.5 55.4 128.6 55.6C128.8 56.5 129 57.4 129 58.4C129 58.4 129.2 58.4 129.2 58.3Z" fill="#27374A"/>
<path d="M126.7 57.5C125.8 58.6 124.9 59.7 124.1 60.8C124 60.9 124.2 61.1 124.3 61C125.2 59.9 126.1 58.8 126.9 57.7C126.9 57.5 126.8 57.4 126.7 57.5Z" fill="#27374A"/>
<path d="M186.3 71.6C186.3 71.8 186.3 71.9 186.3 72.1C186.3 72.3 186.3 72.5 186.4 72.7C186.5 72.9 186.6 73.1 186.7 73.2C186.8 73.4 187 73.5 187.2 73.5C187.4 73.6 187.6 73.6 187.8 73.6C187.9 73.6 188.1 73.6 188.2 73.5C188.5 73.4 188.7 73.3 188.9 73.1C189 73 189.1 72.9 189.2 72.8C189.3 72.5 189.4 72.3 189.4 72C189.4 71.8 189.4 71.7 189.4 71.5C189.4 71.3 189.4 71.1 189.3 70.9C189.2 70.7 189.1 70.5 189 70.4C188.9 70.2 188.7 70.1 188.5 70.1C188.3 70 188.1 70 187.9 70C187.8 70 187.6 70 187.5 70.1C187.2 70.2 187 70.3 186.8 70.5C186.7 70.6 186.6 70.7 186.5 70.8C186.4 71.1 186.3 71.3 186.3 71.6Z" fill="#EEBD77"/>
<path d="M184.9 95.9C187 95.9 187 92.7 184.9 92.7C182.8 92.6 182.8 95.9 184.9 95.9Z" fill="#EEBD77"/>
<path d="M90.7 57C92.8 57 92.8 53.8 90.7 53.8C88.6 53.8 88.6 57 90.7 57Z" fill="#EEBD77"/>
<path d="M166.1 100.1C168.2 100.1 168.2 96.9 166.1 96.9C164 96.9 164 100.1 166.1 100.1Z" fill="#EEBD77"/>
<path d="M142.7 151.5C144.8 151.5 144.8 148.3 142.7 148.3C140.7 148.3 140.7 151.5 142.7 151.5Z" fill="#EEBD77"/>
<path d="M98.1 148C100.2 148 100.2 144.8 98.1 144.8C96 144.8 96 148 98.1 148Z" fill="#EEBD77"/>
<path d="M64.5 172.1C66.6 172.1 66.6 168.9 64.5 168.9C62.4 168.9 62.4 172.1 64.5 172.1Z" fill="#EEBD77"/>
<path d="M136.2 201.7C138.3 201.7 138.3 198.5 136.2 198.5C134.2 198.5 134.2 201.7 136.2 201.7Z" fill="#EEBD77"/>
<path d="M124.2 73.2C126.3 73.2 126.3 70 124.2 70C122.1 70 122.1 73.2 124.2 73.2Z" fill="#EEBD77"/>
<path d="M149.7 103.7C149.7 103.9 149.7 104 149.7 104.2C149.7 104.4 149.7 104.6 149.8 104.8C149.9 105 150 105.2 150.1 105.3C150.2 105.5 150.4 105.6 150.6 105.6C150.8 105.7 151 105.7 151.2 105.7C151.3 105.7 151.5 105.7 151.6 105.6C151.9 105.5 152.1 105.4 152.3 105.2C152.4 105.1 152.5 105 152.6 104.9C152.7 104.6 152.8 104.4 152.8 104.1C152.8 103.9 152.8 103.8 152.8 103.6C152.8 103.4 152.8 103.2 152.7 103C152.6 102.8 152.5 102.6 152.4 102.5C152.3 102.3 152.1 102.2 151.9 102.2C151.7 102.1 151.5 102.1 151.3 102.1C151.2 102.1 151 102.1 150.9 102.2C150.6 102.3 150.4 102.4 150.2 102.6C150.1 102.7 150 102.8 149.9 102.9C149.7 103.2 149.7 103.5 149.7 103.7Z" fill="#E3823A"/>
<path d="M187.9 52.6C190 52.6 190 49.4 187.9 49.4C185.8 49.4 185.8 52.6 187.9 52.6Z" fill="#E3823A"/>
<path d="M170.3 84.8C172.4 84.8 172.4 81.6 170.3 81.6C168.2 81.6 168.2 84.8 170.3 84.8Z" fill="#E3823A"/>
<path d="M177.6 111.5C177.4 111.5 177.3 111.5 177.1 111.5C176.9 111.5 176.7 111.5 176.5 111.6C176.3 111.7 176.1 111.8 176 111.9C175.8 112 175.7 112.2 175.7 112.4C175.6 112.6 175.6 112.8 175.6 113C175.6 113.1 175.6 113.3 175.7 113.4C175.8 113.7 175.9 113.9 176.1 114.1C176.2 114.2 176.3 114.3 176.4 114.4C176.7 114.5 176.9 114.6 177.2 114.6C177.4 114.6 177.5 114.6 177.7 114.6C177.9 114.6 178.1 114.6 178.3 114.5C178.5 114.4 178.7 114.3 178.8 114.2C179 114.1 179.1 113.9 179.1 113.7C179.2 113.5 179.2 113.3 179.2 113.1C179.2 113 179.2 112.8 179.1 112.7C179 112.4 178.9 112.2 178.7 112C178.6 111.9 178.5 111.8 178.4 111.7C178.2 111.5 177.9 111.5 177.6 111.5Z" fill="#E3823A"/>
<path d="M117.2 206.1C117.2 206 117.2 205.9 117.2 205.8C117.2 205.6 117.2 205.4 117.1 205.2C117 205 116.9 204.8 116.8 204.7C116.7 204.5 116.5 204.4 116.3 204.4C116.1 204.3 115.9 204.3 115.7 204.3C115.6 204.3 115.4 204.3 115.3 204.4C115 204.5 114.8 204.6 114.6 204.8C114.5 204.9 114.4 205 114.3 205.1C114.2 205.4 114.1 205.6 114.1 205.9C114.1 206 114.1 206.1 114.1 206.2C114.1 206.4 114.1 206.6 114.2 206.8C114.3 207 114.4 207.2 114.5 207.3C114.6 207.5 114.8 207.6 115 207.6C115.2 207.7 115.4 207.7 115.6 207.7C115.7 207.7 115.9 207.7 116 207.6C116.3 207.5 116.5 207.4 116.7 207.2C116.8 207.1 116.9 207 117 206.9C117.2 206.7 117.2 206.4 117.2 206.1C117.2 206 117.2 205.9 117.2 205.8C117.2 205.6 117.2 205.4 117.1 205.2C117 205 116.9 204.8 116.8 204.7C116.7 204.5 116.5 204.4 116.3 204.4C116.1 204.3 115.9 204.3 115.7 204.3C115.6 204.3 115.4 204.3 115.3 204.4C115 204.5 114.8 204.6 114.6 204.8C114.5 204.9 114.4 205 114.3 205.1C114.2 205.4 114.1 205.6 114.1 205.9C114.1 206 114.1 206.1 114.1 206.2C114.1 206.4 114.1 206.6 114.2 206.8C114.3 207 114.4 207.2 114.5 207.3C114.6 207.5 114.8 207.6 115 207.6C115.2 207.7 115.4 207.7 115.6 207.7C115.7 207.7 115.9 207.7 116 207.6C116.3 207.5 116.5 207.4 116.7 207.2C116.8 207.1 116.9 207 117 206.9C117.2 206.7 117.2 206.4 117.2 206.1Z" fill="#E3823A"/>
<path d="M89 150.5C91.1 150.5 91.1 147.3 89 147.3C87 147.3 87 150.5 89 150.5Z" fill="#E3823A"/>
<path d="M161.3 115.9C163.4 115.9 163.4 112.7 161.3 112.7C159.2 112.7 159.2 115.9 161.3 115.9Z" fill="#E3823A"/>
<path d="M109.8 51.5C111.9 51.5 111.9 48.3 109.8 48.3C107.7 48.3 107.7 51.5 109.8 51.5Z" fill="#E3823A"/>
</svg>
