<svg width="150" height="60" viewBox="0 0 150 60" fill="none" xmlns="http://www.w3.org/2000/svg">
<path d="M122 34.75C121.55 36.25 120.95 37.4 120.2 38.2C119.55 38.95 118.65 39.5 117.5 39.85L120.25 27.15C120.75 24.85 118.75 22.8 116.45 23.2L115.95 23.3L115.55 25.15V24.95C115.55 24.4 115.3 23.95 114.85 23.65C114.35 23.3 113.65 23.15 112.7 23.15C110.75 23.15 109.05 23.85 107.55 25.3C106.25 26.55 105.25 28.2 104.5 30.25C104.15 31.15 103.95 32.05 103.75 33C103.6 33.8 103.55 34.55 103.5 35.3C103.15 35.7 102.8 36.05 102.5 36.3C102.1 36.7 101.65 37.05 101.2 37.35C100.15 38.05 98.95 38.4 97.65 38.4C96.75 38.4 96.0999 38.2 95.75 37.8C95.2999 37.35 95.0999 36.55 95.0999 35.4C95.0999 35.05 95.1499 34.6 95.1999 33.95C96.2499 33.9 97.2999 33.65 98.25 33.25C99.25 32.85 100.1 32.3 100.9 31.65C101.7 30.95 102.3 30.2 102.75 29.3C103.2 28.4 103.4 27.45 103.4 26.45C103.4 25.4 103.15 24.65 102.65 24.1C102 23.4 100.95 23.05 99.5 23.05C97.2 23.05 95.2999 23.85 93.75 25.4C93.1 26.1 92.5 26.9 92 27.75C91.5 28.65 91.1 29.6 90.75 30.6C90.5499 31.25 90.35 31.9 90.25 32.55C89.95 32.6 88.7999 32.8 87.5 32.9L89.6999 18.5C90.0499 16.25 88.05 14.35 85.8 14.75L84.8499 14.95L77 33.75L77.8 14.95C76.9 14.6 75.9999 14.45 75.0999 14.45C74.1999 14.45 73.3 14.6 72.4 14.8C71.5 15.05 70.6 15.4 69.75 15.85C68.9 16.3 68.1 16.85 67.4 17.45C66.65 18.05 66.05 18.7 65.5 19.4C64.95 20.1 64.4999 20.85 64.1999 21.65C63.8999 22.4 63.75 23.15 63.75 23.9C63.75 25.05 64.1 25.85 64.8 26.4C65.45 26.9 66.35 27.15 67.55 27.15C67.55 27.05 67.55 26.95 67.5 26.9C67.4 26.75 67.3499 26.65 67.3499 26.5C67.1999 26.05 67.0999 25.45 67.0999 24.7C67.0999 22.7 67.6 21 68.55 19.6C69.55 18.25 70.95 17.25 72.75 16.65L63.7 41.15H66.55L72.5 25.05L71.8 41.15H76.6999L83.4 25.1L81 41.15H86.15L87.1999 34.05C87.8999 34 89 33.95 89.9 33.9C89.8 34.55 89.8 35.15 89.8 35.7C89.8 37.65 90.3 39.1 91.3 40.05C92.25 40.95 93.5999 41.35 95.3499 41.35C97.5 41.35 99.45 40.65 101.25 39.3C102.05 38.65 102.85 37.9 103.55 37.05C103.75 38.35 104.2 39.35 104.9 40.1C105.75 40.95 106.85 41.35 108.2 41.35C109.85 41.35 111.25 40.7 112.5 39.4L112.05 41.3C110.4 41.8 109.1 42.45 108.15 43.15C106.9 44.1 106.25 45.25 106.25 46.6C106.25 47.15 106.35 47.65 106.55 48.1C106.75 48.55 107.05 48.9 107.4 49.2C107.75 49.5 108.15 49.7 108.65 49.85C109.15 50 109.65 50.05 110.2 50.05C111.7 50.05 112.9 49.7 113.9 48.95C115.25 47.95 116.15 46.3 116.6 44L117.15 41.4C118.5 41.05 119.65 40.45 120.6 39.6C121.85 38.45 122.8 36.8 123.45 34.7H122V34.75ZM96.15 29.55C96.45 28.7 96.8 27.9 97.15 27.2C97.55 26.45 98 25.9 98.4 25.45C98.85 25.05 99.2499 24.8 99.6999 24.8C100.05 24.8 100.25 24.95 100.4 25.15C100.55 25.4 100.6 25.75 100.6 26.25C100.6 26.95 100.45 27.7 100.2 28.35C99.8999 29.05 99.55 29.65 99.05 30.2C98.55 30.75 98 31.2 97.4 31.5C96.75 31.85 96.1499 32.05 95.4499 32.1C95.5999 31.35 95.85 30.45 96.15 29.55ZM111.5 44.1C111.3 45.2 110.95 46 110.6 46.5C110.2 47 109.8 47.3 109.45 47.3C109.05 47.3 108.75 47.15 108.55 46.9C108.35 46.7 108.25 46.45 108.25 46.1C108.25 45.45 108.6 44.85 109.3 44.3C109.85 43.9 110.65 43.45 111.7 43.05L111.5 44.1ZM113.4 35.15C113.2 36 112.8 36.7 112.15 37.2C111.6 37.7 111.05 37.9 110.55 37.9C110.3 37.9 110.1 37.9 109.9 37.85C109.7 37.8 109.55 37.7 109.4 37.55C108.95 37.15 108.75 36.35 108.75 35.15C108.75 34.6 108.8 33.95 108.9 33.25C109 32.55 109.15 31.85 109.35 31.1C109.75 30.05 110.75 29.75 110.7 29.8C110.5 29.95 110.55 30.4 110.95 30.3C111.2 30.2 111.3 29.75 111.05 29.45C110.7 29.05 110.1 29.45 109.8 29.7C110.15 28.7 110.6 27.85 111.05 27.15C111.45 26.6 111.85 26.15 112.3 25.85C112.75 25.55 113.2 25.4 113.7 25.4C114.2 25.4 114.6 25.55 114.85 25.9C114.95 26.05 115 26.15 115.05 26.3C115.1 26.45 115.15 26.6 115.15 26.7L113.4 35.15Z" fill="#3F342A"/>
<path d="M96.6 21.15C97.15 21.15 97.7 21 98.15 20.6C98.6 20.2 98.85 19.7 98.85 19.1C98.85 18.8 98.8 18.55 98.7 18.25C98.7 18.2 98.65 18.2 98.65 18.15C97.35 18.05 96.15 17.85 95.05 17.55C94.9 17.7 94.8 17.9 94.7 18.1C94.6 18.35 94.5 18.65 94.5 18.9C94.5 19.5 94.65 20 95.05 20.45C95.5 20.9 96 21.15 96.6 21.15Z" fill="#3F342A"/>
<path d="M101.6 21.05C102.1 21.5 102.65 21.7 103.3 21.65C103.6 21.65 103.9 21.55 104.2 21.45C104.5 21.3 104.75 21.15 104.95 20.9C105.4 20.45 105.6 19.9 105.6 19.2C105.6 18.9 105.5 18.6 105.35 18.3C105.2 18 105.05 17.75 104.8 17.55C103.7 17.85 102.45 18.1 101.1 18.25C101.05 18.35 101 18.4 101 18.5C100.9 18.8 100.85 19.1 100.85 19.4C100.85 20.1 101.1 20.65 101.6 21.05Z" fill="#3F342A"/>
<path d="M123.55 40C122.45 39.1 121.9 37.8 121.9 36.15C121.9 35.4 122 34.75 122.25 34.15C122.45 33.55 122.8 33 123.2 32.55C124.05 31.65 125.15 31.15 126.55 31.15C128 31.15 128.85 31.75 129.1 32.95C128.1 33.05 127.35 33.4 126.75 34C126.15 34.6 125.9 35.35 125.9 36.25C125.9 37.1 126.15 37.75 126.65 38.2C127.15 38.7 127.8 38.9 128.65 38.9C129.35 38.9 129.95 38.75 130.55 38.4C131.15 38.1 131.65 37.6 132.05 37C132.45 36.4 132.8 35.7 133 34.9C133.25 34.1 133.35 33.2 133.35 32.25C133.35 30.6 133 29.3 132.35 28.45C131.65 27.55 130.7 27.1 129.45 27.1C128.8 27.1 128.1 27.25 127.3 27.5C126.55 27.75 125.7 28.15 124.75 28.75L124.25 28.4L127 14.9C129.5 15.2 131.5 15.35 133 15.35C134.05 15.35 135.1 15.25 136.1 15.1C137.1 14.95 138.15 14.7 139.2 14.3C139.25 14.65 139.25 15.05 139.25 15.5C139.25 16.7 138.95 17.7 138.35 18.4C137.65 19.2 136.6 19.6 135.15 19.6C134.35 19.6 133.3 19.45 132 19.2C131.55 19.15 131.05 19.05 130.45 18.9L129.2 18.7L127.75 25.15C129.25 24.4 130.7 24.05 132.2 24.05C133.15 24.05 134 24.2 134.8 24.55C135.6 24.9 136.25 25.35 136.8 26C137.35 26.65 137.8 27.4 138.05 28.35C138.35 29.25 138.5 30.3 138.5 31.4C138.5 32.85 138.25 34.15 137.8 35.35C137.3 36.55 136.65 37.6 135.75 38.45C134.85 39.3 133.8 40 132.55 40.45C131.3 40.9 129.9 41.15 128.4 41.15C126.25 41.35 124.65 40.9 123.55 40Z" fill="#F2AD0D"/>
<path d="M31.9999 41.2C31.8999 40.05 30.8999 39.2 29.7999 39.2H16.2499C16.2499 39.2 15.1499 39.15 15.4999 40.45C15.7499 41.45 17.1499 43 16.9999 43.65C16.8499 44.35 16.7999 46.5 17.7999 47.1C18.5999 47.55 19.2499 47.35 19.8499 46.5C20.1499 45.9 20.1999 45.4 20.1999 45.25C20.1999 45.2 20.1999 45.2 20.1999 45.15C20.1999 45.15 20.1999 45.2 20.1999 45.25V45.3C20.1999 46.85 21.0999 48.25 22.4999 48.8C23.0499 49 23.6499 49.15 24.2999 49.15H31.6499C31.8499 49.15 31.9999 49 32.0499 48.8C32.2499 46.25 32.2499 43.7 31.9999 41.2Z" fill="#F2AD0D"/>
<path d="M34.6999 52.6L34.6499 52.5C33.9999 51.2 33.5499 49.75 33.2999 48.3C33.2999 48.2 33.2499 48.15 33.1499 48.15C33.0499 48.15 32.9999 48.2 32.9999 48.3C32.7999 49.75 32.3499 51.2 31.6499 52.5C31.6499 52.55 31.5999 52.6 31.5999 52.6C31.4499 52.95 31.4499 53.3 31.5499 53.7C31.7499 54.3 32.1999 54.75 32.7999 54.85C32.8999 54.85 32.9999 54.85 33.1499 54.85C33.2499 54.85 33.3499 54.85 33.4999 54.85C34.0999 54.75 34.5999 54.3 34.7499 53.7C34.8999 53.3 34.8499 52.9 34.6999 52.6Z" fill="#F2AD0D"/>
<path d="M48.6499 7.85C49.2999 7.85 49.8499 7.3 49.8499 6.65C49.8499 6 49.2999 5.45 48.6499 5.45C47.7999 5.45 44.9499 5.65 43.7499 8.25C43.4499 8.9 43.0499 9.45 42.6999 9.9C42.2999 9.8 41.8999 9.75 41.4999 9.75H24.0999C23.5999 9.75 23.0999 9.85 22.5999 10C22.0999 9.5 21.5999 8.8 21.1999 8C19.9999 5.4 17.1499 5.2 16.2999 5.2C15.6499 5.2 15.0999 5.75 15.0999 6.4C15.0999 7.05 15.6499 7.6 16.2999 7.6C16.9499 7.6 17.4999 7.1 17.4999 6.45C17.4999 6.4 17.4999 6.35 17.4999 6.3C18.6499 6.6 19.7999 7.2 20.3999 8.4C20.7999 9.2 21.2999 9.85 21.7499 10.4C21.0499 10.8 20.4499 11.4 20.0499 12.1L11.3499 27.05C10.4999 28.5 10.4999 30.25 11.3499 31.7L12.6999 34.05C13.1499 34.8 13.8999 35.25 14.7999 35.25H33.6499C33.8999 35.25 34.1999 35.2 34.4499 35.15C34.6999 35.05 34.9499 34.95 35.1499 34.75C35.3499 34.55 35.5499 34.35 35.6499 34.05C35.7999 33.75 35.8499 33.45 35.8499 33.05C35.8499 32.7 35.7999 32.35 35.6499 32.1C35.4999 31.8 35.3499 31.6 35.1499 31.4C34.9499 31.2 34.6999 31.05 34.4499 31C34.1999 30.9 33.8999 30.85 33.6499 30.85H27.0499C26.3499 30.85 25.7999 30.25 25.8999 29.55L26.7999 20.7C26.8499 20.1 27.3499 19.65 27.9499 19.65H48.4999C49.0999 19.65 49.4999 19 49.1999 18.45L45.4999 12.05C45.0499 11.25 44.3499 10.6 43.4999 10.2C43.8499 9.75 44.1999 9.25 44.4999 8.6C45.0999 7.4 46.2999 6.8 47.3999 6.5C47.3999 6.55 47.3999 6.6 47.3999 6.65C47.4499 7.35 47.9499 7.85 48.6499 7.85Z" fill="#3F342A"/>
<path d="M54.1999 27.2C54.1999 27.15 54.1499 27.15 54.1499 27.1L54.0999 27.05C53.6499 26.25 53.2999 25.7 53.2999 25.7L52.1499 23.75C52.0999 23.65 51.9999 23.6 51.8499 23.6H31.7999C30.8499 23.6 30.0999 24.35 30.0999 25.3C30.0999 26.25 30.8499 27 31.7999 27H33.6499C34.4499 27 35.2499 27.15 35.9999 27.4C36.7499 27.7 37.3999 28.1 37.9499 28.6C38.4999 29.15 38.9499 29.8 39.2999 30.55C39.6499 31.3 39.7999 32.15 39.7999 33.1C39.7999 34.05 39.6499 34.9 39.2999 35.7C38.9499 36.45 38.4999 37.1 37.9499 37.65C37.3999 38.2 36.7499 38.6 35.9999 38.85C35.9499 38.85 35.8999 38.9 35.8999 38.9C35.0999 39.2 34.4999 39.9 34.3999 40.75V40.95C34.0999 43.6 34.0999 46.25 34.3499 48.85C34.3499 49.05 34.5499 49.2 34.7499 49.2H41.4999C43.1499 49.2 44.6999 48.3 45.5499 46.85L53.2999 33.45C53.5999 32.95 53.6499 32.35 53.3999 31.8C53.3499 31.65 53.2999 31.6 53.2999 31.6C53.3499 31.7 53.3499 31.75 53.3999 31.8C53.4999 32.05 53.7499 32.45 54.0999 32.8C54.1499 32.85 54.1499 32.85 54.1999 32.9C54.1999 32.9 54.2499 32.9 54.2499 32.95C54.6999 33.2 55.1999 33.15 55.3999 32.7C55.9999 31.1 55.0499 28.75 54.1999 27.2Z" fill="#F2AD0D"/>
</svg>
