<svg width="394" height="394" viewBox="0 0 394 394" fill="none" xmlns="http://www.w3.org/2000/svg">
<path d="M47.5164 94.7178L36.0116 150.272C41.1336 155.473 46.5708 160.358 55.3176 162.249L97.4756 169.657L107.404 104.331L47.5164 94.7178Z" fill="#FAFAFA"/>
<path d="M45.0736 91.2505L33.5688 146.804L52.8748 158.782L95.0328 166.189L107.483 103.543L45.0736 91.2505Z" fill="#F5F5F5"/>
<path d="M41.4488 143.889L33.5688 146.883C33.5688 146.883 36.4056 151.533 40.5032 154.054C44.6008 156.576 48.6196 158.152 52.8748 158.861C52.8748 158.782 43.734 154.212 41.4488 143.889Z" fill="#E0E0E0"/>
<path d="M38.6908 103.228L67.5316 94.2448L65.6404 88.1772L36.4056 96.6876L38.6908 103.228Z" fill="#EBEBEB"/>
<path d="M112.526 118.515L93.8508 94.7964L88.8076 98.7364L107.247 123.007L112.526 118.515Z" fill="#EBEBEB"/>
<path d="M96.6876 121.982C96.6876 122.061 86.0496 120.091 72.89 117.57C59.8092 114.969 49.1712 112.842 49.1712 112.763C49.1712 112.684 59.8092 114.654 72.9688 117.176C86.0496 119.697 96.6876 121.825 96.6876 121.982Z" fill="#E0E0E0"/>
<path d="M94.7964 130.493C94.7964 130.572 84.1584 128.602 70.9988 126.08C57.918 123.48 47.28 121.352 47.28 121.273C47.28 121.194 57.918 123.164 71.0776 125.686C84.2372 128.208 94.7964 130.335 94.7964 130.493Z" fill="#E0E0E0"/>
<path d="M93.5356 138.136C93.5356 138.215 82.8976 136.245 69.738 133.724C56.6572 131.123 46.0192 128.996 46.0192 128.917C46.0192 128.838 56.6572 130.808 69.8168 133.33C82.9764 135.851 93.6144 137.979 93.5356 138.136Z" fill="#E0E0E0"/>
<path d="M92.1172 145.386C92.1172 145.465 81.4792 143.495 68.3196 140.973C55.2388 138.373 44.6008 136.245 44.6008 136.166C44.6008 136.088 55.2388 138.058 68.3984 140.579C81.4792 143.101 92.1172 145.307 92.1172 145.386Z" fill="#E0E0E0"/>
<path d="M317.249 69.1864L302.356 105.513C297.391 106.538 292.427 107.247 286.674 104.883L259.646 92.8264L279.267 51.5352L317.249 69.1864Z" fill="#FAFAFA"/>
<path d="M320.007 68.0832L305.114 104.41L289.354 103.858L262.325 91.802L279.425 50.9836L320.007 68.0832Z" fill="#F5F5F5"/>
<path d="M301.725 99.6821L305.114 104.41C305.114 104.41 301.725 105.986 298.337 105.829C295.027 105.671 292.112 105.041 289.354 103.859C289.354 103.859 296.446 104.725 301.725 99.6821Z" fill="#E0E0E0"/>
<path d="M319.061 77.4605L305.98 61.1489L309.369 58.3909L322.844 74.6237L319.061 77.4605Z" fill="#EBEBEB"/>
<path d="M270.757 57.6816L290.693 51.2988L292.033 55.4752L272.018 62.252L270.757 57.6816Z" fill="#EBEBEB"/>
<path d="M278.479 65.798C278.558 65.7192 285.492 68.556 294.003 72.102C302.513 75.7268 309.369 78.7212 309.369 78.8C309.29 78.8788 302.356 76.042 293.845 72.496C285.335 68.8712 278.479 65.8768 278.479 65.798Z" fill="#E0E0E0"/>
<path d="M276.273 71.393C276.352 71.3142 283.286 74.151 291.796 77.697C300.307 81.3218 307.162 84.3162 307.162 84.395C307.084 84.4738 300.149 81.637 291.639 78.091C283.128 74.4662 276.273 71.4718 276.273 71.393Z" fill="#E0E0E0"/>
<path d="M274.066 76.1996C274.145 76.1208 281.08 78.9576 289.59 82.5036C298.1 86.1284 304.956 89.1228 304.956 89.2016C304.877 89.2804 297.943 86.4436 289.432 82.8976C280.843 79.3516 273.988 76.3572 274.066 76.1996Z" fill="#E0E0E0"/>
<path d="M272.096 81.0065C272.175 80.9277 279.11 83.7645 287.62 87.3105C296.13 90.9353 302.986 93.9297 302.986 94.0085C302.907 94.0873 295.973 91.2505 287.462 87.7045C278.873 84.0797 272.018 81.0853 272.096 81.0065Z" fill="#E0E0E0"/>
<path d="M301.095 223.95C289.038 214.1 287.384 197.394 288.96 182.58C289.196 180.137 289.117 177.458 290.457 175.409C291.796 173.36 294.633 172.02 296.761 173.281C298.573 174.306 299.204 176.512 300.07 178.324C301.252 180.767 303.144 182.895 305.429 184.313C306.926 185.259 308.896 185.889 310.472 185.18C312.678 184.156 313.151 181.24 313.309 178.797C313.624 174.227 313.939 169.578 314.254 165.007C314.412 162.564 314.57 160.043 315.515 157.758C316.461 155.472 318.273 153.424 320.716 152.951C323.08 152.478 325.917 154.054 326.232 156.497C326.39 157.521 326.074 158.546 326.074 159.57C326.074 160.594 326.468 161.776 327.414 162.092C328.36 162.486 329.384 161.855 330.172 161.146C332.93 158.861 334.9 155.788 336.712 152.714C338.525 149.641 340.337 146.489 342.859 143.968C345.38 141.446 348.69 139.476 352.236 139.555C355.782 139.634 359.407 142.076 360.037 145.622C360.668 149.168 358.382 152.557 355.94 155.157C352.394 159.097 348.217 162.486 343.647 165.244C342.859 165.716 341.913 166.268 341.598 167.135C340.968 168.711 342.386 170.444 343.962 171.154C345.774 171.863 347.744 171.863 349.636 172.257C351.527 172.651 353.576 173.596 354.127 175.488C354.915 178.088 352.63 180.531 350.424 182.107C346.011 185.259 341.046 187.623 335.924 189.12C334.033 189.672 332.142 190.066 330.566 191.248C328.99 192.43 327.966 194.557 328.754 196.37C329.542 198.182 331.748 198.891 333.639 198.655C335.53 198.418 337.343 197.552 339.234 197C342.701 195.976 347.035 196.527 349.005 199.6C350.266 201.649 350.187 204.328 349.32 206.535C348.454 208.741 346.799 210.632 345.144 212.366C339.234 218.355 331.906 222.925 323.868 225.053C315.988 227.18 308.66 227.338 301.095 223.95Z" fill="#F5F5F5"/>
<path d="M300.07 234.903C301.016 229.072 302.828 222.216 305.586 214.888C308.344 207.559 311.969 199.758 316.146 191.799C317.17 189.829 318.194 187.859 319.219 185.889C320.243 183.919 321.268 182.028 322.371 180.216C324.577 176.591 326.941 173.202 329.305 170.129C331.669 167.056 334.033 164.14 336.24 161.461C338.446 158.782 340.574 156.339 342.622 154.212C346.641 149.878 350.345 146.883 352.945 144.834C354.206 143.81 355.309 143.101 355.94 142.549C356.255 142.313 356.57 142.155 356.728 141.998C356.885 141.84 357.043 141.84 357.043 141.84C357.043 141.84 356.964 141.919 356.806 142.076C356.649 142.234 356.334 142.392 356.018 142.707C355.309 143.258 354.285 143.968 353.024 144.992C350.502 147.041 346.878 150.114 342.859 154.448C340.889 156.576 338.761 159.018 336.555 161.698C334.348 164.377 332.063 167.214 329.699 170.366C327.335 173.439 324.971 176.827 322.844 180.452C321.74 182.264 320.795 184.156 319.77 186.126C318.746 188.096 317.722 190.066 316.697 192.036C312.6 200.073 308.896 207.796 306.138 215.124C303.38 222.374 301.568 229.229 300.543 235.06" fill="#E0E0E0"/>
<path d="M322.45 180.216C322.45 180.216 322.371 179.822 322.292 179.112C322.213 178.403 322.134 177.458 322.056 176.197C321.898 173.754 321.74 170.287 321.662 166.504C321.583 162.722 321.425 159.334 321.189 156.812C321.11 155.551 321.031 154.606 320.952 153.896C320.874 153.187 320.874 152.793 320.874 152.793C320.874 152.793 320.952 153.187 321.11 153.818C321.268 154.527 321.346 155.472 321.504 156.733C321.819 159.176 321.977 162.643 322.134 166.426C322.213 170.129 322.292 173.518 322.371 176.118C322.371 177.3 322.45 178.246 322.45 179.034C322.45 179.822 322.45 180.216 322.45 180.216Z" fill="#E0E0E0"/>
<path d="M354.521 176.67C354.521 176.67 354.048 176.748 353.26 176.748C352.472 176.748 351.29 176.748 349.793 176.827C346.878 176.906 342.859 177.221 338.367 177.694C333.954 178.167 329.936 178.797 327.02 179.349C325.602 179.585 324.42 179.822 323.632 179.979C322.844 180.137 322.371 180.216 322.371 180.216C322.371 180.216 322.765 180.058 323.553 179.822C324.341 179.585 325.523 179.349 326.941 179.034C329.778 178.403 333.797 177.694 338.288 177.221C342.701 176.748 346.799 176.512 349.714 176.512C351.212 176.512 352.394 176.512 353.182 176.591C354.048 176.591 354.521 176.591 354.521 176.67Z" fill="#E0E0E0"/>
<path d="M306.059 214.336C306.059 214.336 305.98 214.178 305.902 213.942C305.744 213.627 305.665 213.233 305.429 212.76C305.035 211.736 304.483 210.238 303.853 208.347C302.592 204.643 301.016 199.364 299.361 193.611C297.706 187.859 296.209 182.579 295.027 178.797C294.476 176.985 294.003 175.487 293.609 174.384C293.451 173.911 293.372 173.517 293.215 173.202C293.136 172.887 293.136 172.808 293.136 172.729C293.136 172.729 293.215 172.887 293.294 173.123C293.451 173.439 293.53 173.833 293.766 174.305C294.16 175.33 294.712 176.827 295.342 178.718C296.603 182.422 298.179 187.701 299.834 193.454C301.489 199.206 302.986 204.486 304.168 208.268C304.72 210.081 305.192 211.578 305.586 212.681C305.744 213.154 305.823 213.548 305.98 213.863C305.98 214.257 306.059 214.336 306.059 214.336Z" fill="#E0E0E0"/>
<path d="M349.084 203.934C349.084 203.934 348.926 204.013 348.69 204.092C348.375 204.171 347.902 204.25 347.429 204.407C346.247 204.722 344.75 205.038 342.78 205.51C338.919 206.456 333.482 207.874 327.572 209.372C321.662 210.869 316.224 212.208 312.363 213.075C310.393 213.548 308.817 213.863 307.714 214.021C307.241 214.1 306.768 214.178 306.453 214.257C306.138 214.336 305.98 214.336 305.98 214.336C305.98 214.336 306.138 214.257 306.374 214.178C306.69 214.1 307.162 214.021 307.635 213.863C308.817 213.548 310.314 213.233 312.284 212.76C316.146 211.814 321.583 210.396 327.493 208.899C333.403 207.402 338.84 206.062 342.701 205.195C344.671 204.722 346.247 204.407 347.35 204.25C347.823 204.171 348.296 204.092 348.611 204.013C348.926 203.934 349.084 203.934 349.084 203.934Z" fill="#E0E0E0"/>
<path d="M366.972 361.613C366.972 361.692 292.427 361.85 200.467 361.85C108.508 361.85 33.9628 361.771 33.9628 361.613C33.9628 361.534 108.508 361.377 200.467 361.377C292.427 361.377 366.972 361.456 366.972 361.613Z" fill="#263238"/>
<path d="M134.59 61.3067L153.581 119.303C161.146 121.431 168.79 123.086 178.009 120.091L221.27 104.41L195.582 38.2183L134.59 61.3067Z" fill="#E0E0E0"/>
<path d="M130.493 59.4154L149.484 117.333L173.912 118.2L217.173 102.519L195.266 37.4302L130.493 59.4154Z" fill="#E8505B"/>
<path d="M155.236 110.399L149.484 117.333C149.484 117.333 154.606 120.091 159.806 120.249C165.007 120.407 169.578 119.697 173.912 118.121C173.912 118.2 162.88 118.831 155.236 110.399Z" fill="#E8505B"/>
<path opacity="0.3" d="M155.236 110.399C153.502 113.945 151.769 118.043 149.484 117.333C149.484 117.333 154.606 120.091 159.806 120.249C165.007 120.407 169.578 119.697 173.912 118.121C173.912 118.2 162.88 118.831 155.236 110.399Z" fill="black"/>
<path d="M130.887 73.9144L152.951 50.1956L147.986 45.5464L125.292 69.1076L130.887 73.9144Z" fill="#E0E0E0"/>
<path d="M207.874 48.6985L177.773 36.6421L175.251 42.9461L205.432 55.7117L207.874 48.6985Z" fill="#E0E0E0"/>
<path d="M195.03 60.4397C195.03 60.5185 184.077 64.3797 170.523 69.0289C156.891 73.5993 145.859 77.2241 145.78 77.1453C145.78 77.0665 156.733 73.2053 170.287 68.5561C183.919 63.9857 194.951 60.2821 195.03 60.4397Z" fill="#263238"/>
<path d="M197.788 69.344C197.788 69.4228 186.835 73.284 173.281 77.9332C159.728 82.5824 148.617 86.2072 148.617 86.1284C148.617 86.0496 159.57 82.1884 173.124 77.5392C186.756 72.89 197.788 69.2652 197.788 69.344Z" fill="#263238"/>
<path d="M200.782 77.1452C200.782 77.224 189.829 81.0852 176.276 85.7344C162.722 90.3836 151.611 94.0084 151.611 93.9296C151.611 93.8508 162.564 89.9896 176.118 85.3404C189.672 80.6912 200.704 76.9876 200.782 77.1452Z" fill="#263238"/>
<path d="M203.304 84.71C203.304 84.7888 192.351 88.65 178.797 93.2992C165.244 97.9484 154.133 101.573 154.133 101.494C154.133 101.416 165.086 97.5544 178.64 92.9052C192.193 88.256 203.225 84.6312 203.304 84.71Z" fill="#263238"/>
<path d="M232.46 250.742L228.678 286.202C228.678 286.202 221.27 274.933 216.227 279.976C211.42 284.783 202.989 319.534 202.989 319.534C202.989 319.534 202.91 330.881 208.899 333.876C228.205 343.568 249.796 325.444 249.796 325.444L246.723 223.95C238.685 230.727 233.563 240.34 232.46 250.742Z" fill="#E8505B"/>
<path d="M297.785 226.077L264.295 223.398C264.059 219.458 264.374 204.328 264.374 204.328C264.374 204.328 250.426 202.122 250.269 188.253C250.111 174.384 252.475 142.313 252.475 142.313C268.629 135.378 287.226 137.742 301.174 148.459L303.222 150.035L297.785 226.077Z" fill="#B78876"/>
<path d="M264.295 204.171C264.295 204.171 273.121 204.88 282.498 198.97C282.498 198.97 278.243 208.978 264.295 207.717V204.171Z" fill="#AA6550"/>
<path d="M301.489 164.456C301.725 164.377 311.102 161.619 310.787 171.154C310.472 180.688 301.016 178.403 300.937 178.167C300.937 177.852 301.489 164.456 301.489 164.456Z" fill="#B78876"/>
<path d="M304.01 174.621C304.089 174.621 304.168 174.778 304.483 174.857C304.72 175.015 305.192 175.094 305.744 174.936C306.768 174.621 307.635 173.045 307.793 171.311C307.872 170.444 307.714 169.578 307.399 168.947C307.162 168.238 306.69 167.765 306.217 167.608C305.744 167.45 305.35 167.765 305.192 168.002C305.035 168.238 305.114 168.474 305.035 168.474C305.035 168.474 304.798 168.317 304.956 167.923C305.035 167.765 305.114 167.529 305.35 167.371C305.586 167.214 305.902 167.135 306.296 167.135C307.005 167.214 307.635 167.923 307.95 168.632C308.266 169.42 308.502 170.366 308.423 171.311C308.266 173.202 307.241 175.015 305.902 175.33C305.192 175.488 304.641 175.251 304.404 175.015C304.01 174.857 303.932 174.621 304.01 174.621Z" fill="#AA6550"/>
<path d="M255.548 163.904C255.548 164.928 256.336 165.874 257.44 165.874C258.543 165.953 259.488 165.165 259.488 164.062C259.488 163.037 258.7 162.092 257.597 162.092C256.494 162.092 255.627 162.88 255.548 163.904Z" fill="#263238"/>
<path d="M255.154 161.934C255.391 162.17 256.888 161.067 259.016 161.067C261.143 161.067 262.719 162.17 262.956 161.855C263.034 161.776 262.798 161.304 262.168 160.752C261.458 160.279 260.355 159.806 259.016 159.806C257.676 159.806 256.573 160.279 255.942 160.831C255.233 161.382 254.997 161.855 255.154 161.934Z" fill="#263238"/>
<path d="M276.509 164.692C276.509 165.717 277.297 166.662 278.4 166.662C279.504 166.741 280.449 165.953 280.449 164.85C280.449 163.825 279.661 162.88 278.558 162.88C277.455 162.801 276.588 163.589 276.509 164.692Z" fill="#263238"/>
<path d="M276.194 162.328C276.43 162.564 277.928 161.461 280.055 161.461C282.183 161.461 283.759 162.564 283.995 162.249C284.074 162.17 283.838 161.698 283.207 161.146C282.498 160.673 281.395 160.2 280.055 160.2C278.716 160.2 277.612 160.673 276.982 161.225C276.273 161.776 276.036 162.249 276.194 162.328Z" fill="#263238"/>
<path d="M268.393 178.245C268.393 178.088 267.053 177.93 264.926 177.615C264.374 177.536 263.822 177.457 263.744 177.063C263.586 176.669 263.822 176.118 264.138 175.409C264.689 174.069 265.162 172.73 265.792 171.232C268.078 165.322 269.654 160.437 269.417 160.358C269.181 160.279 267.132 165.007 264.926 170.917C264.374 172.414 263.901 173.754 263.35 175.093C263.113 175.724 262.798 176.433 263.034 177.221C263.192 177.615 263.586 177.93 263.901 178.009C264.216 178.088 264.532 178.088 264.847 178.167C267.053 178.324 268.393 178.324 268.393 178.245Z" fill="#263238"/>
<path d="M275.642 153.975C275.879 154.527 278.006 154.29 280.528 154.606C283.05 154.842 285.098 155.63 285.414 155.078C285.571 154.842 285.177 154.29 284.389 153.739C283.601 153.187 282.262 152.636 280.764 152.478C279.267 152.32 277.849 152.557 276.982 152.951C275.958 153.187 275.564 153.66 275.642 153.975Z" fill="#263238"/>
<path d="M255.942 155.709C256.336 156.182 257.834 155.709 259.567 155.63C261.38 155.551 262.877 155.945 263.192 155.473C263.35 155.236 263.113 154.763 262.483 154.291C261.852 153.818 260.749 153.424 259.567 153.503C258.385 153.503 257.282 153.975 256.652 154.448C255.942 155 255.706 155.473 255.942 155.709Z" fill="#263238"/>
<path d="M245.698 133.566C245.541 131.832 246.171 130.02 247.59 128.996C249.008 127.971 251.214 128.05 252.318 129.311C251.687 126.947 253.578 124.268 255.942 124.11C258.228 123.952 260.119 125.686 262.325 126.316C264.453 126.868 266.738 126.395 268.866 125.528C270.914 124.662 272.884 123.558 274.933 122.77C279.267 121.194 284.232 121.352 288.487 123.322C292.663 125.292 296.13 128.917 297.706 133.251C300.78 132.305 304.247 133.881 306.059 136.403C307.95 139.003 308.423 142.392 308.029 145.544C307.793 147.671 307.162 149.72 306.453 151.769C306.453 151.926 306.453 152.163 306.453 152.32C306.296 159.964 305.429 168.947 302.198 169.026C296.524 169.105 297.864 158.388 297.864 158.388C290.851 155.709 293.451 145.228 291.718 143.652C289.984 142.076 286.28 138.373 271.702 145.859C266.029 148.774 258.464 148.696 254.366 147.75C254.209 147.75 254.13 147.671 253.972 147.671H253.894C253.815 147.671 253.815 147.671 253.736 147.592C252.396 147.277 251.136 146.726 249.954 146.016C248.614 145.15 247.432 144.046 246.88 142.549C246.329 141.052 246.565 139.24 247.668 138.215C246.723 136.876 245.856 135.3 245.698 133.566Z" fill="#263238"/>
<path d="M325.208 313.545L326.232 333.324L328.596 361.692H239.079L242.94 319.692L235.297 253.421C235.927 230.017 244.989 220.246 263.35 218.04C263.507 218.04 261.774 218.276 261.931 218.197C264.453 217.882 261.931 218.197 263.35 218.04C275.248 221.743 287.147 221.664 299.046 218.04C304.562 218.276 309.132 220.01 313.86 220.876C328.675 223.713 340.81 235.139 343.804 245.068C346.247 253.263 363.82 324.262 363.82 324.262H328.754L325.208 313.545Z" fill="#E8505B"/>
<path d="M266.58 184.786C266.896 185.653 267.29 186.52 267.841 187.229C268.393 187.938 269.26 188.49 270.126 188.568C271.072 188.647 272.018 188.017 272.569 187.229C273.121 186.441 273.278 185.416 273.278 184.471C273.2 183.604 272.806 182.58 271.939 182.422C271.545 182.343 271.23 182.501 270.914 182.658C269.417 183.289 267.841 183.919 266.344 184.55" fill="#AA6550"/>
<path d="M268.393 188.568C268.393 188.411 269.417 188.805 270.836 188.253C271.545 187.938 272.254 187.465 272.727 186.598C273.121 185.732 273.2 184.628 272.806 183.604C272.727 183.368 272.569 183.131 272.412 182.895C272.254 182.737 272.254 182.737 272.096 182.737C271.939 182.816 271.624 182.895 271.387 183.052C271.151 183.131 270.914 183.289 270.599 183.368C269.654 183.762 268.708 184.077 267.999 184.392C266.502 184.944 265.556 185.259 265.477 185.18C265.398 185.101 266.344 184.628 267.762 183.919C268.472 183.604 269.338 183.131 270.284 182.737C270.52 182.658 270.757 182.501 270.993 182.422C271.23 182.343 271.466 182.186 271.86 182.107C272.018 182.028 272.333 182.028 272.569 182.107C272.806 182.186 272.963 182.343 273.042 182.501C273.278 182.737 273.436 183.052 273.594 183.368C274.145 184.628 273.988 186.047 273.436 187.071C272.884 188.095 271.939 188.726 271.072 188.962C270.284 189.199 269.496 189.12 269.102 189.041C268.629 188.805 268.393 188.647 268.393 188.568Z" fill="#263238"/>
<path d="M235.139 309.605L214.021 244.832L212.13 233.957C212.13 233.957 206.377 209.687 206.141 207.323C205.826 204.565 204.407 204.013 203.462 204.171C201.886 204.486 200.94 206.535 201.176 208.899C201.255 209.687 202.752 222.689 202.752 222.689C202.752 222.689 202.043 221.664 199.837 219.458C197.63 217.252 192.981 216.306 188.411 217.015C183.762 217.646 182.58 218.276 182.737 220.088C182.816 220.798 183.289 221.349 183.84 221.743C184.786 222.374 185.889 222.61 186.992 222.452C194.4 221.507 196.842 225.289 196.842 225.289L197.079 226.708C197.079 226.708 192.193 223.95 188.805 225.683C188.253 225.998 187.78 226.314 187.465 226.708C185.495 226.944 183.683 228.205 182.816 230.017C181.949 231.908 182.186 234.194 183.368 235.927C183.919 236.715 184.944 237.424 185.889 237.109C186.362 236.952 186.756 236.558 187.15 236.164C187.308 235.927 187.544 235.77 187.78 235.612L189.041 239.473C189.041 239.473 192.351 248.062 193.375 251.924L203.619 317.091C205.038 326.153 213.627 332.221 222.61 330.645C232.224 329.069 238.291 319.061 235.139 309.605Z" fill="#B78876"/>
<path d="M211.893 244.201C210.554 244.753 209.056 243.886 208.19 242.783C207.323 241.68 206.85 240.261 206.062 239.079C203.698 235.533 198.891 234.273 196.685 230.569C196.37 230.096 196.133 229.308 196.606 228.914C197 228.52 197.63 228.757 198.182 228.914C202.516 230.727 206.85 232.539 211.105 234.351" fill="#B78876"/>
<path d="M211.105 234.43C211.105 234.351 210.632 234.115 209.766 233.721C208.899 233.327 207.559 232.696 205.983 231.987C204.328 231.278 202.437 230.411 200.388 229.544C199.837 229.308 199.285 229.072 198.734 228.835C198.182 228.678 197.552 228.205 196.685 228.441C196.212 228.599 195.976 229.15 195.976 229.544C195.976 229.938 196.133 230.332 196.291 230.648C196.685 231.278 197.079 231.83 197.552 232.302C199.443 234.351 201.807 235.454 203.54 236.873C204.407 237.582 205.195 238.37 205.747 239.158C206.298 239.946 206.692 240.813 207.165 241.601C207.953 243.177 209.293 244.201 210.317 244.359C211.342 244.516 211.893 244.122 211.814 244.122C211.814 244.044 211.263 244.28 210.396 244.044C209.45 243.807 208.347 242.862 207.638 241.364C207.244 240.576 206.85 239.71 206.298 238.764C205.747 237.897 204.88 237.03 204.013 236.321C202.201 234.824 199.916 233.642 198.103 231.751C197.63 231.278 197.315 230.805 197 230.254C196.685 229.781 196.685 229.229 197 229.15C197.315 228.993 197.946 229.229 198.497 229.466C199.049 229.702 199.6 229.938 200.152 230.175C202.28 231.042 204.171 231.83 205.826 232.46C207.48 233.09 208.741 233.642 209.687 233.957C210.554 234.272 211.105 234.43 211.105 234.43Z" fill="#AA6550"/>
<path d="M197.236 226.708C197.158 226.708 197.158 225.604 196.133 224.265C195.582 223.634 194.794 223.083 193.69 222.846C192.666 222.61 191.405 222.61 190.144 222.689C188.884 222.768 187.623 222.925 186.441 222.768C185.259 222.61 184.313 222.295 183.604 221.664C182.895 221.113 182.658 220.325 182.658 219.852C182.658 219.379 182.816 219.143 182.816 219.143C182.895 219.143 182.816 219.379 182.816 219.852C182.895 220.325 183.131 220.955 183.762 221.428C184.392 221.901 185.416 222.216 186.441 222.295C187.544 222.374 188.726 222.295 190.066 222.216C191.326 222.137 192.666 222.137 193.769 222.374C194.872 222.689 195.818 223.319 196.37 224.028C196.921 224.738 197.158 225.447 197.236 225.92C197.315 226.471 197.236 226.708 197.236 226.708Z" fill="#AA6550"/>
<path d="M201.098 208.032C201.176 208.032 201.255 208.978 201.413 210.632C201.57 212.366 201.807 214.494 202.043 216.858C202.28 219.222 202.516 221.27 202.752 223.083C202.91 224.659 203.068 225.683 202.989 225.683C202.91 225.683 202.674 224.738 202.437 223.162C202.122 221.586 201.807 219.379 201.57 216.936C201.334 214.494 201.176 212.287 201.098 210.711C201.019 209.056 201.019 208.032 201.098 208.032Z" fill="#AA6550"/>
<path d="M194.557 230.017C194.557 230.017 194.242 229.938 193.769 229.781C193.296 229.623 192.508 229.466 191.799 229.938C191.405 230.175 191.248 230.569 191.248 231.12C191.248 231.593 191.405 232.145 191.563 232.775C191.72 233.406 191.799 234.115 191.484 234.824C191.09 235.533 190.381 235.927 189.593 236.085C188.805 236.164 188.017 235.848 187.465 235.454C186.914 234.982 186.52 234.43 186.283 233.721C185.968 232.46 185.968 231.357 185.968 230.411C186.047 229.466 186.204 228.678 186.362 228.205C186.598 227.732 186.835 227.496 186.835 227.496C186.835 227.496 186.677 227.732 186.598 228.284C186.441 228.756 186.362 229.544 186.362 230.411C186.362 231.357 186.441 232.46 186.756 233.563C187.071 234.588 188.253 235.691 189.514 235.533C190.144 235.454 190.696 235.06 191.011 234.588C191.248 234.036 191.248 233.484 191.09 232.854C190.932 232.302 190.775 231.672 190.854 231.042C190.854 230.49 191.169 229.86 191.642 229.623C192.587 229.072 193.454 229.466 193.927 229.623C194.4 229.781 194.636 229.938 194.557 230.017Z" fill="#AA6550"/>
<path d="M187.623 234.903C187.623 234.903 187.78 235.139 187.623 235.612C187.544 236.085 187.15 236.794 186.283 237.109C185.416 237.424 184.234 237.267 183.368 236.558C182.422 235.848 181.87 234.588 181.713 233.248C181.555 231.908 181.87 230.648 182.422 229.702C182.974 228.678 183.84 228.047 184.55 227.574C185.259 227.18 185.968 226.944 186.441 226.944C186.914 226.865 187.15 226.944 187.15 226.944C187.15 227.023 186.126 227.023 184.707 227.968C184.077 228.441 183.289 229.072 182.816 230.017C182.343 230.963 182.028 232.145 182.186 233.327C182.343 234.509 182.816 235.612 183.604 236.321C184.392 237.03 185.416 237.188 186.126 236.952C186.835 236.715 187.229 236.164 187.386 235.77C187.623 235.218 187.623 234.903 187.623 234.903Z" fill="#AA6550"/>
<path d="M197.473 242.625C197.473 242.546 197.946 242.468 198.734 242.546C199.522 242.625 200.625 242.94 201.649 243.886L201.255 244.044C201.255 243.492 201.255 242.862 201.334 242.31C201.728 238.922 203.304 236.479 203.462 236.636C203.619 236.715 202.28 239.079 201.886 242.389C201.807 243.019 201.807 243.571 201.728 244.122V244.674L201.334 244.28C200.467 243.413 199.443 243.019 198.734 242.862C197.946 242.704 197.552 242.704 197.473 242.625Z" fill="#AA6550"/>
<path d="M194.872 220.561C195.03 220.64 194.636 221.586 193.533 222.216C192.43 222.846 191.405 222.689 191.405 222.531C191.405 222.374 192.351 222.295 193.296 221.743C194.242 221.27 194.794 220.482 194.872 220.561Z" fill="#AA6550"/>
<path d="M251.845 220.561C251.845 220.561 251.53 220.876 251.057 221.507C250.584 222.137 249.717 223.004 249.244 224.422C249.087 224.738 249.087 225.132 249.008 225.526C249.008 225.92 249.087 226.314 249.323 226.708C249.717 227.496 250.584 228.047 251.608 228.362C253.578 229.072 256.1 229.308 258.779 229.387C260.119 229.387 261.616 229.466 263.113 229.544C263.901 229.623 264.61 229.702 265.398 229.781C266.186 229.86 266.974 230.096 267.762 230.254C270.914 230.963 274.303 232.224 277.218 234.43C278.716 235.533 280.055 236.952 281.158 238.528C281.395 238.922 281.71 239.394 281.868 239.788C282.104 240.261 282.262 240.734 282.419 241.128C282.734 242.074 283.05 243.019 283.207 244.044C283.995 247.984 283.365 252.396 281.316 256.179C279.267 259.961 275.8 262.719 272.018 264.138C270.126 264.847 268.156 265.241 266.186 265.32C264.216 265.399 262.325 265.004 260.592 264.61C258.779 264.216 257.124 263.823 255.47 263.665C253.815 263.586 252.16 263.823 250.82 264.453C249.402 265.162 248.299 266.187 247.353 267.29C246.408 268.393 245.541 269.575 244.674 270.678C243.019 272.885 241.286 274.776 239.316 275.8C238.291 276.273 237.267 276.588 236.321 276.588C235.376 276.588 234.509 276.431 233.8 276.115C233.09 275.8 232.46 275.406 232.066 275.012C231.593 274.618 231.357 274.145 231.199 273.751C230.884 272.963 230.884 272.569 230.884 272.569C230.963 272.569 230.963 272.963 231.278 273.672C231.436 273.988 231.751 274.461 232.145 274.776C232.618 275.17 233.169 275.485 233.878 275.8C235.297 276.352 237.267 276.431 239.079 275.406C240.97 274.382 242.625 272.491 244.201 270.284C244.989 269.181 245.856 267.999 246.802 266.817C247.826 265.714 249.008 264.532 250.505 263.822C252.002 263.034 253.815 262.798 255.548 262.877C257.282 262.956 259.094 263.429 260.828 263.744C262.562 264.138 264.374 264.453 266.265 264.374C268.078 264.295 269.969 263.901 271.781 263.271C275.406 261.931 278.716 259.252 280.686 255.706C282.656 252.081 283.207 247.905 282.498 244.122C282.34 243.177 282.025 242.231 281.71 241.364C281.552 240.892 281.395 240.498 281.158 240.104C280.922 239.71 280.686 239.316 280.449 238.922C279.425 237.424 278.164 236.085 276.746 234.982C273.909 232.775 270.678 231.593 267.605 230.805C266.817 230.648 266.029 230.411 265.32 230.332C264.532 230.254 263.822 230.175 263.034 230.017C261.537 229.938 260.119 229.86 258.779 229.781C256.021 229.702 253.5 229.466 251.451 228.599C250.426 228.205 249.481 227.574 249.008 226.708C248.772 226.235 248.693 225.762 248.693 225.289C248.693 224.816 248.85 224.422 248.929 224.028C249.481 222.531 250.426 221.664 250.899 221.113C251.53 220.798 251.845 220.561 251.845 220.561Z" fill="#FAFAFA"/>
<path d="M311.812 273.121C311.812 273.121 311.575 272.49 311.418 271.387C311.26 270.205 311.26 268.472 311.733 266.423C312.206 264.374 313.23 262.01 314.806 259.725C316.382 257.44 318.667 255.312 321.425 253.657C324.183 252.002 327.099 251.057 329.857 250.505C332.536 249.954 335.058 249.796 337.106 249.717C339.155 249.717 340.889 249.796 341.992 249.954C343.174 250.111 343.804 250.19 343.804 250.269C343.804 250.426 341.204 250.111 337.106 250.269C335.058 250.348 332.615 250.584 329.936 251.214C327.335 251.766 324.498 252.79 321.74 254.366C319.061 255.942 316.934 258.07 315.358 260.198C313.782 262.404 312.757 264.61 312.284 266.58C311.733 268.55 311.654 270.205 311.733 271.387C311.812 272.49 311.89 273.121 311.812 273.121Z" fill="#FAFAFA"/>
<path d="M354.836 286.832C354.836 286.832 354.6 287.384 353.891 288.25C353.26 289.117 352.157 290.22 350.739 291.481C349.242 292.742 347.35 294.082 345.065 295.106C342.78 296.209 340.022 297.076 337.106 297.391C334.191 297.706 331.354 297.549 328.832 296.997C326.311 296.446 324.183 295.658 322.45 294.791C320.716 293.924 319.455 293.057 318.588 292.348C317.722 291.718 317.328 291.245 317.328 291.245C317.406 291.087 319.219 292.663 322.686 294.239C326.074 295.815 331.275 297.234 337.028 296.524C342.701 295.815 347.508 293.215 350.424 290.93C353.339 288.645 354.758 286.674 354.836 286.832Z" fill="#FAFAFA"/>
<path d="M315.279 284.31C315.279 284.31 315.042 284.389 314.57 284.626C314.097 284.783 313.466 285.177 312.757 285.808C312.048 286.438 311.418 287.462 310.945 288.723C310.472 289.984 309.999 291.481 309.684 293.136C309.29 294.791 309.054 296.682 308.423 298.652C308.108 299.598 307.635 300.622 307.084 301.568C306.453 302.513 305.665 303.38 304.798 304.168C302.986 305.665 300.701 306.768 298.258 307.478C295.815 308.187 293.294 308.581 290.693 309.132C285.571 310.078 280.843 311.969 277.218 314.727C275.406 316.067 273.909 317.643 272.727 319.219C271.545 320.874 270.757 322.528 270.126 324.183C269.023 327.414 269.023 330.251 269.26 332.142C269.575 334.033 269.969 335.058 269.89 335.058C269.89 335.058 269.732 334.821 269.575 334.348C269.496 334.112 269.338 333.797 269.26 333.482C269.102 333.088 269.023 332.694 268.944 332.221C268.55 330.33 268.472 327.414 269.575 324.026C270.126 322.371 270.993 320.558 272.096 318.904C273.278 317.249 274.854 315.594 276.667 314.176C280.37 311.339 285.177 309.29 290.457 308.344C293.057 307.872 295.579 307.478 297.943 306.768C300.307 306.059 302.513 305.114 304.168 303.695C305.035 302.986 305.744 302.198 306.374 301.331C306.926 300.464 307.399 299.519 307.714 298.573C308.344 296.682 308.66 294.791 309.054 293.136C309.448 291.402 309.92 289.905 310.472 288.644C311.024 287.384 311.733 286.359 312.521 285.65C313.23 285.02 314.018 284.626 314.491 284.547C315.042 284.31 315.279 284.31 315.279 284.31Z" fill="#FAFAFA"/>
<path d="M294.16 281.001C294.16 281.001 294.476 281.552 294.554 282.577C294.633 283.68 294.397 285.335 293.294 286.911C292.742 287.699 291.954 288.487 290.93 289.038C290.457 289.354 289.826 289.511 289.196 289.669C288.566 289.748 287.935 289.826 287.305 289.748C285.965 289.59 284.626 289.117 283.522 288.25C282.419 287.384 281.474 286.123 281.08 284.626C280.843 283.68 280.843 282.656 281.08 281.71C281.316 280.764 281.789 279.898 282.34 279.267C282.892 278.558 283.444 277.928 284.074 277.376C284.389 277.061 284.704 276.824 285.098 276.588C285.492 276.352 285.886 276.194 286.359 276.194L286.438 276.903C286.28 276.903 286.202 276.982 286.044 276.982L285.886 276.273C287.462 275.8 289.038 276.036 290.22 276.509C291.481 276.982 292.348 277.691 292.978 278.4C293.609 279.11 293.924 279.74 294.082 280.213C294.16 280.764 294.239 281.001 294.16 281.001C294.082 281.08 293.845 279.976 292.584 278.716C291.954 278.085 291.087 277.455 289.905 277.061C288.802 276.667 287.384 276.509 285.965 276.982L285.808 276.273C285.965 276.273 286.044 276.194 286.202 276.194L286.28 276.903C285.729 276.982 285.098 277.455 284.547 277.928C283.995 278.479 283.444 279.031 282.971 279.74C282.498 280.449 282.025 281.08 281.868 281.946C281.71 282.734 281.71 283.601 281.946 284.468C282.262 285.808 283.05 286.911 284.074 287.699C285.098 288.487 286.28 288.96 287.462 289.117C288.014 289.196 288.644 289.196 289.196 289.117C289.748 289.038 290.299 288.881 290.693 288.566C291.639 288.093 292.348 287.384 292.9 286.674C294.003 285.177 294.318 283.68 294.318 282.656C294.318 281.631 294.082 281.001 294.16 281.001Z" fill="#FAFAFA"/>
<path d="M243.334 255.233C243.334 255.233 243.334 255.312 243.334 255.47C243.334 255.627 243.334 255.864 243.334 256.1C243.334 256.652 243.256 257.44 243.256 258.464C243.098 260.513 243.019 263.507 242.862 267.211C242.546 274.618 242.231 284.783 241.995 296.052C241.758 307.32 241.601 317.564 241.522 324.892C241.443 328.596 241.443 331.512 241.364 333.639C241.364 334.664 241.364 335.452 241.286 336.003C241.286 336.24 241.286 336.476 241.286 336.634C241.286 336.791 241.286 336.87 241.286 336.87C241.286 336.87 241.286 336.791 241.286 336.634C241.286 336.476 241.286 336.24 241.286 336.003C241.286 335.452 241.286 334.664 241.286 333.639C241.286 331.512 241.286 328.596 241.286 324.892C241.286 317.485 241.443 307.32 241.68 296.052C241.916 284.783 242.231 274.539 242.625 267.211C242.862 263.507 243.019 260.513 243.177 258.464C243.256 257.44 243.334 256.652 243.334 256.1C243.334 255.864 243.413 255.627 243.413 255.47C243.334 255.312 243.334 255.233 243.334 255.233Z" fill="#263238"/>
<g opacity="0.2">
<path opacity="0.2" d="M228.284 328.517C232.696 330.645 238.449 326.547 240.655 322.292C240.655 322.292 241.837 312.757 241.68 307.872C241.364 298.888 242.074 289.905 241.758 280.922C241.049 286.28 238.843 291.402 235.297 295.579C234.351 296.682 233.248 297.864 232.854 299.282C232.224 301.883 234.194 306.532 235.454 308.896C239.394 316.067 230.805 328.596 228.52 328.36" fill="black"/>
</g>
<g opacity="0.2">
<path opacity="0.2" d="M310.551 269.732C311.969 287.699 313.466 305.665 314.885 323.632C315.042 325.365 315.2 327.099 315.83 328.596C316.461 330.172 317.8 331.59 319.455 331.906C321.977 332.457 324.498 330.251 325.208 327.729C325.917 325.208 325.365 322.528 324.735 320.007C323.632 315.673 322.45 311.418 321.268 307.162C317.722 294.791 314.254 282.34 310.708 269.969" fill="black"/>
</g>
<path d="M261.143 361.771C261.064 361.692 261.852 360.904 262.325 358.934C262.798 356.964 262.483 353.97 260.986 350.739C260.276 349.084 259.173 347.429 258.149 345.538C257.124 343.647 256.021 341.598 255.47 339.155C254.918 336.712 255.233 334.033 256.021 331.512C256.809 328.99 257.912 326.468 258.858 323.947C260.828 318.825 260.749 313.388 259.252 308.896C258.543 306.611 257.518 304.641 256.258 302.907C254.997 301.173 253.657 299.755 252.239 298.652C249.481 296.367 246.723 295.185 244.832 294.554C242.94 293.924 241.837 293.766 241.837 293.688C241.837 293.688 242.152 293.687 242.625 293.766C243.177 293.845 243.965 294.003 244.91 294.318C246.88 294.869 249.717 296.051 252.554 298.337C253.972 299.519 255.47 300.937 256.73 302.671C257.991 304.404 259.094 306.532 259.882 308.817C260.67 311.102 261.064 313.703 261.064 316.382C261.064 319.061 260.513 321.819 259.567 324.42C258.622 327.02 257.44 329.542 256.73 331.984C255.942 334.427 255.706 336.949 256.179 339.234C256.652 341.519 257.676 343.568 258.7 345.459C259.725 347.35 260.749 349.005 261.458 350.739C262.956 354.127 263.113 357.279 262.562 359.249C262.325 360.274 261.852 360.983 261.616 361.377C261.38 361.534 261.222 361.771 261.143 361.771Z" fill="#FAFAFA"/>
<path d="M335.136 232.145C335.136 232.145 334.979 232.775 334.348 233.721C333.718 234.666 332.615 235.927 330.96 237.03C329.226 238.134 326.941 239 324.262 239.237C321.583 239.473 318.588 239.079 315.673 238.134C312.757 237.188 310.078 235.77 308.187 233.8C307.241 232.854 306.532 231.751 305.98 230.648C305.508 229.544 305.192 228.441 305.114 227.417C304.956 225.368 305.429 223.713 305.98 222.689C306.138 222.452 306.217 222.216 306.374 222.058C306.532 221.901 306.611 221.743 306.69 221.664C306.926 221.428 307.005 221.349 307.005 221.349C307.084 221.428 306.69 221.901 306.217 222.846C305.744 223.792 305.35 225.447 305.665 227.338C305.823 228.284 306.059 229.308 306.532 230.332C307.005 231.357 307.714 232.302 308.66 233.248C310.472 235.06 312.994 236.479 315.83 237.346C318.667 238.291 321.504 238.685 324.104 238.449C326.705 238.291 328.911 237.503 330.566 236.479C332.221 235.454 333.403 234.351 334.033 233.484C334.821 232.618 335.058 232.066 335.136 232.145Z" fill="#FAFAFA"/>
<path d="M324.341 316.855C324.341 316.855 324.341 316.776 324.262 316.618C324.183 316.461 324.104 316.224 324.026 315.988C323.868 315.358 323.632 314.491 323.238 313.466C322.607 311.181 321.662 308.029 320.558 304.089C318.352 296.13 315.279 285.177 311.89 273.042C310.236 266.974 308.581 261.222 307.162 255.942C306.453 253.342 305.823 250.742 305.508 248.378C305.192 245.935 305.192 243.65 305.508 241.601C306.217 237.503 308.187 234.509 309.999 233.012C310.866 232.224 311.654 231.83 312.206 231.514C312.442 231.436 312.678 231.278 312.836 231.278C312.994 231.199 313.072 231.199 313.072 231.199C313.072 231.278 311.812 231.593 310.078 233.169C308.423 234.666 306.453 237.582 305.823 241.68C305.508 243.728 305.586 245.935 305.902 248.378C306.217 250.742 306.847 253.263 307.635 255.942C309.132 261.222 310.708 266.974 312.442 273.042C315.83 285.177 318.825 296.13 321.031 304.089C322.134 308.029 323.001 311.26 323.553 313.545C323.868 314.648 324.104 315.515 324.262 316.146C324.341 316.461 324.42 316.618 324.42 316.855C324.341 316.776 324.341 316.855 324.341 316.855Z" fill="#263238"/>
<path d="M292.269 142.391C292.19 142.391 292.427 141.761 292.269 140.737C292.112 139.712 291.56 138.136 290.063 136.797C288.644 135.457 286.359 134.669 283.759 134.748C281.158 134.748 278.479 135.615 275.642 136.56C274.224 137.033 272.806 137.506 271.387 137.821C269.969 138.136 268.629 138.294 267.29 138.294C264.689 138.373 262.325 137.979 260.434 137.427C258.543 136.875 257.124 136.166 256.1 135.615C255.627 135.378 255.233 135.142 254.997 134.984C254.76 134.827 254.603 134.748 254.682 134.748C254.682 134.748 255.233 135.063 256.179 135.536C257.124 136.009 258.622 136.718 260.513 137.191C262.404 137.663 264.689 138.057 267.29 137.979C268.55 137.9 269.89 137.742 271.308 137.506C272.648 137.191 274.066 136.718 275.485 136.245C278.322 135.299 281.08 134.433 283.759 134.433C286.359 134.354 288.802 135.221 290.22 136.639C291.718 137.979 292.269 139.633 292.348 140.737C292.506 141.761 292.269 142.391 292.269 142.391Z" fill="#455A64"/>
<path d="M303.144 165.953C303.144 165.953 303.065 165.874 302.986 165.638C302.907 165.48 302.75 165.165 302.592 164.771C302.277 163.983 301.804 162.801 301.489 161.304C301.174 159.806 300.937 157.915 301.095 155.945C301.252 153.896 301.883 151.769 302.356 149.484C302.828 147.198 302.986 144.992 302.356 143.101C302.04 142.155 301.568 141.288 301.016 140.658C300.464 140.028 299.676 139.555 299.046 139.318C297.628 138.846 296.367 139.082 295.579 139.397C294.87 139.791 294.554 140.185 294.476 140.185C294.476 140.185 294.712 139.712 295.5 139.318C296.288 138.924 297.628 138.609 299.125 139.082C299.834 139.318 300.622 139.791 301.252 140.422C301.883 141.131 302.356 141.998 302.671 142.943C303.301 144.913 303.222 147.277 302.671 149.562C302.198 151.848 301.568 153.975 301.41 155.945C301.252 157.915 301.41 159.728 301.646 161.225C301.962 162.722 302.356 163.904 302.592 164.692C302.907 165.48 303.144 165.953 303.144 165.953Z" fill="#455A64"/>
<path d="M293.609 141.288C293.609 141.288 293.609 141.131 293.609 140.737C293.609 140.343 293.609 139.791 293.688 139.161C293.688 137.821 293.766 135.772 293.057 133.408C292.663 132.226 292.112 130.966 291.166 129.862C290.299 128.759 288.96 127.814 287.462 127.42C285.886 127.026 284.153 127.183 282.498 127.656C280.764 128.129 279.188 128.996 277.534 129.941C275.879 130.887 274.303 131.832 272.569 132.463C270.914 133.093 269.102 133.487 267.447 133.487C265.792 133.487 264.216 133.33 262.798 132.936C261.38 132.542 260.119 131.99 259.016 131.36C256.809 130.099 255.391 128.602 254.524 127.498C254.051 126.947 253.815 126.474 253.578 126.159C253.421 125.844 253.263 125.686 253.342 125.686C253.342 125.686 253.5 125.844 253.657 126.159C253.894 126.474 254.13 126.868 254.603 127.42C255.47 128.444 256.967 129.862 259.094 131.123C260.198 131.675 261.458 132.226 262.798 132.62C264.216 133.014 265.714 133.172 267.368 133.172C269.023 133.093 270.678 132.778 272.333 132.148C273.988 131.517 275.564 130.572 277.218 129.626C278.873 128.68 280.528 127.814 282.262 127.341C283.995 126.868 285.808 126.71 287.462 127.183C289.117 127.577 290.457 128.68 291.402 129.784C292.348 130.966 292.9 132.226 293.294 133.408C294.003 135.851 293.845 137.9 293.845 139.318C293.766 140.028 293.766 140.579 293.688 140.894C293.688 141.052 293.609 141.288 293.609 141.288Z" fill="#455A64"/>
<path d="M272.806 338.288L331.748 329.463L330.802 324.183H362.48L363.426 332.221C366.262 347.193 354.915 361.062 339.707 361.219L270.993 360.431L272.806 338.288Z" fill="#B78876"/>
<path d="M277.061 339.313C276.746 339.391 272.806 337.658 269.181 336.003C265.398 334.269 261.301 333.481 257.124 333.639L240.734 334.506C240.734 334.506 241.758 337.185 243.492 338.131C245.226 339.076 255.391 339.313 255.391 339.313L254.839 339.864C252.712 342.071 249.796 343.331 246.723 343.41H245.147C243.965 343.331 242.862 343.095 241.758 342.78L237.74 341.125C236.479 340.573 235.218 340.652 234.666 341.913C234.194 343.016 234.509 344.592 237.897 346.247C239.788 347.193 246.644 349.557 246.644 349.557C246.644 349.557 246.723 351.448 247.038 352.472C247.353 353.497 250.032 354.521 250.032 354.521C250.032 354.521 251.766 358.067 252.475 358.855C252.79 359.249 255.233 359.958 257.834 360.746C262.089 361.928 266.502 361.928 270.757 360.667L276.982 358.776V339.785" fill="#B78876"/>
<path d="M254.603 351.763C254.603 351.842 252.633 351.763 250.348 351.133C248.062 350.502 246.329 349.636 246.329 349.557C246.408 349.478 248.141 350.108 250.426 350.739C252.79 351.29 254.682 351.606 254.603 351.763Z" fill="#AA6550"/>
<path d="M254.051 355.545C254.051 355.624 253.027 355.703 251.766 355.388C250.505 355.073 249.638 354.442 249.717 354.363C249.796 354.285 250.663 354.679 251.924 354.994C253.027 355.309 254.051 355.467 254.051 355.545Z" fill="#AA6550"/>
<path d="M347.272 343.253C347.193 343.253 346.799 342.15 345.853 340.416C345.38 339.549 344.75 338.604 343.962 337.5C343.174 336.476 342.228 335.452 341.125 334.427C340.022 333.403 338.84 332.615 337.737 331.906C336.634 331.275 335.609 330.724 334.664 330.33C332.851 329.542 331.669 329.305 331.669 329.226C331.669 329.226 331.984 329.226 332.536 329.384C332.772 329.463 333.166 329.542 333.482 329.62C333.876 329.778 334.27 329.857 334.742 330.014C335.688 330.33 336.791 330.881 337.894 331.512C338.998 332.221 340.18 333.009 341.362 334.033C342.465 335.058 343.489 336.161 344.277 337.185C345.065 338.288 345.696 339.234 346.09 340.18C346.326 340.652 346.484 341.046 346.641 341.362C346.799 341.756 346.956 342.071 347.035 342.307C347.272 342.938 347.35 343.253 347.272 343.253Z" fill="#AA6550"/>
<path d="M257.046 337.815C257.046 337.815 256.652 338.367 255.785 339.155C254.918 339.943 253.736 340.967 252.239 341.834C250.742 342.701 249.166 343.253 248.062 343.41C246.959 343.647 246.25 343.647 246.25 343.647C246.25 343.489 249.087 343.253 252.081 341.44C253.578 340.573 254.76 339.628 255.627 338.84C256.494 338.209 257.046 337.815 257.046 337.815Z" fill="#AA6550"/>
<path d="M87.5468 319.14C88.9652 319.14 76.83 351.763 73.678 360.037C73.3628 360.983 73.1264 361.771 73.1264 361.771L158.073 361.928L157.048 282.892C157.048 282.813 157.048 282.813 157.048 282.734L149.956 226.156C149.878 225.604 149.484 225.132 148.932 224.974C145.544 224.028 133.408 220.955 124.189 220.561C113.314 220.167 97.5544 222.295 97.5544 222.295C97.5544 222.295 83.4492 223.713 75.648 226.55C75.0176 226.786 74.6236 227.417 74.7024 228.047L87.5468 319.14Z" fill="#E8505B"/>
<path d="M126.789 284.074C126.789 284.074 126.632 284.468 126.395 285.098C126.238 285.414 126.08 285.808 125.765 286.28C125.528 286.753 125.213 287.226 124.898 287.778C124.504 288.329 124.11 288.881 123.637 289.432C123.164 290.063 122.613 290.614 122.061 291.245C120.879 292.427 119.461 293.688 117.806 294.712C116.151 295.815 114.496 296.603 112.92 297.234C112.132 297.549 111.344 297.785 110.635 297.943C109.926 298.179 109.217 298.258 108.586 298.416C107.956 298.573 107.404 298.573 106.853 298.652C106.38 298.731 105.907 298.731 105.513 298.731C104.804 298.731 104.41 298.731 104.41 298.731C104.41 298.652 105.986 298.652 108.508 298.179C109.138 298.022 109.768 297.864 110.478 297.706C111.187 297.549 111.975 297.234 112.763 296.918C114.339 296.288 115.994 295.5 117.57 294.397C119.146 293.294 120.564 292.112 121.825 291.008C122.376 290.378 122.928 289.826 123.401 289.275C123.874 288.723 124.268 288.172 124.662 287.62C126.08 285.492 126.71 284.074 126.789 284.074Z" fill="#263238"/>
<g opacity="0.2">
<path opacity="0.2" d="M75.9632 353.891C84.0008 357.279 93.2992 355.94 100.312 350.818C103.386 348.611 105.986 345.696 109.217 343.805C113.787 341.283 119.303 340.968 124.504 340.653C131.517 340.18 138.609 339.313 145.15 336.87C146.489 336.397 147.829 335.767 148.774 334.664C149.72 333.561 149.956 331.827 149.09 330.724C148.144 329.621 146.489 329.542 145.071 329.542C123.086 330.172 102.992 331.985 81.6368 337.028" fill="black"/>
</g>
<path d="M99.682 139.318C106.459 132.384 117.176 128.286 126.08 132.226C132.069 134.827 136.088 140.422 141.367 144.283C145.15 147.12 149.878 149.247 151.926 153.581C153.66 157.364 152.872 161.776 152.399 165.953C152.005 170.129 152.242 174.936 155.472 177.615C157.127 179.034 159.412 179.585 161.304 180.688C165.165 182.895 167.45 187.15 168.238 191.484C169.026 195.818 168.632 200.31 168.159 204.722L149.878 208.19L146.883 203.146L145.859 211.105L122.534 213.233L99.682 139.318Z" fill="#263238"/>
<path d="M96.6088 146.804L96.53 151.926L95.1116 228.205C94.954 237.03 103.464 244.595 112.92 244.674C122.455 244.753 126.395 237.582 126.632 228.599C126.947 219.222 127.42 209.372 127.42 209.372C127.42 209.372 139.555 207.717 142.47 192.036C143.968 184.234 143.889 171.39 143.495 160.831C143.18 151.375 134.984 144.046 125.607 144.834L96.6088 146.804Z" fill="#FFBE9D"/>
<path d="M139.397 170.917C139.397 172.021 138.53 172.887 137.427 172.887C136.324 172.887 135.378 172.099 135.378 170.996C135.378 169.893 136.245 169.026 137.348 169.026C138.53 169.026 139.397 169.893 139.397 170.917Z" fill="#263238"/>
<path d="M140.579 167.45C140.343 167.687 138.846 166.505 136.639 166.505C134.433 166.426 132.857 167.529 132.62 167.214C132.542 167.056 132.778 166.662 133.487 166.111C134.196 165.638 135.378 165.165 136.718 165.244C138.058 165.323 139.161 165.795 139.87 166.347C140.5 166.82 140.737 167.293 140.579 167.45Z" fill="#263238"/>
<path d="M117.964 170.917C117.964 172.02 117.097 172.887 115.994 172.887C114.89 172.887 113.945 172.099 113.945 170.996C113.945 169.893 114.812 169.026 115.915 169.026C117.097 169.026 117.964 169.893 117.964 170.917Z" fill="#263238"/>
<path d="M119.224 167.214C118.988 167.45 117.491 166.268 115.284 166.268C113.078 166.189 111.502 167.292 111.266 166.977C111.187 166.82 111.423 166.426 112.132 165.874C112.842 165.401 114.024 164.928 115.363 165.007C116.703 165.086 117.806 165.559 118.515 166.11C119.146 166.662 119.382 167.135 119.224 167.214Z" fill="#263238"/>
<path d="M126.632 183.604C126.632 183.447 127.971 183.289 130.178 183.053C130.729 182.974 131.281 182.895 131.36 182.501C131.517 182.107 131.281 181.477 131.044 180.846C130.572 179.507 130.02 178.088 129.547 176.591C127.42 170.523 125.922 165.48 126.159 165.401C126.395 165.323 128.286 170.208 130.414 176.276C130.887 177.773 131.438 179.191 131.832 180.61C131.99 181.24 132.384 181.949 132.069 182.816C131.911 183.21 131.517 183.525 131.123 183.604C130.729 183.683 130.414 183.683 130.178 183.683C128.05 183.762 126.632 183.683 126.632 183.604Z" fill="#263238"/>
<path d="M127.42 209.372C127.42 209.372 116.782 209.766 106.459 203.146C106.459 203.146 111.266 214.1 127.104 213.075L127.42 209.372Z" fill="#EB996E"/>
<path d="M125.607 188.805C124.819 187.78 123.48 187.15 122.14 187.229C121.194 187.308 120.249 187.702 119.618 188.49C118.988 189.278 118.909 190.302 119.382 191.09C119.934 191.957 121.194 192.193 122.219 191.878C123.243 191.642 124.189 190.932 125.056 190.302C125.292 190.144 125.528 189.908 125.686 189.672C125.844 189.435 125.844 189.12 125.686 188.884" fill="#EB996E"/>
<path d="M120.249 184.944C120.564 184.944 120.564 187.308 122.534 189.041C124.504 190.775 127.026 190.617 127.026 190.932C127.026 191.09 126.474 191.405 125.371 191.405C124.346 191.405 122.849 191.011 121.588 189.987C120.406 188.962 119.855 187.544 119.855 186.598C119.776 185.495 120.091 184.865 120.249 184.944Z" fill="#263238"/>
<path d="M119.934 160.91C119.697 161.461 117.57 161.146 114.969 161.382C112.369 161.54 110.32 162.249 110.005 161.698C109.847 161.461 110.241 160.91 111.108 160.358C111.975 159.806 113.314 159.334 114.812 159.176C116.309 159.018 117.727 159.334 118.673 159.728C119.54 160.122 120.012 160.594 119.934 160.91Z" fill="#263238"/>
<path d="M140.658 163.037C140.185 163.51 138.373 162.958 136.166 162.88C133.96 162.722 132.148 163.116 131.675 162.564C131.517 162.328 131.832 161.855 132.62 161.382C133.408 160.91 134.748 160.594 136.324 160.673C137.821 160.752 139.161 161.225 139.87 161.776C140.658 162.249 140.894 162.801 140.658 163.037Z" fill="#263238"/>
<path d="M80.376 225.21C80.376 225.21 55.0024 231.12 50.1168 255.154C47.8316 266.186 44.6796 329.62 59.494 339.47C78.5636 352.157 102.755 340.652 102.755 340.652L99.682 309.999H83.922L81.7944 276.43C82.346 278.873 80.376 225.21 80.376 225.21Z" fill="#E8505B"/>
<path d="M170.523 330.724C175.409 330.251 180.137 327.808 183.368 324.026C186.598 320.322 188.332 315.279 188.096 310.393L177.773 266.423C177.773 266.423 171.075 228.678 149.799 225.289L157.048 282.813L156.339 294.949C156.339 294.949 156.654 302.986 157.521 318.037L170.523 330.724Z" fill="#E8505B"/>
<path d="M173.281 303.222C173.281 303.301 171.784 303.144 169.499 303.616C167.214 304.089 164.062 305.35 161.54 307.95C159.018 310.551 157.758 313.703 157.364 316.067C156.891 318.431 157.127 319.928 157.048 319.928C157.048 319.928 156.97 319.534 156.891 318.904C156.891 318.194 156.891 317.249 157.048 316.067C157.442 313.703 158.624 310.393 161.225 307.714C163.825 305.035 167.135 303.774 169.42 303.38C170.602 303.144 171.548 303.144 172.257 303.144C172.887 303.144 173.281 303.222 173.281 303.222Z" fill="#263238"/>
<path d="M107.877 137.506C110.714 141.367 112.054 144.283 113.787 151.06C114.654 154.369 111.896 156.733 109.217 158.782C107.956 159.728 106.144 159.097 105.75 157.521C105.75 157.521 106.695 167.923 102.913 172.651C101.179 174.857 101.1 177.694 101.494 180.058C101.888 182.501 103.149 184.628 104.883 186.441C109.296 191.011 110.478 198.576 107.483 204.171C106.695 205.589 105.671 206.929 105.119 208.426C104.804 209.293 104.568 210.238 104.646 211.184C104.725 212.366 103.937 213.312 102.755 213.548C89.832 215.439 76.6724 215.833 63.5916 214.73C62.646 214.651 61.858 214.021 61.7004 213.075C60.676 208.741 62.4096 204.013 64.5372 200.073C66.98 195.66 70.0532 191.326 70.92 186.362C71.708 181.634 70.4472 176.591 72.3384 172.178C74.6236 166.82 81.0064 164.219 84.1584 159.334C87.1528 154.684 86.9164 148.538 89.5956 143.731C92.9052 137.585 101.416 134.669 107.877 137.506Z" fill="#263238"/>
<path d="M108.586 143.337C113.551 145.859 115.836 151.926 120.643 154.763C125.056 157.285 130.493 156.654 135.536 155.866C135.378 154.763 135.142 153.66 134.984 152.557C135.457 153.502 136.009 154.527 136.876 155.236C137.664 155.945 138.924 156.339 139.949 155.945C141.604 155.236 141.84 152.951 141.446 151.217C140.737 148.38 139.082 145.859 137.033 143.81C133.33 140.028 128.208 137.664 123.007 137.27C117.727 136.876 112.369 138.373 108.114 141.525" fill="#263238"/>
<path d="M155.078 255.47C155.078 255.47 155.078 255.706 155.157 256.1C155.157 256.573 155.157 257.125 155.236 257.913C155.236 259.489 155.315 261.695 155.472 264.453C155.709 269.969 156.182 277.534 156.812 285.965C157.442 294.397 157.915 301.962 158.073 307.478C158.152 310.236 158.152 312.442 158.152 314.018C158.152 314.727 158.152 315.358 158.152 315.831C158.152 316.225 158.152 316.461 158.152 316.461C158.152 316.461 158.152 316.225 158.073 315.831C158.073 315.358 158.073 314.806 157.994 314.018C157.994 312.442 157.915 310.236 157.758 307.478C157.521 301.962 157.048 294.397 156.418 285.965C155.788 277.613 155.315 269.969 155.157 264.453C155.078 261.695 155.078 259.489 155.078 257.913C155.078 257.203 155.078 256.573 155.078 256.1C155.078 255.706 155.078 255.47 155.078 255.47Z" fill="#263238"/>
<path d="M83.922 309.92C83.922 309.92 83.922 309.763 83.8432 309.448C83.8432 309.132 83.7644 308.66 83.7644 308.187C83.6856 307.005 83.6068 305.429 83.528 303.538C83.2916 299.598 82.9764 294.16 82.5824 288.172C82.1884 282.183 81.7944 276.824 81.4792 272.806C81.3216 270.914 81.2428 269.338 81.164 268.156C81.164 267.605 81.0852 267.211 81.0852 266.896C81.0852 266.58 81.0852 266.423 81.0852 266.423C81.0852 266.423 81.164 266.58 81.164 266.896C81.164 267.211 81.2428 267.684 81.3216 268.156C81.4004 269.338 81.558 270.914 81.7944 272.806C82.1096 276.746 82.5824 282.183 82.9764 288.172C83.3704 294.16 83.6856 299.598 83.8432 303.538C83.922 305.508 84.0008 307.084 84.0008 308.187C84.0008 308.738 84.0008 309.132 84.0008 309.448C83.922 309.763 83.922 309.92 83.922 309.92Z" fill="#263238"/>
<path d="M83.922 309.92C83.922 309.999 83.134 309.999 81.8732 310.472C80.6124 310.866 79.0364 311.733 77.6968 313.309C76.436 314.806 75.8056 316.618 75.648 317.879C75.4116 319.14 75.5692 320.007 75.4904 320.007C75.4904 320.007 75.4116 319.77 75.3328 319.455C75.254 319.061 75.254 318.51 75.3328 317.879C75.4904 316.54 76.042 314.648 77.3816 313.072C78.7212 311.496 80.4548 310.63 81.7944 310.236C82.4248 310.078 82.9764 309.999 83.3704 309.999C83.6856 309.92 83.922 309.92 83.922 309.92Z" fill="#263238"/>
<path d="M102.755 340.574C102.755 340.574 102.676 340.416 102.676 340.101C102.598 339.707 102.598 339.313 102.519 338.683C102.361 337.422 102.204 335.688 101.967 333.561C101.494 329.148 100.864 323.159 100.155 316.54C99.9184 314.255 99.682 312.048 99.5244 309.921L99.682 310.078C94.6388 310.078 90.226 309.999 87.074 309.999C85.5768 309.999 84.316 309.921 83.4492 309.921C83.0552 309.921 82.74 309.921 82.5036 309.921C82.2672 309.921 82.1884 309.921 82.1884 309.921C82.1884 309.921 82.2672 309.921 82.5036 309.921C82.74 309.921 83.0552 309.921 83.4492 309.921C84.316 309.921 85.5768 309.921 87.074 309.842C90.226 309.842 94.6388 309.763 99.682 309.763H99.8396V309.921C100.076 311.969 100.312 314.176 100.549 316.54C101.179 323.159 101.81 329.148 102.204 333.561C102.361 335.688 102.519 337.422 102.676 338.761C102.755 339.313 102.755 339.786 102.755 340.18C102.755 340.416 102.755 340.574 102.755 340.574Z" fill="#263238"/>
<path d="M102.755 340.574C102.755 340.574 102.519 340.652 102.125 340.81C101.731 340.968 101.1 341.125 100.391 341.362C98.894 341.834 96.6876 342.465 94.0084 343.253C91.2504 343.962 88.0196 344.75 84.316 345.302C80.6124 345.853 76.436 345.617 72.1808 344.75C70.0532 344.277 68.0044 343.726 66.1132 343.016C65.1676 342.701 64.222 342.307 63.2764 341.913C62.8036 341.756 62.4096 341.519 61.9368 341.283L61.3064 340.968L60.676 340.574C59.1 339.549 57.8392 338.21 56.8936 336.87C55.948 335.53 55.16 334.112 54.5296 332.851C53.3476 330.251 52.6384 328.123 52.1656 326.626C51.9292 325.838 51.7716 325.286 51.6928 324.892C51.614 324.498 51.5352 324.262 51.5352 324.262C51.5352 324.262 51.614 324.498 51.7716 324.892C51.9292 325.286 52.0868 325.917 52.3232 326.626C52.8748 328.123 53.584 330.251 54.8448 332.772C55.4752 334.033 56.1844 335.373 57.2088 336.712C58.1544 338.052 59.4152 339.313 60.9124 340.337L61.464 340.731L62.0944 341.046C62.4884 341.283 62.9612 341.44 63.434 341.598C64.3008 341.992 65.2464 342.307 66.192 342.622C68.0832 343.253 70.132 343.883 72.1808 344.277C76.3572 345.223 80.4548 345.459 84.1584 344.908C87.862 344.435 91.0928 343.647 93.8508 343.016C96.6088 342.307 98.7364 341.677 100.312 341.283C101.022 341.046 101.652 340.889 102.046 340.81C102.519 340.652 102.755 340.574 102.755 340.574Z" fill="#263238"/>
<path d="M89.3592 156.182C91.014 152.557 89.9108 147.907 87.074 145.149C84.1584 142.391 79.7456 141.525 75.8844 142.707C74.1508 143.258 72.5748 144.204 71.5504 145.701C69.5804 148.38 69.9744 152.32 72.0232 154.921C73.9932 157.521 77.3816 158.94 80.6124 159.097C83.922 159.255 87.1528 158.388 90.226 157.127" fill="#263238"/>
<path d="M115.6 281.159C121.116 285.729 134.118 296.446 134.118 296.446L141.367 295.185L119.382 276.667C118.2 275.643 116.466 275.8 115.363 276.903C114.181 278.164 114.26 280.134 115.6 281.159Z" fill="#455A64"/>
<path d="M115.048 278.795L112.211 276.194C111.66 275.721 111.581 274.855 112.054 274.224C112.526 273.594 113.472 273.594 114.024 274.067L116.782 276.588L115.048 278.795Z" fill="#455A64"/>
<path d="M123.48 280.213C123.558 280.292 122.77 281.237 121.746 282.419C120.722 283.523 119.776 284.389 119.697 284.311C119.618 284.232 120.406 283.286 121.431 282.104C122.534 281.001 123.401 280.134 123.48 280.213Z" fill="#263238"/>
<path d="M123.716 289.275C123.716 289.354 122.849 288.802 121.51 287.856C120.17 286.911 118.436 285.571 116.545 283.917C115.6 283.129 114.654 282.262 114.26 281.237C113.787 280.213 113.866 279.11 114.181 278.322C114.496 277.534 114.969 277.061 115.363 276.746C115.757 276.431 115.994 276.352 115.994 276.431C115.994 276.431 115.757 276.588 115.442 276.903C115.127 277.219 114.733 277.691 114.418 278.479C114.181 279.189 114.102 280.213 114.575 281.159C114.969 282.104 115.915 282.892 116.782 283.68C118.673 285.335 120.406 286.675 121.667 287.699C123.007 288.566 123.795 289.196 123.716 289.275Z" fill="#263238"/>
<path d="M99.9184 312.363C105.119 310.63 110.714 311.812 115.915 309.999C117.648 309.448 119.461 308.817 120.879 307.557C122.534 306.059 123.401 303.932 124.74 302.119C128.68 296.761 136.088 295.658 142.707 295.027C144.283 294.87 145.859 294.712 147.356 295.106C148.853 295.5 150.272 296.525 150.744 298.022C151.138 299.519 150.193 301.41 148.696 301.489C150.114 301.568 151.138 302.986 151.454 304.483C151.69 305.902 151.454 307.399 151.69 308.817C151.926 310.866 153.03 312.757 153.03 314.727C152.951 317.485 150.666 319.771 148.065 320.874C145.465 321.977 142.628 322.056 139.87 322.45C126.316 324.341 116.072 332.063 102.992 337.816" fill="#FFBE9D"/>
<path d="M151.375 306.375C151.848 307.32 153.187 307.478 154.054 306.926C154.921 306.375 155.236 305.193 155.078 304.168C154.921 303.144 154.369 302.198 153.739 301.41C152.636 299.913 151.296 298.573 149.956 297.234L145.78 300.78L151.375 306.375Z" fill="#FFBE9D"/>
<path d="M149.799 301.804C149.799 301.962 147.198 301.725 144.125 302.198C141.052 302.671 138.609 303.617 138.609 303.459C138.609 303.38 139.161 303.144 140.106 302.75C141.052 302.356 142.47 301.962 144.046 301.725C145.622 301.489 147.041 301.489 148.144 301.489C149.168 301.647 149.799 301.725 149.799 301.804Z" fill="#EB996E"/>
<path d="M151.69 309.999C151.69 310.157 149.562 309.684 146.883 309.763C144.204 309.842 142.155 310.394 142.076 310.236C142.076 310.157 144.125 309.448 146.883 309.369C149.562 309.29 151.69 309.921 151.69 309.999Z" fill="#EB996E"/>
<path d="M151.217 307.557C151.138 307.557 151.217 306.926 151.138 305.981C151.06 305.035 150.666 303.695 149.878 302.513C149.72 302.277 149.562 302.041 149.326 301.804L149.168 301.647L149.326 301.489C150.193 300.622 150.429 299.519 150.429 298.731C150.429 297.943 150.193 297.47 150.272 297.47C150.272 297.47 150.587 297.864 150.744 298.731C150.823 299.519 150.666 300.859 149.641 301.804V301.568C149.878 301.804 150.035 302.041 150.193 302.356C151.06 303.617 151.375 305.035 151.375 306.059C151.454 307.005 151.296 307.635 151.217 307.557Z" fill="#EB996E"/>
<path d="M151.375 305.902L158.23 312.363L159.097 316.224L152.714 314.806C151.848 311.575 151.138 308.502 151.375 305.902Z" fill="#455A64"/>
<path d="M142.076 314.176C141.919 314.412 104.962 332.615 104.962 332.615V336.555L142.707 316.934L189.514 315.2V312.442L142.076 314.176Z" fill="#F5F5F5"/>
<path d="M104.962 337.106C105.198 336.949 145.78 333.245 145.78 333.245L189.514 315.121L142.707 316.855L104.962 336.476V337.106Z" fill="#263238"/>
<path d="M143.81 327.414C143.495 325.286 145.544 323.474 147.592 322.922C149.641 322.371 151.848 322.607 153.975 322.134C155.315 321.819 156.576 321.268 157.836 320.716C164.298 318.273 171.39 318.116 178.324 318.037C179.191 319.849 178.482 322.292 176.748 323.395C177.379 325.05 177.221 326.941 176.512 328.596C175.882 330.251 174.778 331.669 173.596 333.009C172.651 334.112 171.548 335.294 170.208 335.846C168.868 336.476 167.292 336.476 165.795 336.555C161.146 336.634 156.182 336.634 152.32 334.033C149.326 331.984 147.277 328.517 143.81 327.493C144.046 327.493 144.362 327.493 144.598 327.493" fill="#FFBE9D"/>
<path d="M174.778 324.814C174.778 324.814 174.463 324.892 173.912 324.892C173.281 324.892 172.414 324.971 171.469 324.971C169.42 325.05 166.583 325.05 163.431 325.05C161.855 325.05 160.358 325.05 159.018 325.05C158.309 325.05 157.679 324.971 157.048 324.735C156.418 324.498 155.945 324.183 155.63 323.71C155.315 323.238 155.157 322.765 155.236 322.292C155.315 321.898 155.472 321.504 155.709 321.346C156.182 320.952 156.576 320.952 156.576 321.031C156.576 321.11 156.26 321.11 155.866 321.504C155.472 321.898 155.236 322.844 155.866 323.553C156.182 323.947 156.576 324.262 157.127 324.42C157.679 324.577 158.309 324.656 158.94 324.656C160.279 324.656 161.776 324.656 163.352 324.656C166.504 324.656 169.341 324.656 171.39 324.656C172.336 324.656 173.124 324.656 173.833 324.735C174.463 324.814 174.778 324.814 174.778 324.814Z" fill="#EB996E"/>
<path d="M172.336 328.754C172.336 328.754 171.942 328.833 171.232 328.99C170.523 329.069 169.499 329.227 168.159 329.384C166.82 329.542 165.322 329.621 163.589 329.463C161.855 329.384 159.964 328.99 157.994 328.517C154.133 327.572 150.508 327.257 147.908 327.257C146.568 327.257 145.544 327.335 144.834 327.335C144.125 327.335 143.731 327.414 143.731 327.335C143.731 327.335 144.125 327.257 144.834 327.178C145.544 327.099 146.647 327.02 147.908 326.941C150.508 326.863 154.212 327.099 158.073 328.045C160.043 328.517 161.855 328.911 163.589 328.99C165.322 329.148 166.82 329.069 168.159 328.99C169.42 328.911 170.523 328.833 171.232 328.754C171.942 328.754 172.336 328.675 172.336 328.754Z" fill="#EB996E"/>
<path d="M168.474 332.851C168.474 332.851 168.159 332.93 167.608 333.009C167.056 333.088 166.268 333.166 165.244 333.245C163.195 333.403 160.358 333.56 157.285 333.009C154.212 332.378 151.769 330.802 149.878 330.093C147.986 329.305 146.726 329.227 146.804 329.148C146.804 329.148 147.12 329.148 147.671 329.226C148.223 329.305 149.011 329.463 150.035 329.857C151.926 330.566 154.369 332.063 157.364 332.615C160.358 333.166 163.195 333.088 165.244 333.009C166.189 332.93 166.977 332.93 167.608 332.851C168.159 332.851 168.474 332.851 168.474 332.851Z" fill="#EB996E"/>
<g opacity="0.2">
<path opacity="0.2" d="M157.994 311.733C158.388 308.896 159.018 305.98 160.279 303.38C161.54 300.78 163.589 298.494 166.268 297.312C168.868 296.13 172.178 296.13 174.542 297.785C175.251 298.258 175.882 298.967 176.197 299.755C176.512 300.543 176.433 301.568 175.803 302.198C174.936 303.144 173.439 302.986 172.178 302.907C166.426 302.671 160.594 306.138 158.152 311.339" fill="black"/>
</g>
<g opacity="0.2">
<path opacity="0.2" d="M89.5956 309.29C92.7476 303.616 91.6444 296.524 89.2016 290.536C86.8376 284.547 83.2128 279.031 81.4004 272.806C81.0852 285.335 82.8976 297.943 86.7588 309.842" fill="black"/>
</g>
<path d="M95.1904 222.925C95.1904 222.925 99.0516 231.908 112.763 231.357C126.553 230.805 127.026 220.088 127.026 220.088L136.245 229.86L127.498 247.905L115.757 256.652L99.682 250.032L86.4436 239.788L95.1904 222.925Z" fill="#E8505B"/>
<g opacity="0.5">
<path opacity="0.5" d="M62.8824 261.38C63.04 261.537 61.2276 263.271 58.8636 265.162C56.4996 267.053 54.4508 268.472 54.2932 268.314C54.1356 268.156 55.948 266.423 58.312 264.532C60.676 262.64 62.7248 261.222 62.8824 261.38Z" fill="#FAFAFA"/>
</g>
<path d="M69.344 251.687C69.2652 251.924 67.0588 251.293 64.7736 249.796C62.4096 248.378 60.9124 246.723 60.9912 246.565C61.1488 246.408 62.8824 247.747 65.1676 249.166C67.4528 250.505 69.4228 251.451 69.344 251.687Z" fill="#FAFAFA"/>
<path d="M81.164 252.712C81.3216 252.869 79.588 255.391 77.618 258.622C75.648 261.852 74.1508 264.532 73.9144 264.453C73.678 264.374 74.86 261.458 76.9088 258.228C78.9576 254.918 81.0064 252.633 81.164 252.712Z" fill="#FAFAFA"/>
<path d="M71.0776 280.134C70.92 280.292 69.1076 278.4 67.5316 275.642C65.9556 272.884 65.2464 270.363 65.404 270.363C65.6404 270.284 66.6648 272.569 68.2408 275.248C69.738 277.928 71.2352 279.976 71.0776 280.134Z" fill="#FAFAFA"/>
<path d="M60.4396 293.372C60.2032 293.372 59.7304 291.402 59.4152 288.881C59.1 286.359 58.9424 284.31 59.1788 284.31C59.4152 284.31 59.888 286.28 60.2032 288.802C60.5972 291.324 60.676 293.372 60.4396 293.372Z" fill="#FAFAFA"/>
<g opacity="0.5">
<path opacity="0.5" d="M70.4472 296.997C70.2896 296.918 71.2352 294.791 72.7324 292.269C74.1508 289.748 75.4904 287.856 75.7268 287.935C75.8844 288.014 74.9388 290.142 73.4416 292.663C71.9444 295.185 70.6048 297.076 70.4472 296.997Z" fill="#FAFAFA"/>
</g>
<path d="M58.8636 310.709C58.706 310.866 56.9724 309.133 55.2388 306.611C53.5052 304.089 52.5596 301.883 52.7172 301.725C52.9536 301.647 54.2144 303.695 55.8692 306.138C57.6028 308.66 59.0212 310.551 58.8636 310.709Z" fill="#FAFAFA"/>
<path d="M74.5448 308.423C74.7024 308.581 72.89 310.708 70.526 313.072C68.162 315.515 66.0344 317.327 65.8768 317.17C65.7192 317.012 67.5316 314.964 69.8956 312.521C72.3384 310.078 74.3872 308.266 74.5448 308.423Z" fill="#FAFAFA"/>
<g opacity="0.5">
<path opacity="0.5" d="M65.6404 336.791C65.4828 336.949 63.7492 335.53 62.1732 333.245C60.5972 330.96 59.8092 328.832 59.9668 328.754C60.2032 328.675 61.2276 330.566 62.8036 332.772C64.3796 334.9 65.798 336.634 65.6404 336.791Z" fill="#FAFAFA"/>
</g>
<path d="M85.892 331.039C85.9708 331.196 84.0796 332.536 81.558 333.954C79.0364 335.373 76.9088 336.397 76.83 336.161C76.7512 336.003 78.6424 334.664 81.164 333.245C83.6856 331.827 85.8132 330.802 85.892 331.039Z" fill="#FAFAFA"/>
<path d="M93.8508 324.498C93.6932 324.656 91.8808 323.238 90.226 320.952C88.5712 318.667 87.7832 316.461 87.9408 316.382C88.1772 316.303 89.2016 318.273 90.8564 320.48C92.4324 322.686 94.0084 324.341 93.8508 324.498Z" fill="#FAFAFA"/>
<path d="M107.798 279.11C107.956 279.267 105.828 281.08 103.149 283.128C100.47 285.177 98.106 286.674 98.0272 286.438C97.8696 286.28 99.9972 284.468 102.676 282.419C105.356 280.449 107.641 278.952 107.798 279.11Z" fill="#FAFAFA"/>
<path d="M93.0628 278.164C92.8264 278.164 92.9052 275.958 93.1416 273.357C93.378 270.678 93.8508 268.629 94.0084 268.629C94.2448 268.629 94.166 270.836 93.9296 273.436C93.6932 276.115 93.2992 278.164 93.0628 278.164Z" fill="#FAFAFA"/>
<g opacity="0.5">
<path opacity="0.5" d="M106.616 259.725C106.459 259.882 104.016 258.385 101.337 256.1C98.6576 253.815 96.7664 251.608 96.924 251.451C97.0816 251.293 99.2092 253.184 101.888 255.47C104.568 257.755 106.774 259.567 106.616 259.725Z" fill="#FAFAFA"/>
</g>
<path d="M96.4512 236.715C96.6088 236.873 94.8752 239.158 92.59 241.916C90.3048 244.595 88.256 246.723 88.0984 246.565C87.9408 246.408 89.6744 244.122 91.9596 241.364C94.2448 238.606 96.2936 236.558 96.4512 236.715Z" fill="#FAFAFA"/>
<g opacity="0.5">
<path opacity="0.5" d="M84.7888 234.194C84.6312 234.43 82.8976 233.484 80.6124 232.696C78.3272 231.908 76.3572 231.593 76.436 231.357C76.436 231.12 78.4848 231.12 80.9276 231.987C83.2916 232.775 84.9464 234.036 84.7888 234.194Z" fill="#FAFAFA"/>
</g>
<path d="M114.418 244.832C114.181 244.753 114.575 242.862 115.284 240.576C115.994 238.291 116.703 236.479 116.939 236.558C117.176 236.636 116.782 238.528 116.072 240.813C115.363 243.098 114.654 244.91 114.418 244.832Z" fill="#FAFAFA"/>
<path d="M121.51 262.956C121.273 262.956 121.194 261.064 121.352 258.779C121.51 256.494 121.746 254.603 121.982 254.603C122.219 254.603 122.298 256.494 122.14 258.779C122.061 261.143 121.746 262.956 121.51 262.956Z" fill="#FAFAFA"/>
<path d="M133.172 276.588C133.014 276.746 131.281 275.643 129.311 273.988C127.341 272.412 125.844 270.914 126.001 270.757C126.159 270.599 127.892 271.702 129.862 273.357C131.832 275.012 133.33 276.431 133.172 276.588Z" fill="#FAFAFA"/>
<path d="M145.544 257.597C145.701 257.755 144.125 259.41 142.076 261.143C140.028 262.956 138.215 264.295 138.058 264.138C137.9 263.98 139.476 262.404 141.525 260.592C143.652 258.779 145.386 257.44 145.544 257.597Z" fill="#FAFAFA"/>
<g opacity="0.5">
<path opacity="0.5" d="M139.87 248.614C139.712 248.772 137.821 247.747 135.694 246.014C133.566 244.28 132.148 242.547 132.305 242.389C132.463 242.231 134.118 243.65 136.166 245.383C138.294 247.038 139.949 248.457 139.87 248.614Z" fill="#FAFAFA"/>
</g>
<path d="M154.212 232.618C154.369 232.775 153.424 234.351 151.769 235.927C150.114 237.503 148.38 238.37 148.302 238.212C148.144 237.976 149.641 236.873 151.217 235.376C152.793 233.8 153.975 232.46 154.212 232.618Z" fill="#FAFAFA"/>
<g opacity="0.5">
<path opacity="0.5" d="M144.362 231.12C144.362 231.357 141.84 231.12 138.846 230.411C135.851 229.623 133.566 228.599 133.645 228.441C133.724 228.205 136.088 228.914 139.082 229.623C141.919 230.332 144.362 230.884 144.362 231.12Z" fill="#FAFAFA"/>
</g>
<g opacity="0.5">
<path opacity="0.5" d="M162.643 256.573C162.407 256.494 162.88 253.421 164.062 249.796C165.165 246.092 166.504 243.334 166.662 243.413C166.898 243.492 165.953 246.408 164.85 250.032C163.668 253.657 162.88 256.652 162.643 256.573Z" fill="#FAFAFA"/>
</g>
<path d="M166.662 273.988C166.504 274.145 164.534 272.333 162.328 269.969C160.122 267.605 158.388 265.556 158.546 265.398C158.703 265.241 160.673 267.053 162.88 269.417C165.165 271.781 166.82 273.83 166.662 273.988Z" fill="#FAFAFA"/>
<g opacity="0.5">
<path opacity="0.5" d="M172.966 283.838C172.73 283.838 172.572 281.237 172.651 278.085C172.73 274.933 172.966 272.333 173.124 272.333C173.36 272.333 173.518 274.933 173.439 278.085C173.439 281.237 173.202 283.838 172.966 283.838Z" fill="#FAFAFA"/>
</g>
<path d="M166.583 299.992C166.426 300.149 164.692 298.022 163.195 295.185C161.619 292.269 160.831 289.748 160.988 289.669C161.225 289.59 162.328 291.954 163.904 294.791C165.401 297.628 166.82 299.913 166.583 299.992Z" fill="#FAFAFA"/>
<path d="M182.895 302.986C183.052 303.144 181.949 304.483 180.452 305.98C178.955 307.478 177.615 308.502 177.458 308.344C177.3 308.187 178.403 306.847 179.9 305.35C181.398 303.853 182.737 302.828 182.895 302.986Z" fill="#FAFAFA"/>
<g opacity="0.5">
<path opacity="0.5" d="M143.258 284.547C143.022 284.468 143.81 281.868 145.622 279.188C147.514 276.509 149.641 274.854 149.799 275.091C149.956 275.248 148.144 277.061 146.332 279.661C144.519 282.262 143.495 284.626 143.258 284.547Z" fill="#FAFAFA"/>
</g>
<path d="M97.318 306.138C97.0816 306.059 97.4756 303.774 98.1848 300.937C98.894 298.1 99.6032 295.815 99.8396 295.894C100.076 295.973 99.682 298.258 98.9728 301.095C98.2636 303.932 97.4756 306.217 97.318 306.138Z" fill="#FAFAFA"/>
<path d="M116.624 308.029C116.466 308.187 114.575 307.163 112.211 305.665C109.926 304.168 108.192 302.829 108.271 302.592C108.429 302.435 110.32 303.459 112.684 304.956C115.048 306.532 116.782 307.872 116.624 308.029Z" fill="#FAFAFA"/>
<path d="M115.678 294.082C115.521 294.239 114.575 293.136 113.63 291.718C112.684 290.299 112.054 289.038 112.29 288.881C112.448 288.723 113.393 289.826 114.339 291.245C115.284 292.742 115.836 294.003 115.678 294.082Z" fill="#FAFAFA"/>
<path d="M124.189 297.312C124.346 297.47 123.48 298.337 122.376 299.125C121.194 299.913 120.17 300.464 120.091 300.228C119.934 300.07 120.8 299.204 121.904 298.416C123.007 297.628 124.11 297.076 124.189 297.312Z" fill="#FAFAFA"/>
<g opacity="0.5">
<path opacity="0.5" d="M101.888 353.891C101.652 353.812 102.046 352 102.361 349.793C102.676 347.587 102.834 345.774 103.07 345.774C103.307 345.774 103.464 347.666 103.149 349.951C102.834 352.236 102.125 353.97 101.888 353.891Z" fill="#FAFAFA"/>
</g>
<g opacity="0.5">
<path opacity="0.5" d="M121.588 347.508C121.352 347.587 119.934 345.38 118.279 342.465C116.624 339.549 115.442 337.106 115.678 337.028C115.836 336.949 117.333 339.155 118.988 342.071C120.564 344.986 121.746 347.429 121.588 347.508Z" fill="#FAFAFA"/>
</g>
<g opacity="0.5">
<path opacity="0.5" d="M142.392 338.761C142.549 338.919 140.579 341.756 137.979 345.223C135.378 348.611 133.093 351.29 132.936 351.133C132.778 350.975 134.748 348.138 137.348 344.671C139.949 341.283 142.234 338.604 142.392 338.761Z" fill="#FAFAFA"/>
</g>
<g opacity="0.5">
<path opacity="0.5" d="M148.302 355.467C148.302 355.703 145.701 356.255 142.47 356.728C139.24 357.2 136.56 357.358 136.56 357.2C136.56 356.964 139.161 356.412 142.392 355.94C145.544 355.467 148.223 355.23 148.302 355.467Z" fill="#FAFAFA"/>
</g>
<path d="M149.168 347.035C148.932 346.956 149.168 345.302 149.247 343.253C149.326 341.204 149.247 339.47 149.484 339.47C149.72 339.47 150.114 341.125 150.035 343.332C149.956 345.459 149.405 347.114 149.168 347.035Z" fill="#FAFAFA"/>
<path d="M121.037 356.885C120.958 357.122 118.83 356.412 116.624 354.758C114.418 353.182 113.078 351.369 113.236 351.212C113.393 351.054 114.969 352.551 117.097 354.048C119.224 355.624 121.116 356.649 121.037 356.885Z" fill="#FAFAFA"/>
<path d="M87.6256 355.624C87.3892 355.546 87.7044 353.733 88.1772 351.606C88.7288 349.478 89.3592 347.744 89.5956 347.823C89.832 347.902 89.5168 349.714 89.044 351.842C88.4924 353.97 87.862 355.703 87.6256 355.624Z" fill="#FAFAFA"/>
<path d="M84.0008 156.339C84.0796 156.26 84.9464 157.048 86.6012 157.915C87.3892 158.388 88.4136 158.861 89.5956 159.255C90.7776 159.649 92.1172 159.964 93.5356 160.122C94.954 160.279 96.2936 160.279 97.5544 160.122C98.8152 159.964 99.9184 159.806 100.785 159.491C102.598 159.018 103.622 158.467 103.701 158.546C103.701 158.546 103.464 158.703 102.992 158.94C102.755 159.097 102.44 159.176 102.125 159.334C101.81 159.491 101.337 159.649 100.943 159.806C99.9972 160.122 98.894 160.358 97.6332 160.516C96.3724 160.673 94.954 160.673 93.5356 160.516C92.1172 160.358 90.6988 159.964 89.5168 159.57C88.3348 159.097 87.3104 158.624 86.4436 158.152C86.0496 157.915 85.6556 157.679 85.3404 157.442C85.0252 157.206 84.7888 157.048 84.5524 156.812C84.1584 156.497 84.0008 156.339 84.0008 156.339Z" fill="#455A64"/>
<path d="M104.331 165.401C104.331 165.401 104.016 165.559 103.464 165.638C102.913 165.795 102.125 165.953 101.1 166.11C99.0516 166.426 96.136 166.82 93.0628 166.189C89.9108 165.559 87.3892 163.825 86.0496 162.249C85.3404 161.461 84.9464 160.673 84.71 160.2C84.4736 159.649 84.3948 159.334 84.3948 159.334C84.4736 159.255 84.8676 160.594 86.2072 162.092C87.5468 163.589 89.9896 165.244 93.0628 165.874C96.136 166.504 98.9728 166.189 101.022 165.953C102.046 165.795 102.834 165.638 103.464 165.559C104.016 165.401 104.331 165.322 104.331 165.401Z" fill="#455A64"/>
<path d="M76.2784 213.627C76.2784 213.627 76.1996 213.627 76.1996 213.548C76.1208 213.469 76.042 213.391 75.9632 213.233C75.7268 212.918 75.4904 212.366 75.3328 211.657C75.0176 210.239 75.3328 207.875 77.0664 205.826C77.9332 204.801 79.0364 203.856 80.376 203.068C81.6368 202.201 83.134 201.413 84.5524 200.467C85.9708 199.522 87.3892 198.34 88.3348 196.764C88.8076 195.976 89.1228 195.109 89.2804 194.163C89.438 193.218 89.3592 192.272 89.1228 191.327C88.7288 189.435 87.862 187.623 87.1528 185.889C86.4436 184.156 85.892 182.343 85.8132 180.61C85.6556 177.064 86.9952 173.991 88.4924 171.863C90.0684 169.735 91.802 168.474 93.1416 167.765C93.4568 167.608 93.772 167.45 94.0084 167.371C94.2448 167.292 94.4812 167.214 94.7176 167.135C95.1116 166.977 95.2692 166.977 95.2692 166.977C95.2692 166.977 95.1116 167.056 94.7176 167.214C94.56 167.292 94.3236 167.371 94.0872 167.45C93.8508 167.608 93.5356 167.765 93.2204 167.923C91.9596 168.632 90.226 169.893 88.7288 172.021C87.2316 174.148 85.9708 177.143 86.1284 180.61C86.2072 182.343 86.7588 184.077 87.468 185.811C88.1772 187.544 89.044 189.357 89.5168 191.327C89.7532 192.351 89.832 193.375 89.6744 194.321C89.5168 195.345 89.2016 196.291 88.65 197.079C87.6256 198.734 86.1284 199.916 84.71 200.861C83.2916 201.807 81.7944 202.595 80.5336 203.462C79.2728 204.25 78.0908 205.195 77.3028 206.141C75.648 208.111 75.254 210.396 75.4904 211.815C75.7268 212.997 76.3572 213.548 76.2784 213.627Z" fill="#455A64"/>
<path d="M97.2392 213.863C97.2392 213.863 97.0816 213.784 96.7664 213.627C96.53 213.39 96.0572 213.075 95.742 212.524C95.4268 211.972 95.1116 211.184 95.0328 210.238C94.954 209.293 95.0328 208.268 95.348 207.086C95.9784 204.801 97.9484 202.674 99.3668 199.994C100.076 198.655 100.628 197.158 100.549 195.503C100.549 193.848 99.9972 192.193 99.288 190.617C97.7908 187.465 95.5056 184.944 93.9296 182.264C93.1416 180.925 92.4324 179.664 92.0384 178.324C91.6444 176.985 91.5656 175.724 91.6444 174.542C91.8808 172.178 92.984 170.444 93.9296 169.578C94.4024 169.184 94.8752 168.868 95.1904 168.79C95.5056 168.632 95.6632 168.632 95.6632 168.632C95.6632 168.711 94.954 168.868 94.0084 169.735C93.0628 170.602 92.0384 172.257 91.8808 174.542C91.802 175.645 91.8808 176.906 92.2748 178.246C92.6688 179.506 93.2992 180.846 94.166 182.107C94.954 183.368 95.8996 184.707 96.924 186.047C97.8696 187.386 98.894 188.884 99.6032 190.46C100.391 192.036 100.864 193.769 100.864 195.503C100.943 197.236 100.391 198.812 99.6032 200.152C98.106 202.831 96.136 204.88 95.5056 207.086C95.1904 208.19 95.0328 209.214 95.1116 210.081C95.1904 210.948 95.4268 211.736 95.742 212.287C96.6088 213.548 97.318 213.863 97.2392 213.863Z" fill="#455A64"/>
<path d="M128.365 154.763C128.365 154.763 128.286 154.763 128.05 154.606C127.892 154.527 127.577 154.369 127.262 154.133C126.632 153.66 125.765 152.793 124.977 151.611C124.189 150.429 123.48 148.853 122.77 147.12C122.376 146.253 121.982 145.386 121.51 144.44C121.037 143.574 120.485 142.628 119.776 141.84C117.018 138.452 113.393 136.639 110.635 136.009C107.877 135.3 106.065 135.457 106.065 135.378C106.065 135.378 106.538 135.3 107.326 135.3C108.114 135.3 109.296 135.378 110.714 135.772C112.132 136.088 113.708 136.718 115.363 137.664C117.018 138.609 118.673 139.949 120.012 141.682C120.722 142.549 121.273 143.416 121.825 144.362C122.298 145.307 122.692 146.174 123.007 147.041C123.716 148.774 124.346 150.35 125.056 151.532C125.765 152.714 126.553 153.581 127.183 154.054C127.971 154.527 128.365 154.684 128.365 154.763Z" fill="#455A64"/>
<path d="M139.397 154.684C139.397 154.684 139.24 154.684 139.003 154.606C138.688 154.606 138.294 154.448 137.821 154.29C136.797 153.975 135.457 153.187 134.039 151.848C132.699 150.508 131.36 148.617 130.178 146.489C128.917 144.362 127.735 141.84 125.922 139.634C124.11 137.427 121.588 136.166 119.224 135.457C116.86 134.748 114.575 134.669 112.684 134.59C110.793 134.512 109.296 134.59 108.192 134.669C107.72 134.669 107.326 134.669 107.01 134.748C106.695 134.748 106.616 134.748 106.616 134.748C106.616 134.748 106.774 134.748 107.01 134.669C107.326 134.669 107.72 134.59 108.192 134.512C109.217 134.433 110.793 134.275 112.684 134.275C114.575 134.275 116.86 134.433 119.303 135.063C121.746 135.694 124.346 137.033 126.159 139.318C128.05 141.525 129.232 144.046 130.493 146.253C131.675 148.459 132.936 150.272 134.275 151.611C135.615 152.951 136.876 153.739 137.9 154.133C138.767 154.527 139.397 154.606 139.397 154.684Z" fill="#455A64"/>
<path d="M157.994 205.826C157.915 205.826 158.23 205.274 158.467 204.25C158.703 203.225 159.018 201.728 158.94 199.837C158.861 197.946 158.388 195.66 157.285 193.454C156.733 192.351 155.945 191.248 155 190.302C154.054 189.278 153.03 188.332 152.005 187.308C150.981 186.283 149.956 185.259 149.09 184.156C148.223 183.052 147.514 181.87 146.962 180.767C146.41 179.585 146.016 178.482 145.701 177.379C145.386 176.276 145.228 175.251 145.071 174.306C144.834 172.414 144.992 170.838 145.15 169.735C145.228 169.184 145.307 168.79 145.386 168.553C145.465 168.317 145.465 168.159 145.465 168.159C145.544 168.159 145.386 168.711 145.307 169.814C145.228 170.838 145.15 172.414 145.386 174.306C145.465 175.251 145.701 176.276 146.016 177.3C146.332 178.403 146.726 179.506 147.277 180.61C147.829 181.713 148.538 182.895 149.326 183.919C150.193 185.022 151.138 185.968 152.242 186.992C153.266 188.017 154.369 188.962 155.236 189.987C156.182 191.011 156.97 192.114 157.521 193.296C158.703 195.582 159.097 197.946 159.176 199.837C159.255 201.807 158.861 203.304 158.546 204.328C158.388 204.88 158.23 205.195 158.152 205.51C158.073 205.668 157.994 205.826 157.994 205.826Z" fill="#455A64"/>
<path d="M71.6292 154.054C71.6292 154.054 71.6292 153.739 71.708 153.266C71.7868 152.793 72.0232 152.084 72.496 151.296C73.3628 149.72 75.1752 147.75 77.9332 147.12C80.6912 146.489 83.2916 147.356 84.71 148.38C85.4192 148.853 85.9708 149.405 86.286 149.799C86.6012 150.193 86.7588 150.429 86.7588 150.429C86.68 150.508 86.0496 149.562 84.5524 148.617C83.134 147.671 80.6124 146.883 78.012 147.514C75.4116 148.144 73.5992 149.956 72.7324 151.454C71.8656 152.951 71.708 154.054 71.6292 154.054Z" fill="#455A64"/>
<path d="M79.2728 157.364C79.194 157.364 79.2728 156.654 79.5092 155.551C79.7456 154.448 80.1396 152.872 81.4004 151.611C82.6612 150.35 84.4736 150.193 85.5768 150.587C86.1284 150.823 86.5224 151.06 86.68 151.375C86.9164 151.611 86.9164 151.769 86.9164 151.769C86.8376 151.848 86.5224 151.138 85.498 150.823C84.4736 150.508 82.8188 150.744 81.7156 151.926C80.6124 153.108 80.1396 154.606 79.8244 155.63C79.5092 156.733 79.3516 157.364 79.2728 157.364Z" fill="#455A64"/>
<path d="M89.2804 145.859C89.3592 145.938 88.0984 147.671 87.2316 150.114C86.3648 152.557 86.286 154.763 86.1284 154.763C86.0496 154.763 85.892 152.557 86.8376 149.956C87.7044 147.435 89.2016 145.78 89.2804 145.859Z" fill="#E8505B"/>
<path d="M215.36 165.007C215.36 166.347 216.464 167.45 217.803 167.45C219.143 167.45 220.246 166.347 220.246 165.007C220.246 163.668 219.143 162.564 217.803 162.564C216.464 162.564 215.36 163.668 215.36 165.007Z" fill="#455A64"/>
<path d="M208.032 167.45C209.381 167.45 210.475 166.356 210.475 165.007C210.475 163.658 209.381 162.564 208.032 162.564C206.683 162.564 205.589 163.658 205.589 165.007C205.589 166.356 206.683 167.45 208.032 167.45Z" fill="#455A64"/>
<path d="M195.739 163.825C195.03 165.007 195.503 166.504 196.606 167.214C197.788 167.923 199.285 167.45 199.994 166.347C200.704 165.165 200.231 163.668 199.128 162.958C197.946 162.249 196.448 162.643 195.739 163.825Z" fill="#455A64"/>
<path d="M207.874 136.403C207.874 136.403 207.717 136.403 207.402 136.403C207.008 136.403 206.535 136.403 205.983 136.482C205.668 136.482 205.274 136.482 204.88 136.56C204.486 136.639 204.092 136.639 203.619 136.718C203.146 136.797 202.674 136.876 202.122 136.954C201.57 137.112 201.019 137.191 200.467 137.348C198.103 137.979 195.266 139.003 192.351 140.894C189.435 142.786 186.441 145.465 183.919 149.09C181.476 152.714 179.664 157.285 179.191 162.486C179.112 163.746 178.955 165.086 179.112 166.426C179.191 167.056 179.112 167.765 179.27 168.396C179.349 169.026 179.506 169.735 179.585 170.444C180.137 173.124 180.925 175.882 182.343 178.403C183.683 181.004 185.416 183.446 187.544 185.574C189.75 187.702 192.272 189.593 195.03 191.011C197.867 192.43 200.94 193.454 204.171 193.848C204.959 194.006 205.826 194.006 206.614 194.084C207.402 194.163 208.268 194.163 209.056 194.163C210.711 194.084 212.366 193.927 214.021 193.533C217.567 192.745 220.955 191.326 223.871 189.356H223.556C226.944 190.696 230.332 192.036 233.563 193.375L234.194 193.612L234.036 192.981C233.012 189.278 232.066 185.732 231.12 182.264L231.042 182.501C233.878 178.718 235.691 174.463 236.4 170.208C236.794 168.08 236.952 165.953 236.794 163.904C236.715 162.88 236.715 161.855 236.479 160.91C236.4 160.437 236.321 159.964 236.242 159.412C236.164 158.94 236.006 158.467 235.927 157.994C233.957 150.429 229.308 144.834 224.738 141.682C222.452 140.028 220.167 138.924 218.04 138.136C217.488 137.979 217.015 137.742 216.542 137.585C216.07 137.427 215.597 137.348 215.124 137.191C214.651 137.112 214.257 136.954 213.784 136.876C213.39 136.797 212.996 136.718 212.602 136.718C211.814 136.639 211.184 136.482 210.554 136.482C210.002 136.482 209.45 136.482 209.056 136.403C208.662 136.403 208.347 136.403 208.19 136.403C207.953 136.403 207.874 136.403 207.874 136.403C207.874 136.403 207.953 136.403 208.19 136.482C208.426 136.482 208.741 136.56 209.056 136.56C209.45 136.56 209.923 136.639 210.554 136.639C211.105 136.718 211.814 136.797 212.524 136.954C215.518 137.506 219.931 138.688 224.422 141.998C228.914 145.228 233.484 150.744 235.376 158.152C235.454 158.624 235.612 159.097 235.691 159.57C235.77 160.043 235.848 160.516 235.927 160.988C236.085 161.934 236.164 162.958 236.164 163.983C236.321 165.953 236.164 168.08 235.77 170.129C235.06 174.306 233.248 178.482 230.49 182.107L230.411 182.264L230.49 182.422C231.436 185.889 232.381 189.514 233.406 193.139L233.8 192.745C230.49 191.405 227.18 190.066 223.792 188.726L223.634 188.647L223.477 188.726C220.561 190.617 217.33 192.036 213.863 192.745C212.287 193.06 210.632 193.296 209.056 193.375C208.268 193.375 207.48 193.375 206.614 193.296C205.826 193.218 205.038 193.218 204.25 193.06C201.098 192.666 198.024 191.72 195.266 190.302C192.508 188.884 189.987 187.071 187.859 185.022C185.81 182.895 184.077 180.531 182.737 178.009C181.398 175.488 180.61 172.808 180.058 170.208C179.979 169.578 179.822 168.868 179.743 168.238C179.664 167.608 179.664 166.898 179.585 166.268C179.428 164.928 179.585 163.668 179.664 162.407C180.137 157.364 181.949 152.872 184.313 149.247C186.677 145.622 189.672 143.022 192.508 141.131C195.345 139.24 198.182 138.136 200.467 137.506C201.019 137.348 201.57 137.191 202.122 137.033C202.674 136.954 203.146 136.876 203.619 136.797C204.092 136.718 204.486 136.639 204.88 136.56C205.274 136.482 205.589 136.482 205.983 136.482C206.614 136.403 207.086 136.403 207.402 136.403C207.638 136.403 207.874 136.403 207.874 136.403Z" fill="#455A64"/>
</svg>
