<svg width="256" height="256" viewBox="0 0 256 256" fill="none" xmlns="http://www.w3.org/2000/svg">
<path d="M256 128C256 198.692 198.692 256 128 256C57.3076 256 0 198.692 0 128C0 57.3076 57.3076 0 128 0C198.692 0 256 57.3076 256 128Z" fill="#FFE3A1"/>
<path d="M87.1 49.9C87.1 49.9 83.6 48 80.2 56.2C76.8 64.4 75.6 69.1 75.6 69.1C75.6 69.1 74.7 70.8 73.4 69.8C72.2 68.8 70.4 65.9 68.5 66.6C66.5 67.3 66.1 69.6 66.7 72.9C67.3 76.2 68.5 83.3 68.6 84C68.7 84.6 68.4 85.6 67.5 85.1C66.6 84.6 61 79.2 58.6 82C56.2 84.8 59.5 93.6 59.9 94.5C60.2 95.5 60.1 95.9 59.6 96.2C59.2 96.5 57.4 94.5 55.8 93.1C54.1 91.7 52 90.3 50.8 92C49.6 93.7 49.7 100.5 56.9 110.9L60.6 115.5L66.5 114.7C79 112.2 83.8 107.4 84.1 105.3C84.4 103.2 81.9 102.7 79.7 102.6C77.5 102.5 74.9 102.7 74.8 102.2C74.7 101.7 74.9 101.3 75.8 100.8C76.7 100.3 85.2 96.3 85.4 92.6C85.6 88.9 77.9 88.9 76.9 88.6C75.8 88.3 76.3 87.4 76.8 87C77.3 86.6 83.1 82.2 85.9 80.3C88.7 78.4 89.9 76.4 89 74.5C88.1 72.7 84.8 73.6 83.2 73.4C81.6 73.3 82.2 71.4 82.2 71.4C82.2 71.4 84.6 67.2 87.9 58.9C91 50.9 87 49.9 87.1 49.9Z" fill="#EBEBEB"/>
<path d="M60.8 114.3C63.2 108.2 66.6 99.9 70.4 90.7C74.2 81.5 77.6 73.1 80.1 67.1C81.3 64.1 82.3 61.6 83 59.9C83.3 59.1 83.6 58.4 83.8 58C83.9 57.8 84 57.6 84 57.5C84 57.4 84.1 57.3 84.1 57.3C84.1 57.3 84.1 57.4 84 57.5C84 57.6 83.9 57.8 83.8 58C83.6 58.5 83.4 59.1 83 60C82.3 61.7 81.4 64.2 80.2 67.2C77.8 73.3 74.4 81.6 70.6 90.8C66.8 100 63.4 108.4 60.9 114.4" fill="#E0E0E0"/>
<path d="M70.9 70.8C70.9 70.8 71 70.9 71.1 71.2C71.2 71.5 71.3 71.8 71.5 72.3C71.8 73.2 72.3 74.5 72.7 75.9C73.1 77.3 73.5 78.6 73.9 79.6C74 80 74.2 80.4 74.3 80.7C74.4 81 74.4 81.1 74.4 81.1C74.4 81.1 74.3 81 74.2 80.7C74.1 80.4 74 80.1 73.8 79.6C73.5 78.7 73 77.4 72.6 76C72.1 74.6 71.7 73.3 71.4 72.4C71.3 72 71.1 71.6 71 71.3C70.9 71 70.9 70.8 70.9 70.8Z" fill="#E0E0E0"/>
<path d="M74.9 81.2C74.9 81.1 77.5 80.1 80.7 78.9C83.9 77.7 86.6 76.7 86.6 76.8C86.6 76.9 84 77.9 80.8 79.1C77.6 80.3 75 81.2 74.9 81.2Z" fill="#E0E0E0"/>
<path d="M68.5 95.1C68.5 95.1 68.7 95.1 68.9 95C69.2 95 69.6 94.9 70.1 94.9C71.1 94.8 72.5 94.7 74 94.5C75.5 94.3 76.9 94.1 77.9 94C78.4 93.9 78.8 93.9 79.1 93.8C79.4 93.8 79.5 93.7 79.5 93.8C79.5 93.8 79.4 93.9 79.1 93.9C78.8 94 78.4 94.1 77.9 94.1C76.9 94.3 75.5 94.5 74 94.7C72.5 94.9 71.1 95 70.1 95C69.6 95 69.2 95 68.9 95C68.6 95.1 68.5 95.1 68.5 95.1Z" fill="#E0E0E0"/>
<path d="M62.8 86.5C62.8 86.5 62.9 86.6 63.1 86.8C63.3 87 63.5 87.3 63.7 87.7C64.2 88.5 65 89.5 65.8 90.7C66.6 91.9 67.3 92.9 67.8 93.7C68.1 94.1 68.3 94.4 68.4 94.6C68.5 94.8 68.6 94.9 68.6 95C68.6 95 68.5 94.9 68.3 94.7C68.1 94.5 67.9 94.2 67.7 93.8C67.2 93 66.4 92 65.6 90.8C64.8 89.6 64.1 88.6 63.6 87.8C63.3 87.4 63.1 87.1 63 86.9C62.8 86.6 62.8 86.5 62.8 86.5Z" fill="#E0E0E0"/>
<path d="M55.5 98C55.5 98 55.6 98.1 55.8 98.4C56 98.7 56.3 99.1 56.6 99.5C57.3 100.5 58.2 101.8 59.3 103.3C60.3 104.8 61.3 106.1 61.9 107.1C62.2 107.6 62.5 108 62.7 108.3C62.5 108 62.2 107.6 61.9 107.2C61.2 106.2 60.3 104.9 59.2 103.4C58.2 101.9 57.2 100.6 56.6 99.6C56.3 99.1 56 98.7 55.8 98.4C55.6 98.2 55.5 98.1 55.5 98Z" fill="#E0E0E0"/>
<path d="M63.4 108.4C63.8 108.4 64.3 108.3 64.9 108.2C66.2 108.1 67.9 107.9 69.8 107.6C71.7 107.3 73.4 107 74.7 106.8C75.3 106.7 75.8 106.6 76.2 106.5C76.6 106.4 76.7 106.4 76.7 106.4C76.7 106.4 76.5 106.5 76.2 106.5C75.9 106.6 75.4 106.7 74.7 106.8C73.5 107.1 71.7 107.4 69.8 107.7C67.9 108 66.1 108.2 64.9 108.3C64.3 108.4 63.8 108.4 63.4 108.4Z" fill="#E0E0E0"/>
<path d="M148.7 112.2C148.7 112.2 155.9 113.4 156.5 113.6C157.1 113.8 159.4 114.8 159.5 115.5C159.6 116.2 159.5 118.3 159.5 118.3C159.5 118.3 159.1 118.6 158.8 118C158.5 117.3 158.6 116 158.6 116L157.3 115.5L158 116.7L158.1 119.6C158.1 119.6 157.2 119.5 157 118.8C156.8 118.1 156.8 117.3 156.8 117.3L155.9 116.5L156.6 117.4L156.8 119.5C156.8 119.5 156.1 119.7 155.9 119.3C155.7 118.8 155.7 117.5 155.7 117.5L153.1 116.6L151.4 117.6L148.1 115.8L148.7 112.2Z" fill="#FFBE9D"/>
<path d="M123.4 94.3C123.4 94.4 132.1 106.4 132.1 106.4L149.5 111.8L148.7 118.3L127.4 114L119.8 105.3L123.4 94.3Z" fill="#E8505B"/>
<path d="M123.4 94.3C123.4 94.4 132.1 106.4 132.1 106.4L149.5 111.8L148.7 118.3L127.4 114L119.8 105.3L123.4 94.3Z" fill="black"/>
<path d="M93.1 117.7H57.5C56.7 117.7 56.1 117.1 56.1 116.3V112.1C56.1 111.3 56.7 110.7 57.5 110.7H93.1C93.9 110.7 94.5 111.3 94.5 112.1V116.3C94.4 117.1 93.8 117.7 93.1 117.7Z" fill="#F5F5F5"/>
<path d="M93.1 117.7C93.1 117.7 93.2 117.7 93.3 117.7C93.4 117.7 93.7 117.6 93.9 117.4C94.1 117.2 94.4 116.9 94.4 116.5C94.4 116.1 94.4 115.6 94.4 115C94.4 114.4 94.4 113.8 94.4 113.1C94.4 112.8 94.4 112.4 94.4 112C94.4 111.6 94.2 111.3 93.9 111C93.8 110.9 93.6 110.8 93.4 110.7C93.2 110.6 93 110.7 92.8 110.7C92.4 110.7 91.9 110.7 91.5 110.7C90.6 110.7 89.7 110.7 88.7 110.7C80.7 110.7 69.7 110.7 57.5 110.7C57.2 110.7 56.8 110.9 56.6 111.1C56.4 111.4 56.3 111.7 56.3 112.1C56.3 112.9 56.3 113.6 56.3 114.3C56.3 114.7 56.3 115 56.3 115.4V116C56.3 116.2 56.3 116.4 56.3 116.5C56.4 116.8 56.6 117.1 56.9 117.3C57 117.4 57.2 117.4 57.4 117.4C57.6 117.4 57.8 117.4 57.9 117.4C60.8 117.4 63.5 117.4 66.2 117.4C71.5 117.4 76.2 117.4 80.2 117.4C84.2 117.4 87.4 117.4 89.6 117.4C90.7 117.4 91.6 117.4 92.2 117.4C92.5 117.4 92.7 117.4 92.9 117.4C93 117.7 93.1 117.7 93.1 117.7C93.1 117.7 93 117.7 92.9 117.7C92.7 117.7 92.5 117.7 92.2 117.7C91.6 117.7 90.7 117.7 89.6 117.7C87.4 117.7 84.1 117.7 80.2 117.7C76.2 117.7 71.5 117.7 66.2 117.7C63.6 117.7 60.8 117.7 57.9 117.7C57.7 117.7 57.6 117.7 57.3 117.7C57.1 117.7 56.9 117.6 56.7 117.5C56.4 117.3 56.1 117 56 116.6C55.9 116.4 55.9 116.2 55.9 116V115.4C55.9 115 55.9 114.7 55.9 114.3C55.9 113.6 55.9 112.8 55.9 112.1C55.9 111.7 56 111.3 56.3 111C56.6 110.7 57 110.5 57.4 110.5C69.6 110.5 80.6 110.5 88.6 110.5C89.6 110.5 90.5 110.5 91.4 110.5C91.8 110.5 92.3 110.5 92.7 110.5C92.9 110.5 93.1 110.5 93.3 110.6C93.5 110.7 93.7 110.8 93.9 110.9C94.2 111.2 94.4 111.6 94.4 112C94.4 112.4 94.4 112.7 94.4 113.1C94.4 113.8 94.4 114.4 94.4 115C94.4 115.6 94.4 116 94.4 116.5C94.3 116.9 94.1 117.3 93.9 117.4C93.7 117.6 93.4 117.6 93.3 117.7C93.1 117.7 93.1 117.7 93.1 117.7Z" fill="#263238"/>
<path d="M189.669 206.268C199.764 205.783 207.554 197.207 207.07 187.112C206.585 177.018 198.008 169.227 187.914 169.712C177.819 170.197 170.029 178.773 170.513 188.868C170.998 198.962 179.575 206.753 189.669 206.268Z" fill="#263238"/>
<path d="M170.5 187.7C170.4 197.9 178.4 206.2 188.5 206.3C198.6 206.4 206.9 198.4 207.1 188.3L170.5 187.7Z" fill="#263238"/>
<path d="M175.9 187.8C175.8 194.9 181.5 200.7 188.6 200.8C195.7 200.9 201.5 195.2 201.6 188.1C201.7 181 196 175.2 188.9 175.1C181.9 175 176 180.7 175.9 187.8Z" fill="#FAFAFA"/>
<path d="M189 175.1C181.9 175 176.1 180.7 176 187.8L201.7 188.2C201.7 181.1 196.1 175.2 189 175.1Z" fill="#E0E0E0"/>
<path d="M181 187.9C180.9 192.2 184.4 195.8 188.7 195.8C193 195.9 196.6 192.4 196.6 188.1C196.7 183.8 193.2 180.2 188.9 180.2C184.6 180.1 181 183.5 181 187.9Z" fill="#263238"/>
<path d="M180.1 161.2C180.1 161.2 198.8 155.5 206.6 175.9L167.4 188L180.1 161.2Z" fill="#E8505B"/>
<path d="M76.7748 206.267C86.8695 205.782 94.6599 197.206 94.1751 187.111C93.6903 177.017 85.1139 169.226 75.0192 169.711C64.9246 170.196 57.1342 178.772 57.619 188.867C58.1038 198.962 66.6802 206.752 76.7748 206.267Z" fill="#263238"/>
<path d="M57.6 187.7C57.5 197.9 65.5 206.2 75.6 206.3C85.7 206.4 94 198.4 94.2 188.3L57.6 187.7Z" fill="#263238"/>
<path d="M63 187.8C62.9 194.9 68.6 200.7 75.7 200.8C82.8 200.9 88.6 195.2 88.7 188.1C88.8 181 83.1 175.2 76 175.1C69 175 63.1 180.7 63 187.8Z" fill="#FAFAFA"/>
<path d="M76.1 175.1C69 175 63.2 180.7 63.1 187.8L88.8 188.2C88.8 181.1 83.1 175.2 76.1 175.1Z" fill="#E0E0E0"/>
<path d="M68 187.9C67.9 192.2 71.4 195.8 75.7 195.8C80 195.9 83.6 192.4 83.6 188.1C83.7 183.8 80.2 180.2 75.9 180.2C71.7 180.1 68.1 183.5 68 187.9Z" fill="#263238"/>
<path d="M101.9 180.6C101.8 180.7 92.3 179.1 92.3 179.1C91.3 180.5 89.7 181.3 88 181.4C83.9 181.6 79.9 181.8 76.4 181.9C73.1 182 70.6 184.8 70.8 188C70.9 191.1 73.4 193.5 76.5 193.7L96.8 194.5C100.1 194.6 104.6 192.6 106.6 190L101.9 180.6Z" fill="#455A64"/>
<path d="M52.1 172.5C52.1 172.5 51.2 154.7 68 150.9V148.6H126.7V154.1C126.7 154.1 118.1 164.5 120.9 173.1C123.7 181.7 124.6 182.6 124.6 182.6H158C158 182.6 162 177.5 162.2 169.9C162.4 162.3 159.2 149.4 156.9 141.1C154.8 133.6 153.4 127.3 153.4 127.3L163.4 124C163.4 124 182 148.3 182.7 149.6C183.5 151 186 154.1 185.4 161.1C184.8 168.1 168.1 189.6 163.7 192C159.3 194.4 155.4 194.6 151.4 195.2C148 195.7 122.7 195.4 116.1 195.3C113.8 195.3 111.5 194.7 109.6 193.5C107.6 192.3 106.1 190.3 104.5 187.1L101 180.3L52.1 172.5Z" fill="#E8505B"/>
<path d="M56.6 171.3L49.2 182.9C48.3 184.4 49.8 186.2 51.4 185.5C52.2 185.2 53 184.6 53.9 183.8C57.3 180.6 63.3 172.1 63.3 172.1L56.6 171.3Z" fill="#455A64"/>
<path d="M109.6 173.4C109.6 173.4 109.6 173.3 109.6 173.2C109.6 173.1 109.7 172.9 109.7 172.7C109.8 172.3 110 171.6 110.1 170.8C110.3 169.1 110.2 166.6 109 163.8C108.4 162.4 107.5 161 106.3 159.7C105.1 158.4 103.6 157.2 101.8 156.3C100 155.3 98.1 154.6 95.9 154.1C93.8 153.6 91.5 153.4 89.2 153.4C86.9 153.4 84.6 153.6 82.5 153.9C80.3 154.2 78.3 154.6 76.3 155C72.4 155.9 69 157.2 66.3 158.7C63.7 160.2 61.8 161.8 60.6 163C60 163.6 59.6 164.1 59.3 164.5C59.2 164.7 59.1 164.8 59 164.9C59 165 59 165 59 165C59 165 59.5 164.2 60.7 162.9C61.9 161.7 63.7 160 66.4 158.5C69 157 72.5 155.6 76.4 154.7C78.4 154.2 80.4 153.9 82.6 153.6C84.8 153.3 87 153.1 89.4 153.1C91.7 153.1 94 153.3 96.1 153.8C98.2 154.3 100.2 155 102 156C103.8 157 105.3 158.2 106.5 159.5C107.7 160.8 108.6 162.3 109.2 163.7C110.4 166.5 110.5 169.1 110.3 170.8C110.2 171.6 110 172.3 109.9 172.7C109.8 172.9 109.8 173.1 109.7 173.2C109.7 173.3 109.6 173.4 109.6 173.4Z" fill="#263238"/>
<path d="M106.3 169.4C106.3 169.4 106.4 169.1 106.5 168.6C106.6 168.1 106.7 167.3 106.6 166.4C106.5 165.5 106.1 164.4 105.5 163.3C105.2 162.8 104.8 162.2 104.4 161.7C104 161.2 103.5 160.7 102.9 160.2C101.8 159.3 100.6 158.6 99.4 158.2C98.2 157.7 97.1 157.5 96.2 157.3C95.3 157.1 94.5 157.1 94 157C93.5 157 93.2 157 93.2 156.9C93.2 156.9 93.3 156.9 93.4 156.9C93.5 156.9 93.7 156.9 94 156.9C94.5 156.9 95.3 156.9 96.3 157.1C97.2 157.2 98.4 157.5 99.6 157.9C100.8 158.4 102 159 103.2 160C103.8 160.5 104.3 161 104.7 161.5C105.1 162 105.5 162.6 105.8 163.2C106.4 164.3 106.8 165.4 106.9 166.4C107 167.4 106.9 168.2 106.8 168.7C106.7 169 106.6 169.1 106.6 169.3C106.3 169.3 106.3 169.4 106.3 169.4Z" fill="#F5F5F5"/>
<path d="M94.8 153.8C98.1 154.4 100.9 155.6 103.6 157.4C106.3 159.2 108.4 161.7 109.5 164.8C110.7 167.8 110.5 171.8 109.3 174.3L113.4 174.6C114.8 169.9 113.3 164.2 109.9 160.6C106 156.3 100.6 153.8 94.8 153.8Z" fill="black"/>
<path d="M88.7 148.7H61.9C57.2 148.7 53.3 144.9 53.3 140.1V125.9C53.3 121.2 57.1 117.3 61.9 117.3H88.7C93.4 117.3 97.3 121.1 97.3 125.9V140.1C97.3 144.9 93.4 148.7 88.7 148.7Z" fill="#455A64"/>
<path d="M97.3 124.3C97.3 124.4 87.4 124.4 75.2 124.4C63 124.4 53.1 124.3 53.1 124.3C53.1 124.2 63 124.2 75.2 124.2C87.4 124.2 97.3 124.3 97.3 124.3Z" fill="#263238"/>
<path d="M126.7 150.8C126.7 150.9 113.5 150.9 97.2 150.9C80.9 150.9 67.7 150.8 67.7 150.8C67.7 150.7 80.9 150.7 97.2 150.7C113.5 150.7 126.7 150.7 126.7 150.8Z" fill="#263238"/>
<path d="M126.7 148.7C126.7 148.7 127.7 147.5 127.8 146.1C127.9 144.6 127.2 142.8 125.6 142.8H105.3C102 142.8 99.4 145.5 99.4 148.7H126.7Z" fill="#455A64"/>
<path d="M153.4 127.4L149.9 120C148.9 117.9 149.7 115.4 151.7 114.2L162.2 107.9C162.8 107.6 163.4 107.4 164 107.4H166.3L167.2 122.3L163.7 123.6L165.9 127.2L153.4 127.4Z" fill="#E8505B"/>
<path d="M166.4 108.1C166.4 108.1 170 108.9 170.5 114.5C171 120.1 167.3 121.8 167.3 121.8L166.4 108.1Z" fill="#EBEBEB"/>
<path d="M154.7 117.2C154.7 117.2 147.4 120.7 146.5 121.2C145.9 121.6 145.4 122.3 145.8 123.5C146.6 125.6 150 123.6 150 123.6L156.8 120.2C156.8 120.2 159.4 119 158.4 117.4C157.4 115.7 154.7 117.2 154.7 117.2Z" fill="#263238"/>
<path d="M144.4 115.9C144.4 115.9 151.2 117.1 151.8 117.2C152.4 117.4 154.7 118.4 154.8 119.1C154.9 119.8 154.8 121.9 154.8 121.9C154.8 121.9 154.4 122.2 154.1 121.6C153.8 120.9 153.9 119.6 153.9 119.6L152.6 119.1L153.3 120.3L153.4 123.2C153.4 123.2 152.5 123.1 152.3 122.4C152.1 121.7 152.1 120.9 152.1 120.9L151.2 120.1L151.9 121L152.1 123.1C152.1 123.1 151.4 123.3 151.2 122.9C151 122.4 151 121.1 151 121.1L148.4 120.2L146.7 121.2L144 119.7L144.4 115.9Z" fill="#FFBE9D"/>
<path d="M155 106.4C155 109.2 153.7 111.4 152.2 111.4C150.6 111.4 149.4 109.2 149.4 106.4C149.4 103.6 150.7 101.4 152.2 101.4C153.8 101.4 155 103.6 155 106.4Z" fill="#263238"/>
<path d="M152.6 109.8L154.2 115.2C154.9 114.8 155 114.1 154.9 113.6C154.5 111.7 154.3 110.4 153.9 108.8C153.8 108.7 152.6 109.8 152.6 109.8Z" fill="#263238"/>
<path d="M121.7 175.5C121.5 175.1 121.4 174.6 121.2 174.1C121.1 173.7 120.9 173.2 120.8 172.8C120.6 172 120.5 171.2 120.4 170.8C117.8 181.5 121.8 189.1 128.7 189.7C138.8 190.5 151.1 191 156.1 189.7C165.2 187.3 168.5 179.7 169.3 178.5C170.1 177.3 177.3 164 172.9 151.3C168.5 138.6 160.7 125.1 160.7 125.1L153.3 127.6C153.3 127.6 154.6 133.9 156.8 141.4C159.1 149.7 162.3 162.6 162.1 170.2C161.9 177.8 157.9 182.9 157.9 182.9H124.5C124.6 182.6 123.9 181.9 121.7 175.5Z" fill="black"/>
<path d="M50.8 169.7L51 167.2L112 174.2C115.4 174.6 117.8 177.8 117.2 181.2L116.9 182.7L53.8 173.5C51.9 173.4 50.6 171.6 50.8 169.7Z" fill="#E8505B"/>
<path d="M50.8 169.7L51 167.2L112 174.2C115.4 174.6 117.8 177.8 117.2 181.2L116.9 182.7L53.8 173.5C51.9 173.4 50.6 171.6 50.8 169.7Z" fill="black"/>
<path d="M169.4 186.8C169.4 186.8 182.8 172 185.6 160.4C186.5 160.4 188.7 160.5 189.8 160.7C189.7 160.7 181.8 182.3 169.4 186.8Z" fill="black"/>
<path d="M185.4 155.2C185.4 155.2 185.4 155.3 185.5 155.6C185.5 155.8 185.6 156.2 185.7 156.7C185.8 157.6 185.8 159 185.6 160.7C185.4 162.4 184.8 164.3 183.8 166.4C182.9 168.4 181.6 170.6 180.2 172.8C177.5 177.2 174.5 180.8 172.3 183.4C171.2 184.7 170.3 185.7 169.7 186.4C169.4 186.7 169.2 187 169 187.2C168.8 187.4 168.7 187.5 168.7 187.5C168.7 187.5 168.8 187.4 168.9 187.2C169.1 187 169.3 186.7 169.6 186.4C170.2 185.7 171.1 184.6 172.2 183.3C174.3 180.7 177.3 177.1 180 172.7C181.3 170.5 182.6 168.4 183.6 166.4C184.6 164.4 185.1 162.5 185.4 160.8C185.7 159.1 185.6 157.8 185.6 156.8C185.6 156.3 185.5 156 185.5 155.7C185.4 155.4 185.4 155.2 185.4 155.2Z" fill="#263238"/>
<path d="M162.2 186.7C162.2 186.7 161.2 185.9 160 184.8C158.9 183.7 158 182.7 158 182.7C158 182.7 159 183.5 160.2 184.6C161.3 185.7 162.2 186.7 162.2 186.7Z" fill="#263238"/>
<path d="M122.3 186.2C122.2 186.2 122.6 185.3 123.3 184.3C124 183.3 124.7 182.6 124.7 182.7C124.8 182.7 124.1 183.5 123.5 184.5C122.8 185.4 122.4 186.3 122.3 186.2Z" fill="#263238"/>
<path d="M96.5 194.8C96.4 194.8 97.5 194.1 98.3 192.5C98.7 191.7 99.1 190.6 99.2 189.4C99.3 188.2 99.1 186.8 98.5 185.6C97.9 184.3 96.9 183.4 95.9 182.7C94.9 182 93.9 181.6 93 181.5C91.2 181.1 90 181.5 90 181.5C90 181.5 90.1 181.5 90.2 181.4C90.3 181.4 90.5 181.3 90.8 181.3C91.3 181.2 92.1 181.2 93 181.4C93.9 181.6 95 181.9 96 182.6C97 183.3 98 184.3 98.7 185.6C99.3 186.9 99.5 188.3 99.4 189.5C99.3 190.7 98.9 191.8 98.4 192.6C97.9 193.4 97.4 194 97.1 194.3C96.9 194.5 96.7 194.6 96.6 194.7L96.5 194.8Z" fill="#263238"/>
<path d="M74.2 190.1C74.1 190.1 74 189.1 74 187.9C73.9 186.7 73.9 185.7 74 185.7C74.1 185.7 74.2 186.7 74.2 187.9C74.3 189.1 74.3 190.1 74.2 190.1Z" fill="#263238"/>
<path d="M75.9 190.1C75.8 190.1 75.7 189.1 75.5 188C75.3 186.8 75.3 185.8 75.3 185.8C75.4 185.8 75.5 186.8 75.7 187.9C75.8 189.1 75.9 190.1 75.9 190.1Z" fill="#263238"/>
<path d="M101 148.7C101 148.8 93.6 148.8 84.4 148.8C75.3 148.8 67.8 148.7 67.8 148.7C67.8 148.7 75.2 148.6 84.4 148.6C93.6 148.6 101 148.6 101 148.7Z" fill="#263238"/>
<path d="M77 148.7C76.9 148.7 76.9 140.2 76.9 129.7C76.9 119.2 77 110.7 77 110.7C77.1 110.7 77.1 119.2 77.1 129.7C77.1 140.2 77.1 148.7 77 148.7Z" fill="#263238"/>
<path d="M72.5 148.6C72.4 148.6 72.8 140.1 73.2 129.6C73.7 119.1 74.1 110.6 74.1 110.6C74.2 110.6 73.8 119.1 73.4 129.6C72.9 140.2 72.5 148.7 72.5 148.6Z" fill="#263238"/>
<path d="M62.2 200.4C62.2 200.4 62.1 200.3 62 200.2C61.9 200.1 61.7 199.9 61.5 199.6C61.1 199.1 60.5 198.3 59.8 197.2C58.6 195.1 57.3 191.7 57.4 187.9C57.4 184.1 58.7 180.8 59.9 178.6C60.5 177.5 61.1 176.7 61.6 176.2C61.2 176.7 60.6 177.6 60 178.6C58.8 180.7 57.6 184 57.6 187.8C57.6 191.6 58.8 194.9 60 197C60.6 198.1 61.2 198.9 61.6 199.5C61.8 199.8 62 200 62.1 200.1C62.1 200.3 62.2 200.4 62.2 200.4Z" fill="#455A64"/>
<path d="M126.3 166.3L126.2 166.6L123.5 171.7L119.7 175.3L127.2 185.4L133.5 184.4C133.5 184.4 132.8 183 129.6 182.7L128.4 176.7L132.8 169.8" fill="#455A64"/>
<path d="M119.7 175.3L127.2 185.3L133.5 184.3L132.7 183.5L127.5 184L120.5 174.5L119.7 175.3Z" fill="#E0E0E0"/>
<path d="M129.2 179.8C129.2 179.9 128.8 179.7 128.3 179.8C127.8 179.9 127.5 180.2 127.4 180.1C127.3 180.1 127.6 179.6 128.2 179.5C128.8 179.4 129.2 179.8 129.2 179.8Z" fill="#263238"/>
<path d="M128.8 178.3C128.7 178.4 128.4 178 127.9 178C127.4 178 127 178.3 127 178.2C127 178.2 127 178.1 127.2 177.9C127.4 177.8 127.6 177.7 128 177.7C128.3 177.7 128.6 177.8 128.7 178C128.8 178.2 128.8 178.3 128.8 178.3Z" fill="#263238"/>
<path d="M128.5 176.4C128.4 176.4 128.2 176.1 127.7 176C127.2 175.9 126.9 176.1 126.8 176.1C126.8 176.1 126.8 176 127 175.9C127.2 175.8 127.4 175.7 127.7 175.8C128 175.9 128.2 176 128.3 176.2C128.5 176.3 128.6 176.4 128.5 176.4Z" fill="#263238"/>
<path d="M130 174.6C129.9 174.6 129.7 174.3 129.3 174.1C128.9 173.9 128.5 173.9 128.5 173.9C128.5 173.8 128.9 173.6 129.5 173.9C129.9 174.1 130 174.6 130 174.6Z" fill="#263238"/>
<path d="M130.6 173.2C130.6 173.2 130.3 173 129.9 172.6C129.7 172.4 129.5 172.2 129.2 171.9C129.1 171.8 128.9 171.7 128.8 171.4C128.7 171.3 128.7 171.1 128.8 171C128.8 170.9 129 170.7 129.1 170.7C129.4 170.7 129.6 170.8 129.7 170.9C129.9 171 130 171.1 130.2 171.3C130.5 171.6 130.6 171.9 130.7 172.2C130.9 172.7 130.7 173.1 130.7 173.1C130.6 173.1 130.7 172.8 130.5 172.3C130.4 172.1 130.3 171.8 130 171.6C129.9 171.5 129.7 171.4 129.6 171.3C129.5 171.2 129.3 171.1 129.1 171.1C129 171.1 129 171.1 129 171.2C129 171.3 129 171.3 129 171.4C129.1 171.5 129.2 171.7 129.3 171.8C129.5 172 129.7 172.3 129.9 172.5C130.4 172.9 130.6 173.2 130.6 173.2Z" fill="#263238"/>
<path d="M130.8 173.3C130.8 173.3 130.7 173 131 172.5C131.3 172.1 131.9 171.6 132.8 171.9C132.9 171.9 132.9 172 132.9 172.1C132.9 172.2 132.9 172.3 132.9 172.3C132.8 172.4 132.8 172.5 132.7 172.5C132.6 172.6 132.4 172.7 132.3 172.8C132 173 131.7 173.1 131.5 173.2C131.1 173.4 130.8 173.4 130.8 173.3C130.7 173.3 131 173.2 131.5 173.1C131.7 173 132 172.9 132.2 172.7C132.3 172.6 132.4 172.5 132.6 172.4C132.7 172.3 132.7 172.3 132.7 172.2C132.7 172.1 132.7 172.2 132.7 172.1C132.7 172.1 132.6 172.1 132.5 172.1C132.4 172.1 132.3 172.1 132.3 172.1C132.1 172.1 132 172.2 131.9 172.2C131.6 172.3 131.4 172.5 131.3 172.7C130.9 173.1 130.9 173.4 130.8 173.3Z" fill="#263238"/>
<path d="M124.7 174.3C124.8 174.7 124.5 175.1 124.1 175.2C123.7 175.3 123.3 175 123.2 174.6C123.1 174.2 123.4 173.8 123.8 173.7C124.2 173.6 124.6 173.8 124.7 174.3Z" fill="#E0E0E0"/>
<path d="M149.2 171.1L151.2 184.2L167.5 181.8C167.2 180.3 158.3 178.4 158.3 178.4L157.4 169.9L149.2 171.1Z" fill="#455A64"/>
<path d="M153.2 178.4C152.9 178.5 152.7 178.9 152.9 179.2C153 179.5 153.4 179.7 153.7 179.6C154 179.5 154.2 179 154.1 178.7C153.8 178.5 153.4 178.3 153.2 178.4Z" fill="#E0E0E0"/>
<path d="M151.2 184.2L151 182.9L166.7 181.1C166.7 181.1 167.5 181.3 167.5 181.8L151.2 184.2Z" fill="#E0E0E0"/>
<path d="M158.6 178.3C158.6 178.4 158.2 178.5 157.9 178.8C157.5 179.1 157.4 179.5 157.3 179.5C157.2 179.5 157.3 179 157.7 178.6C158.1 178.2 158.6 178.2 158.6 178.3Z" fill="#263238"/>
<path d="M160.4 178.7C160.4 178.8 160.1 179 159.9 179.3C159.7 179.7 159.7 180 159.6 180.1C159.5 180.1 159.4 179.7 159.7 179.2C159.9 178.8 160.4 178.7 160.4 178.7Z" fill="#263238"/>
<path d="M161.7 180.6C161.6 180.6 161.5 180.2 161.6 179.8C161.7 179.3 162.1 179.1 162.1 179.2C162.2 179.3 161.9 179.5 161.8 179.9C161.7 180.3 161.7 180.6 161.7 180.6Z" fill="#263238"/>
<path d="M158.1 176.4C158.1 176.5 157.7 176.4 157.2 176.5C156.8 176.6 156.4 176.8 156.4 176.7C156.3 176.6 156.6 176.3 157.2 176.2C157.8 176.1 158.2 176.3 158.1 176.4Z" fill="#263238"/>
<path d="M157.5 174.5C157.5 174.5 157.2 174.6 156.7 174.6C156.4 174.6 156.1 174.6 155.8 174.5C155.6 174.5 155.5 174.4 155.3 174.3C155.2 174.3 155.1 174.2 155 174.1C154.9 174 154.8 173.8 154.9 173.7C155 173.6 155.1 173.5 155.2 173.5C155.3 173.5 155.4 173.5 155.5 173.5C155.7 173.5 155.9 173.6 156 173.6C156.3 173.7 156.6 173.8 156.8 174C157.3 174.3 157.5 174.5 157.5 174.5C157.4 174.6 157.2 174.4 156.8 174.1C156.6 174 156.3 173.9 156 173.8C155.8 173.8 155.7 173.7 155.5 173.7C155.3 173.7 155.2 173.7 155.1 173.8C155.1 173.8 155.1 173.8 155.1 173.9C155.1 173.9 155.2 174 155.3 174C155.5 174.1 155.6 174.1 155.8 174.2C156.1 174.3 156.4 174.4 156.6 174.4C157.1 174.5 157.5 174.5 157.5 174.5Z" fill="#263238"/>
<path d="M157.4 174.6C157.4 174.6 157.2 174.4 157.1 173.8C157 173.5 157 173.2 157.1 172.9C157.1 172.7 157.2 172.6 157.2 172.4C157.3 172.2 157.4 172 157.7 171.9C157.9 171.9 158 172 158.1 172.1C158.2 172.2 158.2 172.3 158.2 172.4C158.3 172.6 158.3 172.8 158.3 173C158.3 173.4 158.2 173.7 158.1 173.9C157.8 174.4 157.5 174.5 157.5 174.5C157.5 174.5 157.7 174.3 157.9 173.8C158 173.6 158.1 173.3 158 173C158 172.8 158 172.7 157.9 172.5C157.8 172.3 157.8 172.2 157.7 172.2C157.6 172.2 157.5 172.4 157.5 172.5C157.4 172.7 157.4 172.8 157.4 173C157.3 173.3 157.3 173.6 157.4 173.8C157.3 174.3 157.4 174.6 157.4 174.6Z" fill="#263238"/>
<path d="M136.4 140.4L122.4 170.9L131.6 176.4L151 139.7" fill="#263238"/>
<path d="M159.5 177.1L149.5 178.7L143.5 142.8L113.8 145C113 145 112.2 145 111.5 144.8C103.2 142.5 104.3 131.9 105.1 130.2L146.2 129C150.7 128.9 154.5 132.1 155.1 136.5L159.5 177.1Z" fill="#263238"/>
<path d="M104.6 131.8L104.7 116.6C104.7 116.6 102.7 106.7 102.2 102.9C101.3 96.9 100.1 94 109.9 89.7L112 89H115.3C119.3 89.3 123.5 92.9 123.6 95.3L127.4 129.5L104.6 131.8Z" fill="#E8505B"/>
<path d="M105.2 93.3C105.2 93.3 102.4 99.3 103 104.7L113.4 114.7C115.7 117.3 118.6 118.4 122.4 118.6L143.9 120.9L144.5 115.3L124.1 109.5C123.3 109.4 122.9 108.5 122.3 108L105.2 93.3Z" fill="#E8505B"/>
<path d="M103.5 95C103.5 95 103.6 94.9 103.9 94.7C104.2 94.6 104.7 94.4 105.3 94.3C105.9 94.2 106.7 94.1 107.6 94.3C107.8 94.4 108.1 94.4 108.3 94.5C108.5 94.6 108.7 94.8 108.9 94.9C109.3 95.2 109.7 95.6 110.2 96C111.1 96.8 111.9 97.8 112.8 98.8C113.8 99.8 114.8 100.9 115.9 102.1C117 103.3 118.3 104.5 119.6 105.7C120.3 106.3 120.9 107 121.7 107.6C122.1 107.9 122.4 108.2 122.8 108.6C123.2 108.9 123.5 109.2 124 109.3C130.1 111 137 113 144.4 115.1H144.5V115.2C144.5 115.6 144.4 116 144.4 116.5C144.2 118 144.1 119.5 143.9 120.9V121H143.8C140.7 120.7 137.6 120.3 134.7 120C133.2 119.8 131.8 119.7 130.4 119.5C129 119.4 127.6 119.2 126.3 119.1C125 119 123.7 118.8 122.4 118.6C121.1 118.4 119.9 118.2 118.8 117.8C117.7 117.4 116.7 116.8 115.8 116.2C114.9 115.6 114.1 114.9 113.3 114.3C110.2 111.7 108 109.3 106.4 107.8C105.6 107 105 106.4 104.6 105.9C104.4 105.7 104.3 105.5 104.2 105.4C104.1 105.3 104.1 105.2 104.1 105.2C104.1 105.2 104.2 105.3 104.3 105.4C104.4 105.5 104.6 105.7 104.8 105.9C105.2 106.3 105.8 106.9 106.6 107.7C108.2 109.3 110.4 111.6 113.5 114.2C114.3 114.8 115.1 115.5 116 116.1C116.9 116.7 117.9 117.3 119 117.7C120.1 118.1 121.3 118.3 122.6 118.5C123.9 118.7 125.2 118.8 126.5 119C127.8 119.1 129.2 119.3 130.6 119.4C132 119.6 133.4 119.7 134.9 119.9C137.8 120.2 140.9 120.5 144 120.9L143.9 121C144 119.6 144.2 118.1 144.4 116.6C144.4 116.2 144.5 115.7 144.5 115.3L144.6 115.4C137.2 113.3 130.3 111.3 124.2 109.6C123.7 109.5 123.3 109.2 122.9 108.8C122.5 108.5 122.2 108.1 121.8 107.8C121.1 107.2 120.4 106.5 119.7 105.9C118.4 104.6 117.2 103.4 116 102.3C114.9 101.1 113.8 100 112.9 99C111.9 98 111.1 96.9 110.3 96.1C109.9 95.7 109.5 95.3 109.1 95C108.9 94.8 108.7 94.7 108.5 94.6C108.3 94.5 108.1 94.4 107.8 94.4C106.9 94.2 106.1 94.3 105.5 94.4C104.9 94.5 104.4 94.6 104.1 94.8C103.6 94.9 103.5 95 103.5 95Z" fill="#263238"/>
<path d="M108.8 75.8L109.8 90.6C110 93 112 94.9 114.4 94.9C117.1 94.9 119.2 92.7 119 90C118.9 88.6 118.8 87.4 118.8 87.4C118.8 87.4 122.4 86.8 122.4 83.3C122.4 81.2 122.1 76.6 121.8 73C121.6 70.6 119.6 68.7 117.1 68.7H114.9C111.3 68.8 108.5 72.1 108.8 75.8Z" fill="#FFBE9D"/>
<path d="M118.9 87.3C118.9 87.3 116.6 87.5 114.2 86C114.2 86 115.3 88.6 118.9 88.2V87.3Z" fill="#EB996E"/>
<path d="M121.1 77.5C121.1 77.8 120.9 78 120.6 78C120.3 78 120.1 77.8 120.1 77.5C120.1 77.2 120.3 77 120.6 77C120.8 77 121.1 77.2 121.1 77.5Z" fill="#263238"/>
<path d="M121.3 76.5C121.2 76.6 120.9 76.3 120.3 76.3C119.8 76.3 119.3 76.6 119.3 76.5C119.3 76.5 119.3 76.4 119.5 76.2C119.7 76.1 120 75.9 120.3 76C120.6 76 120.9 76.1 121.1 76.3C121.2 76.4 121.3 76.5 121.3 76.5Z" fill="#263238"/>
<path d="M115.9 77.5C115.9 77.8 115.7 78 115.4 78C115.1 78 114.9 77.8 114.9 77.5C114.9 77.2 115.1 77 115.4 77C115.7 77 115.9 77.2 115.9 77.5Z" fill="#263238"/>
<path d="M115.9 76.6C115.8 76.7 115.4 76.4 114.9 76.4C114.4 76.4 113.9 76.7 113.9 76.6C113.9 76.6 113.9 76.5 114.1 76.3C114.3 76.2 114.6 76 114.9 76.1C115.2 76.1 115.5 76.2 115.7 76.4C115.8 76.5 115.9 76.6 115.9 76.6Z" fill="#263238"/>
<path d="M117.9 80.7C117.9 80.7 118.2 80.6 118.8 80.5C118.9 80.5 119.1 80.5 119.1 80.4C119.1 80.3 119.1 80.1 119 80C118.9 79.7 118.7 79.3 118.6 78.9C118 77.4 117.6 76.1 117.7 76.1C117.8 76.1 118.3 77.3 118.9 78.8C119 79.2 119.2 79.5 119.3 79.9C119.4 80.1 119.4 80.2 119.4 80.5C119.4 80.6 119.3 80.7 119.2 80.7C119.1 80.7 119 80.7 119 80.7C118.2 80.7 117.9 80.7 117.9 80.7Z" fill="#263238"/>
<path d="M116.2 81.1C116.3 81.1 116.3 81.7 116.8 82.1C117.3 82.5 117.9 82.5 117.9 82.5C117.9 82.5 117.8 82.6 117.5 82.6C117.2 82.6 116.9 82.5 116.5 82.3C116.2 82 116.1 81.7 116 81.4C116.1 81.2 116.2 81.1 116.2 81.1Z" fill="#263238"/>
<path d="M116 74.5C115.9 74.6 115.4 74.6 114.8 74.7C114.2 74.8 113.6 75 113.5 74.8C113.5 74.7 113.6 74.6 113.8 74.5C114 74.4 114.3 74.2 114.7 74.2C115.1 74.2 115.4 74.2 115.7 74.3C115.9 74.3 116 74.4 116 74.5Z" fill="#263238"/>
<path d="M121.1 74.9C121 75 120.6 74.9 120.2 74.9C119.7 74.9 119.4 75 119.3 74.9C119.3 74.8 119.3 74.7 119.5 74.6C119.7 74.5 119.9 74.4 120.3 74.4C120.6 74.4 120.9 74.5 121 74.7C121.1 74.7 121.1 74.9 121.1 74.9Z" fill="#263238"/>
<path d="M110.1 78.5C110 78.5 107.6 77.8 107.7 80.2C107.8 82.6 110.2 82.1 110.2 82C110.2 81.9 110.1 78.5 110.1 78.5Z" fill="#FFBE9D"/>
<path d="M109.4 81.1C109.4 81.1 109.4 81.1 109.3 81.2C109.2 81.2 109.1 81.3 109 81.2C108.7 81.1 108.5 80.7 108.5 80.3C108.5 80.1 108.5 79.9 108.6 79.7C108.7 79.5 108.8 79.4 108.9 79.4C109 79.4 109.1 79.4 109.2 79.5C109.2 79.6 109.2 79.6 109.2 79.6C109.2 79.6 109.3 79.6 109.2 79.5C109.2 79.5 109.2 79.4 109.1 79.4C109 79.4 109 79.3 108.9 79.3C108.7 79.3 108.5 79.5 108.5 79.7C108.4 79.9 108.4 80.1 108.4 80.4C108.4 80.9 108.7 81.3 109.1 81.4C109.3 81.4 109.4 81.4 109.5 81.3C109.4 81.1 109.4 81.1 109.4 81.1Z" fill="#EB996E"/>
<path d="M108.7 78.4C109.1 78.3 109.7 78.7 109.9 79C110.1 79.3 110.1 79.7 110.3 80.1C110.5 80.4 110.8 80.8 111.2 80.7C111.5 80.6 111.6 80.4 111.7 80.1C111.8 79.8 111.7 79.6 111.7 79.3C111.6 78.2 111.3 77 111.3 75.9C111.3 74.8 111.4 73.6 112 72.6C112.6 71.6 113.7 70.9 114.9 71C115.7 71.1 116.4 71.5 117.1 71.6C118 71.7 118.9 71.4 119.6 70.8C119.7 70.7 120.1 70.5 120.1 70.5C120.1 70.4 120 69.9 119.8 69.7C118.3 68.3 115.6 67.9 113.6 68.4C111.6 68.9 109.8 70.3 108.9 72.1C108 73.9 108.2 76.5 108.7 78.4Z" fill="#263238"/>
<path d="M121.9 72.4C121.9 72.4 112.5 69.4 108.5 77.5C108.5 77.5 107.9 75.5 107.9 74.4C107.9 73.7 108.3 69.3 112.8 68C112.8 67.9 119.5 65.4 121.9 72.4Z" fill="#E8505B"/>
<path d="M113.9 72.6C114.2 73.1 114.8 73.5 115.4 73.6C116 73.7 116.7 73.4 117.1 72.9C117.3 73.4 117.8 73.7 118.3 73.7C118.8 73.7 119.3 73.3 119.4 72.8C119.7 73.1 120 73.3 120.3 73.5C120.7 73.6 121.1 73.6 121.3 73.3C121.5 73 121.5 72.5 121.2 72.2C121 71.9 120.6 71.7 120.2 71.6C119.1 71.1 117.9 70.9 116.7 71.1C115.5 71.3 114.3 71.8 113.6 72.8" fill="#263238"/>
<path d="M121.9 72.4C121.9 72.4 120.8 71.1 118.9 71C116.1 70.9 111 72.4 108.5 77.4C108.5 77.4 107.9 75.4 107.9 74.3C107.9 73.6 108.3 69.2 112.8 67.9C112.8 67.9 119.5 65.4 121.9 72.4Z" fill="black"/>
<path d="M108.9 76.5C110.3 74.4 112.2 72.6 114.4 71.3C116.6 70 120.1 68.6 122.6 68C123.3 67.8 124.1 67.6 124.9 67.8C125.7 67.9 126.4 68.4 126.6 69.2C126.8 70.1 125.2 71.6 124.4 72.1C123.6 72.7 122.1 73.5 122.1 73.5C122.1 73.5 122.1 71.8 119.4 71.4C115.5 70.8 108.9 76.5 108.9 76.5Z" fill="#E8505B"/>
<path d="M105.6 107C106.6 109.3 107.5 112.2 108.9 114.3C110.3 116.4 112.2 118.3 114.5 119.2C117.4 120.4 120.9 120.6 123.8 119.4C124 119.3 124.5 119.2 124.5 118.9C124.5 118.9 123.5 118.8 123.2 118.7C117.3 117.7 116.7 117 113.9 114.8C112.1 113.4 108.2 109.2 105.6 107Z" fill="black"/>
<path d="M124.3 123.9C124.3 123.9 124.2 124.1 124.1 124.4C123.9 124.7 123.6 125.2 123.1 125.7C122.2 126.7 120.6 127.9 118.5 128.5C116.5 129.1 114.6 129.2 113.2 129.3C112.5 129.3 112 129.3 111.6 129.3C111.2 129.3 111 129.3 111 129.3C111 129.3 111.2 129.3 111.6 129.2C112 129.2 112.6 129.1 113.2 129.1C114.6 129 116.5 128.9 118.4 128.2C120.4 127.6 122 126.5 122.9 125.5C123.9 124.7 124.2 123.9 124.3 123.9Z" fill="#263238"/>
<path d="M149.6 179.8C149.6 179.8 149.6 179.8 149.6 179.7C149.6 179.6 149.6 179.5 149.5 179.3C149.4 178.9 149.3 178.4 149.2 177.7C149 176.3 148.6 174.3 148.2 171.9C147.4 166.9 146.2 160.1 144.9 152.6C144.3 149.2 143.8 145.9 143.3 143L143.4 143.1C138.2 143.5 133.7 143.8 130.6 144C129 144.1 127.8 144.2 126.9 144.3C126.5 144.3 126.2 144.3 125.9 144.4C125.8 144.4 125.7 144.4 125.6 144.4C125.7 144.4 125.7 144.4 125.9 144.4C126.1 144.4 126.5 144.3 126.9 144.3C127.8 144.2 129 144.1 130.6 144C133.8 143.7 138.2 143.4 143.4 143H143.5V143.1C144 146.1 144.5 149.3 145.1 152.7C146.3 160.2 147.5 167.1 148.3 172C148.7 174.5 149 176.5 149.2 177.9C149.3 178.6 149.4 179.1 149.4 179.5C149.4 179.7 149.4 179.8 149.5 179.9C149.6 179.7 149.6 179.8 149.6 179.8Z" fill="#455A64"/>
<path d="M146.4 139.6C146.4 139.7 145.7 140.3 144.8 141.2C143.9 142.1 143.3 142.9 143.2 142.9C143.2 142.9 143.7 142 144.6 141.1C145.5 140.2 146.4 139.6 146.4 139.6Z" fill="#455A64"/>
<path d="M119 90.3C119 90.3 119 90.3 119.1 90.4C119.1 90.5 119.2 90.6 119.2 90.8C119.2 91.2 119.2 91.8 119 92.4C118.8 93.1 118.3 93.8 117.5 94.3C116.7 94.9 115.7 95.1 114.6 95.1C113.5 95 112.5 94.6 111.8 94.1C111.1 93.5 110.6 92.9 110.2 92.3C109.9 91.7 109.7 91.2 109.6 90.8C109.6 90.6 109.5 90.5 109.5 90.4C109.5 90.3 109.5 90.2 109.5 90.2C109.6 90.2 109.7 91.1 110.3 92.2C110.6 92.8 111.2 93.4 111.9 94C112.6 94.5 113.6 94.9 114.6 95C115.6 95.1 116.6 94.8 117.3 94.3C118 93.8 118.5 93.1 118.7 92.5C118.9 91.9 119 91.3 119 90.9C119 90.5 119 90.3 119 90.3Z" fill="#263238"/>
<path d="M125.3 109.8C125.3 109.8 125.3 109.6 125.2 109.3C125.2 108.9 125.1 108.5 125 108C124.9 106.9 124.7 105.4 124.5 103.8C124.3 102.1 124.1 100.6 124 99.6C124 99.1 123.9 98.6 123.9 98.3C123.9 98 123.9 97.8 123.9 97.8C123.9 97.8 123.9 98 124 98.3C124 98.7 124.1 99.1 124.2 99.6C124.3 100.7 124.5 102.2 124.7 103.8C124.9 105.5 125.1 107 125.2 108C125.3 108.5 125.3 109 125.3 109.3C125.3 109.6 125.3 109.8 125.3 109.8Z" fill="#263238"/>
</svg>
