<svg width="256" height="256" viewBox="0 0 256 256" fill="none" xmlns="http://www.w3.org/2000/svg">
<path d="M256 128C256 198.692 198.692 256 128 256C57.3076 256 0 198.692 0 128C0 57.3076 57.3076 0 128 0C198.692 0 256 57.3076 256 128Z" fill="#FFE3A1"/>
<path d="M142.8 188.2C139.3 185.6 131.2 194.1 128.8 197.5C123.3 205.6 118.1 227.6 118.1 227.6C118.1 227.6 133.3 215.3 139.6 205.2C141.8 201.5 146.2 190.7 142.8 188.2Z" fill="#D26F46"/>
<path d="M136.3 168C133.4 166 127 173 125.2 175.9C120.9 182.6 117.2 200.6 117.2 200.6C117.2 200.6 129.2 190.3 134.1 181.9C135.8 178.9 139.1 170 136.3 168Z" fill="#C54C27"/>
<path d="M102.9 178.7C100.6 179.7 102.5 186.3 103.6 188.6C106.2 193.8 115.8 202.8 115.8 202.8C115.8 202.8 113.9 191.5 110.6 185.3C109.4 183.1 105.2 177.7 102.9 178.7Z" fill="#C54C27"/>
<path d="M148.7 213.9C147.3 210.9 138.9 213.7 136.1 215.1C129.6 218.5 118.4 231.2 118.4 231.2C118.4 231.2 132.8 228.4 140.5 223.9C143.4 222.4 150.1 216.8 148.7 213.9Z" fill="#C54C27"/>
<path d="M137 181C135.2 178.8 128.8 182.8 126.8 184.6C122.1 188.8 115.4 201.7 115.4 201.7C115.4 201.7 126.8 196.4 132.3 191.1C134.3 189.1 138.7 183.1 137 181Z" fill="#D26F46"/>
<path d="M103.6 201.2C101.2 202.2 103.2 208.9 104.4 211.1C107 216.3 116.8 225.4 116.8 225.4C116.8 225.4 114.9 214 111.5 207.9C110.2 205.6 105.9 200.2 103.6 201.2Z" fill="#D26F46"/>
<path d="M97.7 212.6C95.2 214.5 99.3 221.8 101.2 224.1C105.6 229.5 119.6 237.6 119.6 237.6C119.6 237.6 114.3 224.7 108.6 218.4C106.6 216 100.1 210.7 97.7 212.6Z" fill="#C54C27"/>
<path d="M123.4 149.2C118.5 148.1 113.9 160.7 113.1 165.4C111.1 176.4 115.7 201.8 115.7 201.8C115.7 201.8 125.9 181.9 127.8 168.4C128.5 163.6 128.2 150.3 123.4 149.2Z" fill="#D26F46"/>
<path d="M101.8 231.9C101.1 233.5 105.2 235.9 106.8 236.4C110.5 237.8 119.5 237.7 119.5 237.7C119.5 237.7 113.2 233 108.7 231.5C107.1 231 102.5 230.3 101.8 231.9Z" fill="#D26F46"/>
<path d="M120.5 246.9C119.9 243.3 119.2 239.6 118.6 236L117.8 230.5C117.5 228.7 117.3 226.8 117.1 225C116.7 221.3 116.3 217.6 116.1 213.9C116 212.1 115.8 210.2 115.7 208.4L115.5 202.8C115.3 195.4 115.4 188 116 180.6C116.3 176.9 116.7 173.2 117.3 169.5C117.9 165.8 118.5 162.2 119.6 158.6C119.7 158.3 120 158.1 120.4 158.2C120.7 158.3 120.9 158.6 120.8 159C119.8 162.5 119.1 166.1 118.5 169.7C117.9 173.3 117.5 177 117.2 180.7C116.6 188 116.4 195.4 116.5 202.8L116.7 208.3C116.8 210.1 116.9 212 117 213.8C117.2 217.5 117.6 221.2 118 224.8C118.2 226.6 118.4 228.5 118.7 230.3L119.4 235.8C120 239.4 120.6 243.1 121.2 246.7C121.2 246.9 121.1 247.1 120.9 247.1C120.7 247.2 120.5 247.1 120.5 246.9Z" fill="#334250"/>
<path d="M115.6 201.6C115.5 201.5 115.5 201.3 115.6 201.2L132.3 184.9C132.4 184.8 132.6 184.8 132.7 184.9C132.8 185 132.8 185.2 132.7 185.3L116 201.6C115.9 201.7 115.7 201.7 115.6 201.6Z" fill="#334250"/>
<path d="M117.8 227.8C117.7 227.7 117.7 227.5 117.8 227.4L138.6 194.2C138.7 194.1 138.9 194 139 194.1C139.1 194.2 139.2 194.4 139.1 194.5L118.3 227.7C118.2 227.9 118 228 117.8 227.8Z" fill="#334250"/>
<path d="M117.5 226.9L104.7 203.7C104.6 203.5 104.7 203.4 104.8 203.3C105 203.2 105.1 203.3 105.2 203.4L117.9 226.6C118 226.8 117.9 226.9 117.8 227C117.8 227.1 117.6 227 117.5 226.9Z" fill="#334250"/>
<path d="M105.4 233.9C105.3 233.8 105.3 233.6 105.4 233.5C105.5 233.4 105.7 233.3 105.8 233.4C107.8 234.9 115.8 235.7 118.2 235.9L99.7 216.8C99.6 216.7 99.6 216.5 99.7 216.4C99.8 216.3 100 216.3 100.1 216.4L118.5 235.5C118.7 235.7 118.7 236 118.6 236.2C118.5 236.4 118.2 236.6 118 236.6C115 236.2 107.5 235.5 105.4 233.9Z" fill="#334250"/>
<path d="M67.3 214.4C67.3 214.4 54.8 215.8 55.1 230.8C55.1 230.8 68.3 226.7 67.3 214.4Z" fill="#C54C27"/>
<path d="M64.5 217.7L55.2 230.9C55.1 231 55 231 54.9 230.9C54.8 230.8 54.8 230.7 54.9 230.6L64.2 217.4C64.3 217.3 64.4 217.3 64.5 217.4C64.6 217.5 64.6 217.6 64.5 217.7Z" fill="#334250"/>
<path d="M58.8 225.9C58.8 225.9 58.7 226 58.6 226C58.5 226 58.4 225.9 58.4 225.8L58.1 221.6C58.1 221.5 58.2 221.4 58.3 221.4C58.4 221.4 58.5 221.5 58.5 221.6L58.8 225.9Z" fill="#334250"/>
<path d="M65 220.4L64.9 220.5L62.2 221.1C62.1 221.1 62 221.1 62 220.9C62 220.8 62 220.7 62.2 220.7L64.9 220.1C65 220.1 65.1 220.1 65 220.4C65 220.3 65 220.2 65 220.4Z" fill="#334250"/>
<path d="M68.1 227.2C68.1 227.2 61 223 55.2 230.9C55.2 230.9 63.8 234 68.1 227.2Z" fill="#D26F46"/>
<path d="M65.5 227.8L65.4 227.9L55.3 231.1C55.2 231.1 55.1 231.1 55 231C55 230.9 55 230.8 55.1 230.7L65.2 227.5C65.3 227.5 65.4 227.5 65.5 227.6C65.5 227.7 65.5 227.8 65.5 227.8Z" fill="#334250"/>
<path d="M59.2 229.8C59.1 229.9 59 229.9 58.9 229.9C58.8 229.8 58.8 229.7 58.8 229.6L60.3 227.3C60.4 227.2 60.5 227.2 60.6 227.2C60.7 227.3 60.7 227.4 60.7 227.5L59.2 229.8Z" fill="#334250"/>
<path d="M64.7 229.3C64.6 229.4 64.5 229.4 64.5 229.4L62.8 228.6C62.7 228.6 62.7 228.4 62.7 228.3C62.7 228.2 62.9 228.2 63 228.2L64.7 229C64.7 229.1 64.7 229.2 64.7 229.3Z" fill="#334250"/>
<path d="M44.9 213.1C44.9 213.1 57.2 216 55.1 230.8C55.1 230.8 42.4 225.1 44.9 213.1Z" fill="#C54C27"/>
<path d="M55.3 230.9C55.1 231 55 231 55 230.9L47.3 216.7C47.2 216.6 47.3 216.5 47.4 216.4C47.5 216.3 47.6 216.4 47.7 216.5L55.4 230.7C55.3 230.8 55.3 230.8 55.3 230.9Z" fill="#334250"/>
<path d="M52.4 225.5C52.4 225.6 52.3 225.6 52.2 225.6C52.1 225.6 52 225.5 52 225.4L52.8 221.3C52.8 221.2 52.9 221.1 53 221.1C53.1 221.1 53.2 221.2 53.2 221.3L52.4 225.5Z" fill="#334250"/>
<path d="M49.5 220.2C49.4 220.3 49.4 220.3 49.3 220.3L46.7 219.4C46.6 219.4 46.5 219.2 46.6 219.1C46.6 219 46.8 218.9 46.9 219L49.5 219.9C49.5 219.9 49.5 220 49.5 220.2Z" fill="#334250"/>
<path d="M42.6 225.6C42.6 225.6 50.2 222.2 55 230.8C55 230.8 46.1 232.9 42.6 225.6Z" fill="#D26F46"/>
<path d="M55.2 231C55.1 231.1 55 231.1 55 231.1L45.3 226.7C45.2 226.7 45.2 226.5 45.2 226.4C45.2 226.3 45.4 226.3 45.5 226.3L55.2 230.7C55.2 230.7 55.2 230.8 55.2 231C55.2 230.9 55.2 230.9 55.2 231Z" fill="#334250"/>
<path d="M51.5 229.3C51.3 229.4 51.2 229.4 51.2 229.3L50 226.8C50 226.7 50 226.6 50.1 226.5C50.2 226.5 50.3 226.5 50.4 226.6L51.6 229.1C51.5 229.2 51.5 229.2 51.5 229.3Z" fill="#334250"/>
<path d="M47.8 227.7L47.7 227.8L46 228.3C45.9 228.3 45.8 228.3 45.7 228.2C45.7 228.1 45.7 228 45.8 227.9L47.5 227.4C47.6 227.4 47.7 227.4 47.8 227.5C47.9 227.5 47.9 227.6 47.8 227.7Z" fill="#334250"/>
<path d="M38.7 197.5C38.7 201.4 38.8 205.2 39.1 209.1C39.4 213 39.9 216.8 40.5 220.6C41.2 224.4 42 228.2 43.1 231.9C44.3 235.6 45.7 239.1 47.4 242.5C47.7 243 47.5 243.6 47 243.9C46.5 244.2 45.9 244 45.6 243.5C43.8 239.9 42.4 236.2 41.3 232.4C40.3 228.6 39.5 224.8 38.8 220.9C38.2 217 37.8 213.1 37.6 209.2C37.4 205.3 37.3 201.4 37.4 197.5C37.4 197.2 37.7 196.9 38 196.9C38.4 196.9 38.7 197.2 38.7 197.5Z" fill="#2F5484"/>
<path d="M164.9 229.7C164.9 229.7 183.9 228.8 173.5 208.2C173.4 208 168.7 210.2 168.2 210.5C166.3 211.6 164.7 213.3 163.7 215.2C162 218.7 162.5 222.1 163.5 225.6C163.7 226 164.4 229.7 164.9 229.7Z" fill="#D26F46"/>
<path d="M159.5 235.2C161.2 233.3 162.7 231.2 164.2 229.1C165.7 227 167.1 224.8 168.4 222.6C169.6 220.4 170.8 218.1 171.7 215.6C172.6 213.2 173.2 210.7 173.3 208.1C173.3 208 173.4 207.9 173.6 207.9C173.7 207.9 173.8 208 173.8 208.1C173.8 210.7 173.2 213.3 172.4 215.8C171.6 218.3 170.5 220.7 169.3 223C168.1 225.3 166.7 227.5 165.3 229.7C163.8 231.9 162.3 234 160.7 236C160.5 236.3 160 236.3 159.7 236.1C159.3 236 159.2 235.5 159.5 235.2Z" fill="#334250"/>
<path d="M172.2 223.9C172.3 223.9 172.5 223.9 172.6 224.1C172.7 224.3 172.6 224.5 172.5 224.6L166.4 227.9C166.2 228 166 227.9 165.9 227.8C165.8 227.6 165.9 227.4 166 227.3L172.2 223.9C172.1 223.9 172.1 223.9 172.2 223.9Z" fill="#334250"/>
<path d="M166.1 214.6C166.3 214.6 166.5 214.7 166.5 214.9L168.6 223.6C168.6 223.8 168.5 224 168.3 224C168.1 224.1 167.9 223.9 167.9 223.7L165.8 215C165.8 214.8 165.9 214.6 166.1 214.6Z" fill="#334250"/>
<path d="M174.9 214.7C175 214.7 175.2 214.7 175.3 214.8C175.4 215 175.4 215.2 175.2 215.3L171.7 217.7C171.5 217.8 171.3 217.8 171.2 217.6C171.1 217.4 171.1 217.2 171.3 217.1L174.8 214.7C174.8 214.7 174.8 214.7 174.9 214.7Z" fill="#334250"/>
<path d="M65.7 205.6C68.4 208.5 71.5 211 75 212.9C75.9 213.4 76.8 213.8 77.8 213.9C81.9 214.2 80.9 209.2 80.2 206.8C79.5 204.2 78.2 201.7 76.5 199.6C72.1 194.1 65.4 190.7 58.8 188.6C55.7 187.6 58 192.3 58.4 193.5C59.4 196.3 60.7 198.9 62.4 201.3C63.4 202.8 64.5 204.3 65.7 205.6Z" fill="#2F5484"/>
<path d="M80.3 213.2C80.3 213.1 80.3 213 80.2 213C77.7 208.7 74.8 204.7 71.4 200.9C69.8 199.1 68 197.3 66.2 195.6C65.3 194.8 64.3 193.9 63.4 193.2C63.1 193 62.8 192.7 62.5 192.5C61.9 192.1 61.3 191.6 60.9 191.2C60.7 190.9 60.3 190.9 60.1 191.1C59.8 191.3 59.8 191.7 60 191.9C60.5 192.5 61.2 193 61.8 193.5C62.1 193.7 62.4 193.9 62.6 194.1C63.5 194.9 64.5 195.7 65.4 196.5C67.2 198.1 68.9 199.9 70.5 201.7C73.8 205.4 76.6 209.3 79.1 213.6C79.3 213.9 79.6 214 79.9 213.8C80.2 213.6 80.3 213.4 80.3 213.2Z" fill="#F5EAE2"/>
<path d="M91.9 199.5C89.6 200.5 87.1 201.1 84.6 201.3C84 201.3 83.3 201.4 82.7 201.1C80.3 200.2 82.2 197.6 83.2 196.4C84.3 195.1 85.7 194 87.3 193.2C91.3 191.2 96.1 191 100.5 191.4C102.6 191.6 100 193.8 99.4 194.4C98.1 195.7 96.6 196.9 95 197.9C94 198.5 93 199.1 91.9 199.5Z" fill="#2F5484"/>
<path d="M99.2 192.6C99.2 192.5 99.2 192.5 99.1 192.4C98.9 192.1 98.6 192 98.3 192.2C98 192.4 97.5 192.5 97.1 192.5C96.8 192.5 96.6 192.6 96.4 192.7C95.6 192.9 94.9 193.1 94.1 193.4C92.6 193.9 91.1 194.5 89.6 195.1C86.7 196.4 83.9 198 81.3 199.8C81 200 81 200.4 81.2 200.6C81.4 200.9 81.8 200.9 82 200.7C84.5 198.9 87.2 197.4 90.1 196.1C91.5 195.5 93 194.9 94.4 194.4C95.1 194.2 95.9 193.9 96.6 193.7C96.8 193.6 97 193.6 97.2 193.6C97.7 193.5 98.3 193.4 98.7 193.1C99.1 193.1 99.2 192.8 99.2 192.6Z" fill="#F5EAE2"/>
<path d="M82.8 163.1C83 169.7 82.9 176.4 82.5 183.1C82.1 189.8 81.5 196.4 80.5 203C79.4 209.6 78.2 216.1 76.4 222.5C74.5 228.9 72.3 235.1 69.3 240.9C68.9 241.8 69.2 242.8 70.1 243.3C71 243.7 72 243.4 72.5 242.5C75.5 236.3 77.7 229.9 79.5 223.3C81.2 216.7 82.4 210.1 83.3 203.4C84.2 196.7 84.7 190 85 183.2C85.3 176.5 85.3 169.7 85 163C85 162.4 84.5 162 83.9 162C83.3 162 82.8 162.5 82.8 163.1Z" fill="#2F5484"/>
<path d="M88.3 151.6C88.3 151.6 105.2 132.9 103.7 125.4C103.5 124.3 102.7 123.4 101.6 123C100.2 122.4 97.8 121.8 95.6 123.8C95.6 123.8 94.3 117.9 89.7 119.4C85.1 120.9 82.1 148.9 82.1 148.9L88.3 151.6Z" fill="#D86F88"/>
<path d="M79.3 155.5C79.3 155.5 59.9 171.5 60.3 179.2C60.4 180.3 61 181.3 62 181.9C63.3 182.7 65.6 183.6 68.1 182C68.1 182 68.5 188 73.3 187.2C78.1 186.4 85.1 159.1 85.1 159.1L79.3 155.5Z" fill="#D86F88"/>
<path d="M83 158.5C83 158.5 87.5 183.3 94.4 186.6C95.4 187.1 96.6 187 97.6 186.4C98.9 185.7 100.9 184.1 100.6 181.1C100.6 181.1 106 183.7 107.6 179.1C109.2 174.5 88.8 155.2 88.8 155.2L83 158.5Z" fill="#D86F88"/>
<path d="M86.4 157.3C86.4 157.3 111.4 160.5 116.6 154.9C117.4 154.1 117.6 152.9 117.4 151.8C117.1 150.3 116.2 148 113.3 147.3C113.3 147.3 117.4 142.9 113.5 140C109.6 137.1 84.9 150.7 84.9 150.7L86.4 157.3Z" fill="#D86F88"/>
<path d="M82.7 148.5C82.7 148.5 75.7 124.3 68.5 121.8C67.4 121.4 66.3 121.6 65.4 122.3C64.2 123.1 62.4 124.9 62.9 127.9C62.9 127.9 57.3 125.9 56.1 130.6C55 135.3 77.2 152.5 77.2 152.5L82.7 148.5Z" fill="#D86F88"/>
<path d="M79.5 150.7C79.5 150.7 55.8 142.2 49.5 146.5C48.6 147.1 48.1 148.2 48.1 149.3C48.1 150.8 48.5 153.3 51.2 154.6C51.2 154.6 46.3 158 49.4 161.7C52.6 165.4 79.6 157.5 79.6 157.5L79.5 150.7Z" fill="#D86F88"/>
<path d="M77.3 151.3C75.5 154.8 76.9 159 80.4 160.8C83.9 162.6 88.1 161.2 89.9 157.7C91.7 154.2 90.3 150 86.8 148.2C83.3 146.4 79.1 147.8 77.3 151.3Z" fill="#F5EAE2"/>
<path d="M92.1 140.2L88 147.3C88 147.4 88 147.4 88 147.5C88.1 147.5 88.1 147.5 88.1 147.5L92.9 140.9C93.1 140.6 93 140.3 92.8 140.1C92.7 139.8 92.4 139.9 92.1 140.2C92.2 140.2 92.2 140.2 92.1 140.2Z" fill="#F5EAE2"/>
<path d="M87.7 138.8L86 146.8C86 146.9 86 146.9 86.1 146.9C86.2 146.9 86.2 146.9 86.2 146.8L88.8 139.1C88.9 138.8 88.7 138.5 88.4 138.4C88.2 138.2 87.8 138.4 87.7 138.8C87.7 138.7 87.7 138.7 87.7 138.8Z" fill="#F5EAE2"/>
<path d="M74 167.6L77.9 162.2C77.9 162.1 77.9 162.1 77.9 162H77.8L73.2 166.8C73 167 73 167.4 73.2 167.6C73.4 167.9 73.7 167.9 74 167.6C74 167.7 74 167.7 74 167.6Z" fill="#F5EAE2"/>
<path d="M77.5 169.2L79.5 162.9C79.5 162.8 79.5 162.8 79.4 162.8C79.3 162.8 79.3 162.8 79.3 162.9L76.4 168.9C76.3 169.2 76.4 169.5 76.7 169.7C76.9 169.7 77.3 169.5 77.5 169.2Z" fill="#F5EAE2"/>
<path d="M90.7 167.2L87 161.8C87 161.7 86.9 161.7 86.8 161.8C86.8 161.8 86.7 161.9 86.8 161.9L89.7 167.7C89.8 168 90.2 168.1 90.5 168C90.8 167.9 90.9 167.6 90.7 167.2C90.7 167.3 90.7 167.3 90.7 167.2Z" fill="#F5EAE2"/>
<path d="M93.3 164.5L88.1 160.5C88.1 160.5 88 160.5 87.9 160.5V160.6L92.4 165.3C92.6 165.5 93 165.5 93.2 165.3C93.6 165.2 93.6 164.8 93.3 164.5Z" fill="#F5EAE2"/>
<path d="M74.8 139.2L78.5 146C78.5 146.1 78.6 146.1 78.7 146C78.8 146 78.8 145.9 78.8 145.9L75.9 138.7C75.8 138.4 75.4 138.3 75.1 138.4C74.8 138.5 74.7 138.8 74.8 139.2C74.8 139.1 74.8 139.1 74.8 139.2Z" fill="#F5EAE2"/>
<path d="M71.5 142.1L77.1 147.4C77.1 147.4 77.2 147.4 77.3 147.4C77.3 147.4 77.3 147.3 77.3 147.2L72.4 141.2C72.2 141 71.8 140.9 71.6 141.1C71.2 141.5 71.2 141.8 71.5 142.1C71.4 142.1 71.4 142.1 71.5 142.1Z" fill="#F5EAE2"/>
<path d="M66.5 152.3L73.6 153.1C73.7 153.1 73.7 153.1 73.7 153C73.7 152.9 73.7 152.9 73.6 152.9L66.7 151.1C66.4 151 66.1 151.2 66 151.5C65.9 151.8 66.1 152.2 66.5 152.3C66.4 152.3 66.4 152.3 66.5 152.3Z" fill="#F5EAE2"/>
<path d="M66.9 156.3L73.9 154.9C74 154.9 74 154.8 74 154.8C74 154.7 73.9 154.7 73.9 154.7L66.8 155.1C66.5 155.1 66.2 155.4 66.2 155.7C66.2 156.1 66.5 156.4 66.9 156.3Z" fill="#F5EAE2"/>
<path d="M100.4 153.8L92.3 153.1C92.2 153.1 92.2 153.1 92.2 153.2C92.2 153.3 92.2 153.3 92.3 153.3L100.2 154.9C100.5 155 100.8 154.8 100.9 154.4C101 154 100.8 153.8 100.4 153.8C100.5 153.8 100.5 153.8 100.4 153.8Z" fill="#F5EAE2"/>
<path d="M99.9 149.2L92 151C91.9 151 91.9 151.1 91.9 151.1C91.9 151.2 92 151.2 92 151.2L100.1 150.4C100.4 150.4 100.7 150.1 100.6 149.8C100.6 149.3 100.3 149.1 99.9 149.2Z" fill="#F5EAE2"/>
<path d="M78.6 151.9C77.2 154.7 78.3 158.1 81.1 159.5C83.9 160.9 87.3 159.8 88.7 157C90.1 154.2 89 150.8 86.2 149.4C83.4 148 80 149.1 78.6 151.9Z" fill="#E9B9C9"/>
<path d="M158.8 205.9C158.8 209.4 158.9 213 159.2 216.6C159.5 220.2 159.9 223.7 160.5 227.2C161.1 230.7 161.9 234.2 162.9 237.6C164 241 165.3 244.3 166.9 247.4C167.1 247.9 167 248.4 166.5 248.7C166 248.9 165.5 248.8 165.2 248.3C163.5 245 162.3 241.6 161.3 238.1C160.3 234.6 159.6 231.1 159 227.5C158.5 223.9 158.1 220.3 157.9 216.7C157.7 213.1 157.6 209.5 157.7 205.9C157.7 205.6 158 205.4 158.3 205.4C158.6 205.3 158.8 205.6 158.8 205.9Z" fill="#2F5484"/>
<path d="M167.5 199.7C164.5 199.7 159.1 196.1 155.9 193.7C154.6 192.8 154.6 190.8 155.9 189.9C159.1 187.6 164.5 183.9 167.5 183.9C171.8 183.9 175.4 187.4 175.4 191.8C175.3 196.2 171.8 199.7 167.5 199.7Z" fill="#E9B9C9"/>
<path d="M148.9 184C151.9 184 157.3 187.6 160.5 190C161.8 190.9 161.8 192.9 160.5 193.8C157.3 196.1 151.9 199.8 148.9 199.8C144.6 199.8 141 196.3 141 191.9C141 187.5 144.5 184 148.9 184Z" fill="#E9B9C9"/>
<path d="M150.3 201.2C150.3 198.2 153.9 192.8 156.3 189.6C157.2 188.3 159.2 188.3 160.1 189.6C162.4 192.8 166.1 198.2 166.1 201.2C166.1 205.5 162.6 209.1 158.2 209.1C153.8 209 150.3 205.5 150.3 201.2Z" fill="#E9B9C9"/>
<path d="M166.1 182.6C166.1 185.6 162.5 191 160.1 194.2C159.2 195.5 157.2 195.5 156.3 194.2C154 191 150.3 185.6 150.3 182.6C150.3 178.3 153.8 174.7 158.2 174.7C162.5 174.7 166.1 178.2 166.1 182.6Z" fill="#E9B9C9"/>
<path d="M158.9 200.3C157.5 198.9 156.6 194.5 156.2 191.8C156 190.7 157 189.8 158.1 189.9C160.8 190.3 165.2 191.2 166.6 192.6C168.7 194.7 168.7 198.1 166.6 200.3C164.4 202.4 161 202.4 158.9 200.3Z" fill="#D86F88"/>
<path d="M157.5 183.6C158.9 185 159.8 189.4 160.2 192.1C160.4 193.2 159.4 194.1 158.3 194C155.6 193.6 151.2 192.7 149.8 191.3C147.7 189.2 147.7 185.8 149.8 183.6C152 181.5 155.4 181.5 157.5 183.6Z" fill="#D86F88"/>
<path d="M149.8 192.6C151.2 191.2 155.6 190.3 158.3 189.9C159.4 189.7 160.3 190.7 160.2 191.8C159.8 194.5 158.9 198.9 157.5 200.3C155.4 202.4 152 202.4 149.8 200.3C147.7 198.1 147.7 194.7 149.8 192.6Z" fill="#D86F88"/>
<path d="M166.5 191.2C165.1 192.6 160.7 193.5 158 193.9C156.9 194.1 156 193.1 156.1 192C156.5 189.3 157.4 184.9 158.8 183.5C160.9 181.4 164.3 181.4 166.5 183.5C168.6 185.7 168.6 189.1 166.5 191.2Z" fill="#D86F88"/>
<path d="M158.2 195.8C160.409 195.8 162.2 194.009 162.2 191.8C162.2 189.591 160.409 187.8 158.2 187.8C155.991 187.8 154.2 189.591 154.2 191.8C154.2 194.009 155.991 195.8 158.2 195.8Z" fill="#F5EAE2"/>
<path d="M164.3 189.5L162.5 189.6C162.4 189.6 162.4 189.6 162.4 189.5C162.4 189.5 162.4 189.4 162.5 189.4L164 188.4C164.3 188.2 164.7 188.3 164.8 188.6C165 188.9 164.9 189.3 164.6 189.4C164.5 189.4 164.4 189.5 164.3 189.5Z" fill="#F5EAE2"/>
<path d="M163.7 187.5L162.1 188.3C162 188.3 162 188.3 161.9 188.2V188.1L162.9 186.6C163.1 186.3 163.5 186.2 163.7 186.4C163.9 186.6 164.1 187 163.9 187.2C163.9 187.4 163.8 187.5 163.7 187.5Z" fill="#F5EAE2"/>
<path d="M162.2 186.3L161.2 187.9C161.2 188 161.1 188 161 187.9L160.9 187.8V186C160.9 185.7 161.2 185.4 161.5 185.4C161.8 185.4 162.1 185.7 162.1 186C162.2 186.1 162.2 186.2 162.2 186.3Z" fill="#F5EAE2"/>
<path d="M151.6 194.7L153.4 194.6C153.5 194.6 153.5 194.6 153.5 194.7C153.5 194.7 153.5 194.8 153.4 194.8L151.9 195.8C151.6 196 151.2 195.9 151.1 195.6C150.9 195.3 151 194.9 151.3 194.8C151.4 194.8 151.5 194.8 151.6 194.7Z" fill="#F5EAE2"/>
<path d="M152.2 196.7L153.8 195.9C153.9 195.9 153.9 195.9 154 196V196.1L153 197.6C152.8 197.9 152.4 198 152.2 197.8C151.9 197.6 151.8 197.2 152 197C152 196.8 152.1 196.8 152.2 196.7Z" fill="#F5EAE2"/>
<path d="M153.7 197.9L154.7 196.3C154.7 196.2 154.8 196.2 154.9 196.3L155 196.4V198.2C155 198.5 154.7 198.8 154.4 198.8C154.1 198.8 153.8 198.5 153.8 198.2C153.7 198.1 153.7 198 153.7 197.9Z" fill="#F5EAE2"/>
<path d="M162.1 198L161.6 196.2C161.6 196.1 161.6 196.1 161.7 196.1H161.8L163.1 197.4C163.3 197.6 163.3 198 163.1 198.3C162.9 198.5 162.5 198.5 162.2 198.3C162.2 198.2 162.1 198.1 162.1 198Z" fill="#F5EAE2"/>
<path d="M163.9 197.1L162.7 195.7C162.7 195.6 162.7 195.6 162.7 195.5H162.8L164.5 196.2C164.8 196.3 165 196.7 164.8 197C164.7 197.3 164.3 197.5 164 197.3C164.1 197.2 164 197.2 163.9 197.1Z" fill="#F5EAE2"/>
<path d="M164.8 195.3L163.1 194.7C163 194.7 163 194.6 163 194.6C163 194.6 163 194.5 163.1 194.5L164.9 194.2C165.2 194.1 165.5 194.4 165.6 194.7C165.7 195 165.4 195.3 165.1 195.4C165 195.3 164.9 195.3 164.8 195.3Z" fill="#F5EAE2"/>
<path d="M154.6 184.8L155.1 186.6C155.1 186.7 155.1 186.7 155 186.7H154.9L153.6 185.4C153.4 185.2 153.4 184.8 153.6 184.5C153.8 184.3 154.2 184.3 154.5 184.5C154.6 184.6 154.6 184.7 154.6 184.8Z" fill="#F5EAE2"/>
<path d="M152.8 185.8L154 187.2C154 187.3 154 187.3 154 187.4H153.9L152.2 186.7C151.9 186.6 151.7 186.2 151.9 185.9C152 185.6 152.4 185.4 152.7 185.6C152.7 185.6 152.8 185.7 152.8 185.8Z" fill="#F5EAE2"/>
<path d="M152 187.6L153.7 188.2C153.8 188.2 153.8 188.3 153.8 188.3C153.8 188.3 153.8 188.4 153.7 188.4L151.9 188.7C151.6 188.8 151.3 188.5 151.2 188.2C151.1 187.9 151.4 187.6 151.7 187.5C151.8 187.5 151.9 187.5 152 187.6Z" fill="#F5EAE2"/>
<path d="M222.4 227.8C222.4 227.8 251.1 207.9 243 198.6C234.8 189.1 222.4 227.8 222.4 227.8Z" fill="#D26F46"/>
<path d="M225.5 197.8C225.5 197.8 254.2 177.9 246.1 168.6C237.9 159.3 225.5 197.8 225.5 197.8Z" fill="#D26F46"/>
<path d="M226.1 190.7C226.1 190.7 232.3 141.2 214.6 141C196.8 140.8 226.1 190.7 226.1 190.7Z" fill="#D26F46"/>
<path d="M225.8 199.9C225.8 199.9 197.6 179.1 206.1 170.1C214.5 160.9 225.8 199.9 225.8 199.9Z" fill="#D26F46"/>
<path d="M222.5 228.4C222.5 228.4 194.6 207.4 203.2 198.4C211.7 189.3 222.5 228.4 222.5 228.4Z" fill="#D26F46"/>
<path d="M218.5 151.9C219.6 155.6 220.6 159.3 221.4 163.1C222.2 166.9 222.9 170.7 223.5 174.5C224.6 182.1 225.2 189.9 225.1 197.6C225.1 205.3 224.5 213.1 223.3 220.7C222.1 228.3 220.1 235.8 217.4 243C217.2 243.4 217.4 243.8 217.9 244C218.3 244.2 218.7 244 218.9 243.5C221.5 236.2 223.5 228.5 224.7 220.9C225.9 213.2 226.5 205.4 226.5 197.6C226.5 189.9 225.9 182 224.7 174.3C224.1 170.4 223.4 166.6 222.6 162.8C221.7 159 220.8 155.2 219.6 151.5C219.6 151.2 219.2 151 219 151.2C218.5 151.3 218.4 151.7 218.5 151.9Z" fill="#2F5484"/>
<path d="M242 174.4C242 174.4 232.3 188.9 225.5 197.8L242 174.4Z" fill="#70A03A"/>
<path d="M225.1 197.6C225 197.8 225 198 225.2 198.1C225.4 198.2 225.6 198.2 225.7 198C232.4 189.2 242.1 174.8 242.2 174.6C242.3 174.4 242.3 174.2 242.1 174.1C241.9 174 241.7 174 241.6 174.2C241.6 174.3 231.8 188.9 225.1 197.6Z" fill="#2F5484"/>
<path d="M209.9 175.2C209.9 175.2 221.8 194.4 225.7 199.8L209.9 175.2Z" fill="#70A03A"/>
<path d="M209.6 175C209.5 175.1 209.5 175.3 209.6 175.4C209.8 175.6 221.5 194.7 225.4 200.1C225.6 200.3 225.8 200.3 226 200.2C226.1 200 226.2 199.8 226.1 199.6C222.2 194.3 210.4 175.2 210.3 175C210.1 174.8 209.9 174.7 209.7 174.9C209.7 175 209.7 175 209.6 175Z" fill="#2F5484"/>
<path d="M239.7 203.2C239.7 203.2 231.4 216.9 222.3 227.7L239.7 203.2Z" fill="#70A03A"/>
<path d="M222.1 227.5C222 227.7 222 227.9 222.2 228C222.4 228.1 222.6 228.1 222.7 227.9C231.6 217.1 240 203.4 240.1 203.3C240.2 203.1 240.2 202.9 240 202.8C239.8 202.7 239.6 202.7 239.5 202.9C239.3 203.1 231.1 216.8 222.1 227.5Z" fill="#2F5484"/>
<path d="M207 203C207 203 215.4 219.3 222.5 228.4L207 203Z" fill="#70A03A"/>
<path d="M206.6 202.8C206.6 202.9 206.5 203.1 206.6 203.2C206.7 203.3 215.1 219.6 222.2 228.7C222.4 228.8 222.6 228.9 222.8 228.8C222.9 228.6 223 228.4 222.9 228.2C215.9 219.3 207.5 203 207.4 202.9C207.3 202.7 207 202.6 206.8 202.7C206.7 202.6 206.6 202.7 206.6 202.8Z" fill="#2F5484"/>
<path d="M181.7 215C183.7 217.2 186.1 219.1 188.8 220.6C189.5 221 190.2 221.3 190.9 221.4C194 221.6 193.2 217.8 192.8 216C192.3 214 191.3 212.1 190 210.5C186.6 206.3 181.5 203.7 176.5 202C174.1 201.2 175.9 204.9 176.2 205.7C177 207.8 178 209.8 179.2 211.7C179.9 212.9 180.8 214 181.7 215Z" fill="#2F5484"/>
<path d="M192.8 220.9C192.8 220.8 192.8 220.8 192.7 220.7C190.8 217.4 188.6 214.3 186.1 211.5C184.8 210.1 183.5 208.7 182.1 207.5C181.4 206.9 180.7 206.2 180 205.6C179.8 205.4 179.5 205.3 179.3 205.1C178.8 204.8 178.4 204.4 178.1 204.1C178 203.9 177.7 203.9 177.5 204C177.3 204.1 177.3 204.4 177.4 204.6C177.8 205.1 178.3 205.5 178.8 205.8C179 206 179.3 206.1 179.4 206.3C180.1 206.9 180.8 207.5 181.5 208.1C182.9 209.4 184.2 210.7 185.4 212.1C187.9 214.9 190.1 217.9 191.9 221.2C192 221.4 192.3 221.5 192.5 221.4C192.7 221.2 192.8 221 192.8 220.9Z" fill="#F5EAE2"/>
<path d="M201.8 210.4C200 211.2 198.1 211.6 196.2 211.8C195.7 211.8 195.2 211.8 194.8 211.7C192.9 211 194.4 209 195.1 208.1C195.9 207.1 197 206.2 198.2 205.7C201.3 204.2 204.9 204 208.3 204.4C209.9 204.6 207.9 206.2 207.5 206.7C206.5 207.7 205.4 208.6 204.2 209.4C203.4 209.7 202.6 210.1 201.8 210.4Z" fill="#2F5484"/>
<path d="M207.3 205.2C207.3 205.1 207.3 205.1 207.2 205C207.1 204.8 206.8 204.7 206.6 204.8C206.4 204.9 206 205 205.7 205.1C205.5 205.1 205.3 205.2 205.1 205.2C204.5 205.4 203.9 205.5 203.4 205.7C202.3 206.1 201.1 206.5 200 207C197.8 208 195.6 209.2 193.7 210.6C193.5 210.7 193.5 211 193.6 211.2C193.7 211.4 194 211.4 194.2 211.3C196.1 209.9 198.2 208.8 200.4 207.8C201.5 207.3 202.6 206.9 203.7 206.5C204.3 206.3 204.8 206.2 205.4 206C205.6 206 205.7 205.9 205.9 205.9C206.3 205.8 206.7 205.7 207.1 205.5C207.3 205.6 207.4 205.4 207.3 205.2Z" fill="#F5EAE2"/>
<path d="M194.9 182.6C195 187.7 194.9 192.8 194.6 197.9C194.3 203 193.7 208.1 193 213.1C192.2 218.1 191.2 223.1 189.8 228C188.4 232.8 186.6 237.6 184.3 242C184 242.7 184.2 243.5 184.9 243.8C185.6 244.1 186.4 243.9 186.7 243.2C189 238.5 190.7 233.6 192.1 228.6C193.4 223.6 194.4 218.5 195.1 213.4C195.8 208.3 196.2 203.2 196.5 198C196.7 192.9 196.8 187.7 196.5 182.6C196.5 182.2 196.1 181.8 195.7 181.9C195.2 181.8 194.9 182.2 194.9 182.6Z" fill="#2F5484"/>
<path d="M199.2 173.9C199.2 173.9 212.2 159.7 211 154C210.8 153.2 210.2 152.5 209.4 152.2C208.4 151.7 206.5 151.3 204.8 152.8C204.8 152.8 203.8 148.3 200.3 149.5C196.8 150.6 194.4 172 194.4 172L199.2 173.9Z" fill="#D86F88"/>
<path d="M192.3 176.8C192.3 176.8 177.4 188.9 177.7 194.8C177.7 195.7 178.3 196.4 179 196.9C180 197.5 181.8 198.2 183.6 197C183.6 197 183.9 201.6 187.6 200.9C191.3 200.3 196.7 179.5 196.7 179.5L192.3 176.8Z" fill="#D86F88"/>
<path d="M195.1 179.1C195.1 179.1 198.5 198 203.7 200.6C204.5 201 205.4 200.9 206.1 200.5C207.1 200 208.6 198.7 208.4 196.5C208.4 196.5 212.5 198.5 213.8 195C215 191.5 199.5 176.7 199.5 176.7L195.1 179.1Z" fill="#D86F88"/>
<path d="M197.6 178.2C197.6 178.2 216.7 180.7 220.7 176.5C221.3 175.9 221.5 175 221.3 174.2C221.1 173.1 220.4 171.3 218.2 170.8C218.2 170.8 221.3 167.5 218.4 165.2C215.4 163 196.6 173.3 196.6 173.3L197.6 178.2Z" fill="#D86F88"/>
<path d="M194.9 171.5C194.9 171.5 189.6 153 184.1 151C183.3 150.7 182.4 150.9 181.7 151.4C180.8 152 179.4 153.4 179.8 155.6C179.8 155.6 175.5 154.1 174.6 157.7C173.7 161.3 190.7 174.5 190.7 174.5L194.9 171.5Z" fill="#D86F88"/>
<path d="M192.4 173.2C192.4 173.2 174.3 166.6 169.5 169.9C168.8 170.4 168.4 171.2 168.4 172.1C168.4 173.2 168.7 175.1 170.7 176.1C170.7 176.1 166.9 178.7 169.3 181.5C171.7 184.3 192.3 178.3 192.3 178.3L192.4 173.2Z" fill="#D86F88"/>
<path d="M190.8 173.6C189.5 176.2 190.5 179.5 193.1 180.8C195.7 182.1 199 181.1 200.3 178.5C201.6 175.9 200.6 172.6 198 171.3C195.4 169.9 192.1 171 190.8 173.6Z" fill="#F5EAE2"/>
<path d="M202.1 165.2L199 170.6V170.7H199.1L202.8 165.7C202.9 165.5 202.9 165.2 202.7 165.1C202.6 164.9 202.3 164.9 202.1 165.2C202.1 165.1 202.1 165.1 202.1 165.2Z" fill="#F5EAE2"/>
<path d="M198.7 164.1L197.4 170.2C197.4 170.2 197.4 170.3 197.5 170.3C197.5 170.3 197.6 170.3 197.6 170.2L199.6 164.3C199.7 164.1 199.6 163.8 199.3 163.7C199.1 163.7 198.8 163.8 198.7 164.1C198.7 164 198.7 164 198.7 164.1Z" fill="#F5EAE2"/>
<path d="M188.2 186.1L191.1 182V181.9H191L187.5 185.6C187.3 185.8 187.3 186.1 187.5 186.2C187.7 186.3 188 186.3 188.2 186.1Z" fill="#F5EAE2"/>
<path d="M190.8 187.3L192.4 182.5C192.4 182.5 192.4 182.4 192.3 182.4H192.2L190 187C189.9 187.2 190 187.5 190.2 187.6C190.4 187.7 190.7 187.6 190.8 187.3Z" fill="#F5EAE2"/>
<path d="M200.9 185.8L198.1 181.7H198V181.8L200.2 186.3C200.3 186.5 200.6 186.6 200.8 186.5C201 186.3 201.1 186.1 200.9 185.8Z" fill="#F5EAE2"/>
<path d="M202.9 183.7L198.9 180.7H198.8V180.8L202.3 184.4C202.5 184.6 202.8 184.6 202.9 184.4C203.1 184.2 203.1 184 202.9 183.7Z" fill="#F5EAE2"/>
<path d="M188.9 164.4L191.8 169.6C191.8 169.6 191.9 169.7 191.9 169.6C191.9 169.6 192 169.5 191.9 169.5L189.7 164C189.6 163.8 189.3 163.7 189.1 163.8C188.9 163.8 188.8 164.1 188.9 164.4Z" fill="#F5EAE2"/>
<path d="M186.3 166.6L190.6 170.7H190.7V170.6L187 166C186.8 165.8 186.6 165.8 186.4 165.9C186.1 166.1 186.1 166.3 186.3 166.6Z" fill="#F5EAE2"/>
<path d="M182.5 174.3L187.9 174.9C187.9 174.9 188 174.9 188 174.8C188 174.8 188 174.7 187.9 174.7L182.6 173.4C182.4 173.3 182.1 173.5 182.1 173.7C182 174 182.2 174.2 182.5 174.3Z" fill="#F5EAE2"/>
<path d="M182.8 177.4L188.1 176.4L188.2 176.3C188.2 176.3 188.2 176.2 188.1 176.2L182.7 176.5C182.5 176.5 182.3 176.7 182.3 177C182.2 177.2 182.5 177.4 182.8 177.4C182.7 177.4 182.7 177.4 182.8 177.4Z" fill="#F5EAE2"/>
<path d="M208.4 175.6L202.2 175.1C202.2 175.1 202.1 175.1 202.1 175.2C202.1 175.2 202.1 175.3 202.2 175.3L208.3 176.6C208.5 176.7 208.8 176.5 208.8 176.3C208.8 176.1 208.7 175.7 208.4 175.6Z" fill="#F5EAE2"/>
<path d="M208 172.1L202 173.4L201.9 173.5L202 173.6L208.2 173C208.4 173 208.6 172.8 208.6 172.5C208.5 172.2 208.3 172 208 172.1Z" fill="#F5EAE2"/>
<path d="M191.7 174.1C190.6 176.2 191.5 178.8 193.6 179.9C195.7 181 198.3 180.1 199.4 178C200.5 175.9 199.6 173.3 197.5 172.2C195.4 171.1 192.8 171.9 191.7 174.1Z" fill="#E9B9C9"/>
<path d="M141.8 217.8C141.8 219.9 141.9 222.1 142 224.2C142.2 226.3 142.4 228.5 142.8 230.6C143.2 232.7 143.6 234.8 144.3 236.9C144.9 238.9 145.7 240.9 146.7 242.8C146.8 243.1 146.7 243.4 146.5 243.6C146.2 243.7 145.9 243.6 145.7 243.4C144.7 241.4 143.9 239.4 143.3 237.3C142.7 235.2 142.3 233 141.9 230.9C141.6 228.7 141.4 226.6 141.2 224.4C141.1 222.2 141 220.1 141.1 217.9C141.1 217.7 141.3 217.6 141.4 217.6C141.7 217.5 141.8 217.6 141.8 217.8Z" fill="#2F5484"/>
<path d="M143.6 220.1C142.1 219.2 140.5 215.6 139.7 213.5C139.3 212.6 140 211.7 140.9 211.6C143.2 211.4 147.1 211.3 148.6 212.2C150.8 213.6 151.5 216.4 150.1 218.6C148.7 220.8 145.8 221.5 143.6 220.1Z" fill="#80B5C8"/>
<path d="M139.2 206.4C140.7 207.3 142.3 210.9 143.1 213C143.5 213.9 142.8 214.8 141.9 214.9C139.6 215.1 135.7 215.2 134.2 214.3C132 212.9 131.3 210.1 132.7 207.9C134.1 205.7 137 205 139.2 206.4Z" fill="#80B5C8"/>
<path d="M134.5 215.5C135.4 214 139 212.4 141.1 211.6C142 211.2 142.9 211.9 143 212.8C143.2 215.1 143.3 219 142.4 220.5C141 222.7 138.2 223.4 136 222C133.9 220.5 133.2 217.7 134.5 215.5Z" fill="#80B5C8"/>
<path d="M148.3 211C147.4 212.5 143.8 214.1 141.7 214.9C140.8 215.3 139.9 214.6 139.8 213.7C139.6 211.4 139.5 207.5 140.4 206C141.8 203.8 144.6 203.1 146.8 204.5C149 206 149.7 208.8 148.3 211Z" fill="#80B5C8"/>
<path d="M143.4 214.5C142.7 215.6 141.3 215.9 140.1 215.3C139 214.6 138.7 213.2 139.3 212C140 210.9 141.4 210.6 142.6 211.2C143.8 211.9 144.1 213.4 143.4 214.5Z" fill="#334250"/>
<path d="M48.1 190.8C44.9 190.8 39 186.8 35.6 184.3C34.2 183.3 34.2 181.2 35.6 180.2C39 177.7 44.9 173.7 48.1 173.7C52.8 173.7 56.7 177.5 56.7 182.3C56.6 187 52.8 190.8 48.1 190.8Z" fill="#E9B9C9"/>
<path d="M27.9 173.7C31.1 173.7 37 177.7 40.4 180.2C41.8 181.2 41.8 183.3 40.4 184.3C37 186.8 31.1 190.8 27.9 190.8C23.2 190.8 19.3 187 19.3 182.2C19.3 177.6 23.2 173.7 27.9 173.7Z" fill="#E9B9C9"/>
<path d="M29.4 192.4C29.4 189.2 33.4 183.3 35.9 179.9C36.9 178.5 39 178.5 40 179.9C42.5 183.3 46.5 189.2 46.5 192.4C46.5 197.1 42.7 201 37.9 201C33.3 200.9 29.4 197.1 29.4 192.4Z" fill="#E9B9C9"/>
<path d="M46.5 172.2C46.5 175.4 42.5 181.3 40 184.7C39 186.1 36.9 186.1 35.9 184.7C33.4 181.3 29.4 175.4 29.4 172.2C29.4 167.5 33.2 163.6 38 163.6C42.7 163.6 46.5 167.5 46.5 172.2Z" fill="#E9B9C9"/>
<path d="M38.7 191.4C37.1 189.8 36.2 185 35.8 182.1C35.6 180.9 36.6 179.9 37.8 180.1C40.7 180.5 45.5 181.5 47.1 183C49.4 185.3 49.4 189 47.1 191.3C44.8 193.7 41 193.7 38.7 191.4Z" fill="#D86F88"/>
<path d="M37.2 173.3C38.8 174.9 39.7 179.7 40.1 182.6C40.3 183.8 39.3 184.8 38.1 184.6C35.2 184.2 30.4 183.2 28.8 181.7C26.5 179.4 26.5 175.7 28.8 173.4C31.2 171 34.9 171 37.2 173.3Z" fill="#D86F88"/>
<path d="M28.9 183.1C30.5 181.5 35.3 180.6 38.2 180.2C39.4 180 40.4 181 40.2 182.2C39.8 185.1 38.8 189.9 37.3 191.5C35 193.8 31.3 193.8 29 191.5C26.6 189.1 26.6 185.4 28.9 183.1Z" fill="#D86F88"/>
<path d="M47 181.6C45.4 183.2 40.6 184.1 37.7 184.5C36.5 184.7 35.5 183.7 35.7 182.5C36.1 179.6 37.1 174.8 38.6 173.2C40.9 170.9 44.6 170.9 46.9 173.2C49.3 175.6 49.3 179.3 47 181.6Z" fill="#D86F88"/>
<path d="M37.9 186.4C40.2748 186.4 42.2 184.475 42.2 182.1C42.2 179.725 40.2748 177.8 37.9 177.8C35.5252 177.8 33.6 179.725 33.6 182.1C33.6 184.475 35.5252 186.4 37.9 186.4Z" fill="#F5EAE2"/>
<path d="M44.7 179.7L42.7 179.8C42.6 179.8 42.6 179.8 42.6 179.7C42.6 179.7 42.6 179.6 42.7 179.6L44.4 178.5C44.7 178.3 45.1 178.4 45.3 178.7C45.5 179 45.4 179.4 45.1 179.6C44.9 179.6 44.8 179.7 44.7 179.7Z" fill="#F5EAE2"/>
<path d="M44 177.5L42.2 178.4C42.1 178.4 42.1 178.4 42 178.3V178.2L43.2 176.6C43.4 176.3 43.8 176.2 44.1 176.4C44.4 176.6 44.5 177 44.3 177.3C44.2 177.4 44.1 177.5 44 177.5Z" fill="#F5EAE2"/>
<path d="M42.3 176.2L41.3 177.9C41.3 178 41.2 178 41.1 177.9L41 177.8L41.1 175.8C41.1 175.4 41.4 175.2 41.8 175.2C42.2 175.2 42.4 175.5 42.4 175.9C42.4 176 42.4 176.1 42.3 176.2Z" fill="#F5EAE2"/>
<path d="M30.8 185.4L32.8 185.3C32.9 185.3 32.9 185.3 32.9 185.4C32.9 185.4 32.9 185.5 32.8 185.5L31.2 186.6C30.9 186.8 30.5 186.7 30.3 186.4C30.1 186.1 30.2 185.7 30.5 185.5C30.6 185.5 30.7 185.4 30.8 185.4Z" fill="#F5EAE2"/>
<path d="M31.4 187.6L33.2 186.6C33.3 186.6 33.3 186.6 33.4 186.7V186.8L32.3 188.5C32.1 188.8 31.7 188.9 31.4 188.7C31.1 188.5 31 188.1 31.2 187.8C31.3 187.7 31.3 187.6 31.4 187.6Z" fill="#F5EAE2"/>
<path d="M33.2 188.9L34.2 187.2C34.2 187.1 34.3 187.1 34.4 187.2L34.5 187.3L34.4 189.3C34.4 189.7 34.1 189.9 33.7 189.9C33.3 189.9 33.1 189.6 33.1 189.2C33.1 189.1 33.1 188.9 33.2 188.9Z" fill="#F5EAE2"/>
<path d="M42.2 189L41.7 187.1C41.7 187 41.7 187 41.8 186.9H41.9L43.3 188.3C43.6 188.6 43.6 189 43.3 189.2C43 189.5 42.6 189.5 42.4 189.2C42.3 189.2 42.3 189.1 42.2 189Z" fill="#F5EAE2"/>
<path d="M44.2 188L42.9 186.4C42.9 186.3 42.9 186.3 42.9 186.2H43L44.9 187C45.2 187.1 45.4 187.5 45.3 187.9C45.2 188.2 44.8 188.4 44.4 188.3C44.4 188.1 44.3 188 44.2 188Z" fill="#F5EAE2"/>
<path d="M45.1 186L43.2 185.3C43.1 185.3 43.1 185.2 43.1 185.1L43.2 185L45.2 184.7C45.6 184.6 45.9 184.9 46 185.2C46.1 185.6 45.8 185.9 45.5 186C45.4 186.1 45.2 186 45.1 186Z" fill="#F5EAE2"/>
<path d="M34.1 174.6L34.6 176.5C34.6 176.6 34.6 176.6 34.5 176.7H34.4L33 175.3C32.7 175 32.7 174.6 33 174.4C33.3 174.1 33.7 174.1 33.9 174.4C34.1 174.4 34.1 174.5 34.1 174.6Z" fill="#F5EAE2"/>
<path d="M32.2 175.7L33.5 177.3C33.5 177.4 33.5 177.4 33.5 177.5H33.4L31.5 176.7C31.2 176.6 31 176.2 31.1 175.8C31.2 175.5 31.6 175.3 32 175.4C32 175.5 32.1 175.6 32.2 175.7Z" fill="#F5EAE2"/>
<path d="M31.2 177.6L33.1 178.3C33.2 178.3 33.2 178.4 33.2 178.5L33.1 178.6L31.1 178.9C30.7 179 30.4 178.7 30.3 178.4C30.2 178 30.5 177.7 30.8 177.6C31 177.6 31.1 177.6 31.2 177.6Z" fill="#F5EAE2"/>
<path d="M15 165.1C14.4 163.7 14 162.2 13.9 160.6C13.9 160.2 13.9 159.8 14 159.5C14.5 158 16.1 159.2 16.9 159.8C17.7 160.5 18.4 161.3 18.9 162.3C20.1 164.7 20.3 167.7 20 170.3C19.9 171.6 18.5 170 18.2 169.7C17.4 168.9 16.7 168 16.1 167C15.6 166.4 15.3 165.8 15 165.1Z" fill="#2F5484"/>
<path d="M14.2 159C14.2 158.9 14.2 158.8 14.3 158.8C14.4 158.7 14.5 158.7 14.6 158.9C15.7 160.5 16.7 162.1 17.5 163.9C17.9 164.8 18.2 165.7 18.5 166.6C18.7 167.1 18.8 167.5 18.9 168C18.9 168.1 19 168.3 19 168.4C19.1 168.7 19.1 169 19.2 169.2C19.3 169.3 19.2 169.5 19.1 169.5C19 169.6 18.8 169.5 18.8 169.4C18.7 169.1 18.6 168.8 18.5 168.5C18.5 168.4 18.4 168.2 18.4 168.1C18.3 167.6 18.1 167.2 18 166.7C17.7 165.8 17.4 164.9 17 164C16.3 162.3 15.4 160.6 14.2 159C14.3 159 14.3 159.1 14.2 159Z" fill="#F5EAE2"/>
<path d="M46.4 149.6C45.8 151 45 152.3 44 153.5C43.7 153.8 43.5 154.1 43.1 154.2C41.7 154.8 41.4 152.9 41.3 151.9C41.2 150.8 41.4 149.8 41.7 148.8C42.6 146.2 44.6 144.1 46.7 142.4C47.7 141.6 47.5 143.7 47.5 144.1C47.5 145.2 47.4 146.4 47.1 147.5C46.9 148.3 46.7 149 46.4 149.6Z" fill="#2F5484"/>
<path d="M42.5 154.4C42.5 154.5 42.4 154.5 42.3 154.5C42.2 154.5 42.1 154.4 42.1 154.2C42.4 152.3 43 150.4 43.7 148.7C44.1 147.8 44.5 146.9 44.9 146.1C45.1 145.7 45.4 145.3 45.6 144.8C45.7 144.7 45.8 144.6 45.8 144.4C46 144.2 46.1 143.9 46.2 143.7C46.2 143.6 46.4 143.5 46.5 143.5C46.6 143.5 46.7 143.7 46.7 143.8C46.6 144.1 46.4 144.4 46.2 144.6C46.1 144.7 46 144.8 46 144.9C45.8 145.3 45.5 145.7 45.3 146.1C44.9 146.9 44.5 147.8 44.1 148.7C43.4 150.6 42.9 152.4 42.5 154.4Z" fill="#F5EAE2"/>
<path d="M204.6 218.7C205 217.2 205.6 215.8 206.5 214.5C206.7 214.2 207 213.9 207.3 213.7C208.6 212.9 209.2 214.8 209.4 215.7C209.6 216.7 209.6 217.8 209.4 218.9C208.9 221.6 207.2 224 205.3 225.9C204.4 226.8 204.3 224.8 204.3 224.3C204.1 223.2 204.1 222 204.3 220.9C204.3 220.1 204.5 219.4 204.6 218.7Z" fill="#2F5484"/>
<path d="M207.9 213.4C207.9 213.3 208 213.3 208.1 213.3C208.2 213.3 208.3 213.4 208.3 213.5C208.2 215.4 207.9 217.3 207.5 219.2C207.3 220.1 207 221.1 206.7 222C206.5 222.5 206.4 222.9 206.2 223.3C206.1 223.4 206.1 223.6 206 223.7C205.9 224 205.7 224.2 205.7 224.4C205.7 224.5 205.6 224.6 205.4 224.6C205.3 224.6 205.2 224.5 205.2 224.3C205.2 224 205.4 223.7 205.5 223.4C205.6 223.3 205.6 223.1 205.7 223C205.9 222.6 206.1 222.1 206.2 221.7C206.5 220.8 206.8 219.9 207 219C207.5 217.3 207.8 215.4 207.9 213.4C207.9 213.5 207.8 213.5 207.9 213.4Z" fill="#F5EAE2"/>
<path d="M36.1 214.3C36.1 214.3 27.3 214.6 26.6 225.1C26.6 225.1 36.1 222.9 36.1 214.3Z" fill="#2F5484"/>
<path d="M34.1 216.2C34.2 216.3 34.1 216.4 34.1 216.5L26.9 225.2C26.8 225.3 26.6 225.3 26.5 225.2C26.4 225.1 26.4 225 26.5 224.8L33.7 216.1C33.8 216.1 33.9 216.1 34.1 216.2Z" fill="#F5EAE2"/>
<path d="M29.6 218.7V221.8C29.6 221.9 29.5 222.1 29.3 222.1C29.2 222.1 29 222 29 221.8V218.8C29 218.7 29.1 218.5 29.3 218.5C29.5 218.5 29.6 218.6 29.6 218.7Z" fill="#F5EAE2"/>
<path d="M34.2 218.1C34.3 218.3 34.2 218.5 34 218.5L32.1 218.8C32 218.8 31.8 218.7 31.8 218.6C31.8 218.5 31.9 218.3 32 218.3L34 218C34.1 217.9 34.2 218 34.2 218.1Z" fill="#F5EAE2"/>
<path d="M146.1 153.3C146.1 153.3 143.1 161.6 152.6 166.1C152.6 166.1 154.1 156.4 146.1 153.3Z" fill="#2F5484"/>
<path d="M147.1 155.8C147.2 155.8 147.3 155.8 147.4 155.9L152.8 165.9C152.9 166 152.8 166.2 152.7 166.2C152.6 166.3 152.4 166.2 152.4 166.1L147 156.1C146.9 156.1 146.9 155.9 147.1 155.8Z" fill="#F5EAE2"/>
<path d="M147.8 160.9H147.9L150.6 162C150.7 162.1 150.8 162.2 150.7 162.3C150.6 162.4 150.5 162.5 150.4 162.4L147.7 161.3C147.6 161.2 147.5 161.1 147.6 161C147.6 161 147.7 160.9 147.8 160.9Z" fill="#F5EAE2"/>
<path d="M148.9 156.4C149 156.4 149 156.4 148.9 156.4C149.1 156.4 149.2 156.6 149.2 156.7L148.8 158.6C148.8 158.7 148.6 158.8 148.5 158.8C148.4 158.8 148.3 158.6 148.3 158.5L148.7 156.6C148.7 156.5 148.8 156.4 148.9 156.4Z" fill="#F5EAE2"/>
<path fill-rule="evenodd" clip-rule="evenodd" d="M193.4 124.6V124.8L193.6 124.9L193.7 124.7L193.4 124.6Z" fill="#7AAFBF"/>
<path d="M193.039 124.476L192.982 124.668L193.27 124.752L193.326 124.56L193.039 124.476Z" fill="#7AAFBF"/>
<path d="M192.605 124.335L192.548 124.527L192.835 124.612L192.892 124.42L192.605 124.335Z" fill="#7AAFBF"/>
<path fill-rule="evenodd" clip-rule="evenodd" d="M196.2 125.4V125.6L196.4 125.7L196.5 125.5L196.2 125.4Z" fill="#7AAFBF"/>
<path fill-rule="evenodd" clip-rule="evenodd" d="M195.7 125.3V125.5H195.9L196 125.4L195.7 125.3Z" fill="#7AAFBF"/>
<path fill-rule="evenodd" clip-rule="evenodd" d="M195.3 125.2L195.2 125.4H195.5V125.2H195.3Z" fill="#7AAFBF"/>
<path fill-rule="evenodd" clip-rule="evenodd" d="M199 126.1V126.2L199.3 126.3V126.1H199Z" fill="#7AAFBF"/>
<path fill-rule="evenodd" clip-rule="evenodd" d="M198.6 126L198.5 126.1L198.8 126.2V126H198.6Z" fill="#7AAFBF"/>
<path fill-rule="evenodd" clip-rule="evenodd" d="M198.1 125.9L198 126L198.3 126.1V125.9H198.1Z" fill="#7AAFBF"/>
<path fill-rule="evenodd" clip-rule="evenodd" d="M201.9 126.4V126.6H202.2V126.5L201.9 126.4Z" fill="#7AAFBF"/>
<path fill-rule="evenodd" clip-rule="evenodd" d="M201.4 126.4V126.6H201.7V126.4H201.4Z" fill="#7AAFBF"/>
<path fill-rule="evenodd" clip-rule="evenodd" d="M200.9 126.4V126.5L201.2 126.6V126.4H200.9Z" fill="#7AAFBF"/>
<path fill-rule="evenodd" clip-rule="evenodd" d="M204.8 126.5V126.6H205.1V126.4L204.8 126.5Z" fill="#7AAFBF"/>
<path fill-rule="evenodd" clip-rule="evenodd" d="M204.3 126.5V126.7H204.6V126.5H204.3Z" fill="#7AAFBF"/>
<path fill-rule="evenodd" clip-rule="evenodd" d="M203.8 126.5V126.7H204.1V126.5H203.8Z" fill="#7AAFBF"/>
<path fill-rule="evenodd" clip-rule="evenodd" d="M207.6 126L207.7 126.2L208 126.1L207.9 125.9L207.6 126Z" fill="#7AAFBF"/>
<path fill-rule="evenodd" clip-rule="evenodd" d="M207.2 126.1V126.3L207.5 126.2L207.4 126.1H207.2Z" fill="#7AAFBF"/>
<path fill-rule="evenodd" clip-rule="evenodd" d="M206.7 126.2V126.4L207 126.3V126.2H206.7Z" fill="#7AAFBF"/>
<path fill-rule="evenodd" clip-rule="evenodd" d="M210.3 125L210.4 125.2L210.7 125L210.6 124.9L210.3 125Z" fill="#7AAFBF"/>
<path fill-rule="evenodd" clip-rule="evenodd" d="M209.9 125.2L210 125.4L210.2 125.2V125.1L209.9 125.2Z" fill="#7AAFBF"/>
<path fill-rule="evenodd" clip-rule="evenodd" d="M209.5 125.4V125.6L209.8 125.4L209.7 125.3L209.5 125.4Z" fill="#7AAFBF"/>
<path fill-rule="evenodd" clip-rule="evenodd" d="M212.7 123.4L212.9 123.5L213.1 123.3L212.9 123.2L212.7 123.4Z" fill="#7AAFBF"/>
<path fill-rule="evenodd" clip-rule="evenodd" d="M212.4 123.7L212.5 123.8C212.6 123.7 212.6 123.7 212.7 123.6L212.6 123.5C212.5 123.6 212.4 123.6 212.4 123.7Z" fill="#7AAFBF"/>
<path fill-rule="evenodd" clip-rule="evenodd" d="M212 124L212.1 124.1L212.3 124L212.2 123.8L212 124Z" fill="#7AAFBF"/>
<path fill-rule="evenodd" clip-rule="evenodd" d="M214.6 121.2L214.8 121.3L214.9 121.1L214.7 121L214.6 121.2Z" fill="#7AAFBF"/>
<path fill-rule="evenodd" clip-rule="evenodd" d="M214.4 121.6L214.5 121.7C214.6 121.6 214.6 121.5 214.7 121.5L214.5 121.4C214.5 121.5 214.4 121.5 214.4 121.6Z" fill="#7AAFBF"/>
<path fill-rule="evenodd" clip-rule="evenodd" d="M214.1 122L214.2 122.1C214.3 122 214.3 122 214.4 121.9L214.3 121.8C214.2 121.9 214.1 121.9 214.1 122Z" fill="#7AAFBF"/>
<path fill-rule="evenodd" clip-rule="evenodd" d="M215.8 118.6H215.9L216 118.3H215.8V118.6Z" fill="#7AAFBF"/>
<path fill-rule="evenodd" clip-rule="evenodd" d="M215.6 119L215.8 119.1L215.9 118.8H215.7L215.6 119Z" fill="#7AAFBF"/>
<path fill-rule="evenodd" clip-rule="evenodd" d="M215.5 119.5H215.6L215.7 119.3L215.5 119.2V119.5Z" fill="#7AAFBF"/>
<path fill-rule="evenodd" clip-rule="evenodd" d="M216.2 115.7H216.4V115.5L216.2 115.4V115.7Z" fill="#7AAFBF"/>
<path fill-rule="evenodd" clip-rule="evenodd" d="M216.2 116.2H216.3L216.4 115.9H216.2V116.2Z" fill="#7AAFBF"/>
<path fill-rule="evenodd" clip-rule="evenodd" d="M216.1 116.7H216.3V116.4H216.1V116.7Z" fill="#7AAFBF"/>
<path fill-rule="evenodd" clip-rule="evenodd" d="M216.1 112.8H216.3L216.2 112.5L216 112.6L216.1 112.8Z" fill="#7AAFBF"/>
<path fill-rule="evenodd" clip-rule="evenodd" d="M216.1 113.3H216.3V113H216.1V113.3Z" fill="#7AAFBF"/>
<path fill-rule="evenodd" clip-rule="evenodd" d="M216.2 113.8H216.4L216.3 113.5H216.1L216.2 113.8Z" fill="#7AAFBF"/>
<path fill-rule="evenodd" clip-rule="evenodd" d="M215.3 110.1L215.5 110C215.5 109.9 215.4 109.8 215.4 109.8L215.2 109.9C215.3 109.9 215.3 110 215.3 110.1Z" fill="#7AAFBF"/>
<path fill-rule="evenodd" clip-rule="evenodd" d="M215.5 110.5L215.7 110.4C215.7 110.3 215.6 110.2 215.6 110.1L215.4 110.2C215.5 110.3 215.5 110.4 215.5 110.5Z" fill="#7AAFBF"/>
<path fill-rule="evenodd" clip-rule="evenodd" d="M215.7 110.9L215.9 110.8C215.9 110.7 215.8 110.6 215.8 110.5L215.6 110.6C215.6 110.8 215.7 110.9 215.7 110.9Z" fill="#7AAFBF"/>
<path fill-rule="evenodd" clip-rule="evenodd" d="M213.4 108L213.5 107.8C213.4 107.8 213.3 107.7 213.2 107.7L213.1 107.9C213.3 107.9 213.3 108 213.4 108Z" fill="#7AAFBF"/>
<path fill-rule="evenodd" clip-rule="evenodd" d="M213.8 108.2L213.9 108C213.8 107.9 213.7 107.9 213.7 107.9L213.6 108.1C213.7 108.1 213.8 108.2 213.8 108.2Z" fill="#7AAFBF"/>
<path fill-rule="evenodd" clip-rule="evenodd" d="M214.2 108.5L214.3 108.4C214.2 108.3 214.2 108.3 214.1 108.2L214 108.3C214.1 108.4 214.1 108.5 214.2 108.5Z" fill="#7AAFBF"/>
<path fill-rule="evenodd" clip-rule="evenodd" d="M210.6 107.7V107.5C210.5 107.5 210.4 107.5 210.3 107.6V107.8C210.5 107.7 210.5 107.7 210.6 107.7Z" fill="#7AAFBF"/>
<path fill-rule="evenodd" clip-rule="evenodd" d="M211.1 107.6V107.4C211 107.4 210.9 107.4 210.8 107.4V107.6C210.9 107.6 211 107.6 211.1 107.6Z" fill="#7AAFBF"/>
<path fill-rule="evenodd" clip-rule="evenodd" d="M211.6 107.6V107.4C211.5 107.4 211.4 107.4 211.3 107.4V107.6C211.4 107.6 211.5 107.6 211.6 107.6Z" fill="#7AAFBF"/>
<path fill-rule="evenodd" clip-rule="evenodd" d="M208.1 109L208 108.9C207.9 109 207.9 109 207.8 109.1L207.9 109.2C208 109.1 208.1 109 208.1 109Z" fill="#7AAFBF"/>
<path fill-rule="evenodd" clip-rule="evenodd" d="M208.5 108.7L208.4 108.6C208.3 108.7 208.3 108.7 208.2 108.8L208.3 108.9C208.3 108.8 208.4 108.7 208.5 108.7Z" fill="#7AAFBF"/>
<path fill-rule="evenodd" clip-rule="evenodd" d="M208.9 108.4L208.8 108.2L208.5 108.4L208.6 108.5L208.9 108.4Z" fill="#7AAFBF"/>
<path fill-rule="evenodd" clip-rule="evenodd" d="M206.5 111.4L206.3 111.3C206.3 111.4 206.2 111.5 206.2 111.6L206.4 111.7C206.5 111.5 206.5 111.4 206.5 111.4Z" fill="#7AAFBF"/>
<path fill-rule="evenodd" clip-rule="evenodd" d="M206.7 110.9L206.5 110.8C206.5 110.9 206.4 111 206.4 111L206.6 111.1C206.6 111.1 206.7 111 206.7 110.9Z" fill="#7AAFBF"/>
<path fill-rule="evenodd" clip-rule="evenodd" d="M206.9 110.5L206.7 110.4C206.7 110.5 206.6 110.6 206.6 110.6L206.8 110.7C206.9 110.6 206.9 110.6 206.9 110.5Z" fill="#7AAFBF"/>
<path fill-rule="evenodd" clip-rule="evenodd" d="M205.9 114.1H205.7V114.4H205.8L205.9 114.1Z" fill="#7AAFBF"/>
<path fill-rule="evenodd" clip-rule="evenodd" d="M205.9 113.7L205.7 113.6V113.9H205.9V113.7Z" fill="#7AAFBF"/>
<path fill-rule="evenodd" clip-rule="evenodd" d="M206 113.2H205.8V113.4L205.9 113.5L206 113.2Z" fill="#7AAFBF"/>
<path fill-rule="evenodd" clip-rule="evenodd" d="M206 117L205.8 117.1L205.9 117.3H206V117Z" fill="#7AAFBF"/>
<path fill-rule="evenodd" clip-rule="evenodd" d="M205.9 116.6H205.7L205.8 116.8H206L205.9 116.6Z" fill="#7AAFBF"/>
<path fill-rule="evenodd" clip-rule="evenodd" d="M205.9 116.1H205.7V116.4L205.9 116.3V116.1Z" fill="#7AAFBF"/>
<path fill-rule="evenodd" clip-rule="evenodd" d="M206.8 119.8L206.6 119.9L206.7 120.1L206.9 120L206.8 119.8Z" fill="#7AAFBF"/>
<path fill-rule="evenodd" clip-rule="evenodd" d="M206.6 119.3L206.5 119.4L206.6 119.7L206.7 119.6L206.6 119.3Z" fill="#7AAFBF"/>
<path fill-rule="evenodd" clip-rule="evenodd" d="M206.5 118.9L206.3 119L206.4 119.2L206.6 119.1L206.5 118.9Z" fill="#7AAFBF"/>
<path fill-rule="evenodd" clip-rule="evenodd" d="M208.2 122.3L208 122.4L208.2 122.6L208.3 122.5L208.2 122.3Z" fill="#7AAFBF"/>
<path fill-rule="evenodd" clip-rule="evenodd" d="M207.9 121.9L207.8 122L207.9 122.2L208.1 122.1L207.9 121.9Z" fill="#7AAFBF"/>
<path fill-rule="evenodd" clip-rule="evenodd" d="M207.7 121.5L207.5 121.6L207.7 121.8L207.8 121.7L207.7 121.5Z" fill="#7AAFBF"/>
<path fill-rule="evenodd" clip-rule="evenodd" d="M210 124.5L209.9 124.7L210.1 124.9L210.2 124.7L210 124.5Z" fill="#7AAFBF"/>
<path fill-rule="evenodd" clip-rule="evenodd" d="M209.7 124.2L209.6 124.3L209.8 124.5L209.9 124.4L209.7 124.2Z" fill="#7AAFBF"/>
<path fill-rule="evenodd" clip-rule="evenodd" d="M209.4 123.8L209.2 124L209.4 124.2L209.6 124L209.4 123.8Z" fill="#7AAFBF"/>
<path fill-rule="evenodd" clip-rule="evenodd" d="M212.3 126.4L212.1 126.6L212.4 126.7L212.5 126.6L212.3 126.4Z" fill="#7AAFBF"/>
<path fill-rule="evenodd" clip-rule="evenodd" d="M211.9 126.1L211.8 126.3L212 126.4L212.1 126.3L211.9 126.1Z" fill="#7AAFBF"/>
<path fill-rule="evenodd" clip-rule="evenodd" d="M211.5 125.8L211.4 126L211.6 126.1L211.7 126L211.5 125.8Z" fill="#7AAFBF"/>
<path fill-rule="evenodd" clip-rule="evenodd" d="M214.8 127.8L214.7 128L214.9 128.1L215 128L214.8 127.8Z" fill="#7AAFBF"/>
<path fill-rule="evenodd" clip-rule="evenodd" d="M214.3 127.6L214.2 127.8L214.5 127.9L214.6 127.8L214.3 127.6Z" fill="#7AAFBF"/>
<path fill-rule="evenodd" clip-rule="evenodd" d="M213.9 127.4L213.8 127.6L214.1 127.7V127.5L213.9 127.4Z" fill="#7AAFBF"/>
<path fill-rule="evenodd" clip-rule="evenodd" d="M217.5 128.9L217.4 129.1L217.7 129.2V129L217.5 128.9Z" fill="#7AAFBF"/>
<path fill-rule="evenodd" clip-rule="evenodd" d="M217 128.7L216.9 128.9L217.2 129L217.3 128.8L217 128.7Z" fill="#7AAFBF"/>
<path fill-rule="evenodd" clip-rule="evenodd" d="M216.5 128.6V128.8H216.7L216.8 128.7L216.5 128.6Z" fill="#7AAFBF"/>
<path fill-rule="evenodd" clip-rule="evenodd" d="M220.3 129.6L220.2 129.8H220.5V129.7L220.3 129.6Z" fill="#7AAFBF"/>
<path fill-rule="evenodd" clip-rule="evenodd" d="M219.8 129.5V129.7H220L220.1 129.6L219.8 129.5Z" fill="#7AAFBF"/>
<path fill-rule="evenodd" clip-rule="evenodd" d="M219.3 129.4V129.6H219.5L219.6 129.5L219.3 129.4Z" fill="#7AAFBF"/>
<path fill-rule="evenodd" clip-rule="evenodd" d="M223.1 130V130.2H223.4V130H223.1Z" fill="#7AAFBF"/>
<path fill-rule="evenodd" clip-rule="evenodd" d="M222.7 130L222.6 130.1L222.9 130.2V130H222.7Z" fill="#7AAFBF"/>
<path fill-rule="evenodd" clip-rule="evenodd" d="M222.2 129.9V130.1H222.4V129.9H222.2Z" fill="#7AAFBF"/>
<path fill-rule="evenodd" clip-rule="evenodd" d="M226 130.2V130.3H226.3V130.2H226Z" fill="#7AAFBF"/>
<path fill-rule="evenodd" clip-rule="evenodd" d="M225.5 130.1V130.3H225.8V130.1H225.5Z" fill="#7AAFBF"/>
<path fill-rule="evenodd" clip-rule="evenodd" d="M225.1 130.1V130.3H225.3V130.1H225.1Z" fill="#7AAFBF"/>
<path fill-rule="evenodd" clip-rule="evenodd" d="M228.9 130.1V130.3H229.2V130.1H228.9Z" fill="#7AAFBF"/>
<path fill-rule="evenodd" clip-rule="evenodd" d="M228.4 130.1L228.5 130.3H228.7V130.1H228.4Z" fill="#7AAFBF"/>
<path fill-rule="evenodd" clip-rule="evenodd" d="M228 130.1V130.3H228.2V130.1H228Z" fill="#7AAFBF"/>
<path fill-rule="evenodd" clip-rule="evenodd" d="M231.8 129.8V130L232.1 129.9V129.7L231.8 129.8Z" fill="#7AAFBF"/>
<path fill-rule="evenodd" clip-rule="evenodd" d="M231.3 129.9L231.4 130H231.6V129.8L231.3 129.9Z" fill="#7AAFBF"/>
<path fill-rule="evenodd" clip-rule="evenodd" d="M230.9 129.9V130.1H231.1V129.9H230.9Z" fill="#7AAFBF"/>
<path fill-rule="evenodd" clip-rule="evenodd" d="M234.6 129.2L234.7 129.3H235L234.9 129.1L234.6 129.2Z" fill="#7AAFBF"/>
<path fill-rule="evenodd" clip-rule="evenodd" d="M234.2 129.3V129.5L234.5 129.4L234.4 129.2L234.2 129.3Z" fill="#7AAFBF"/>
<path fill-rule="evenodd" clip-rule="evenodd" d="M233.7 129.4L233.8 129.6L234 129.5V129.4H233.7Z" fill="#7AAFBF"/>
<path fill-rule="evenodd" clip-rule="evenodd" d="M237.4 128.2V128.3L237.7 128.2L237.6 128.1L237.4 128.2Z" fill="#7AAFBF"/>
<path fill-rule="evenodd" clip-rule="evenodd" d="M236.9 128.4L237 128.5L237.2 128.4V128.3L236.9 128.4Z" fill="#7AAFBF"/>
<path fill-rule="evenodd" clip-rule="evenodd" d="M236.5 128.6V128.7L236.8 128.6L236.7 128.5L236.5 128.6Z" fill="#7AAFBF"/>
<path d="M165.9 97.9C165.9 97.9 166.8 94.7 168.3 92.6C172.9 86 183.2 91.1 180.8 98.8C180.5 99.7 180.1 100.6 179.6 101.5C179.4 101.8 179.6 102.2 180 102.3L184.5 103C186.6 103.3 187.8 105.5 187.1 107.4C186.4 109.2 184.8 110.6 182.9 110.9L179 111.5L165.9 97.9Z" fill="#7AAFBF"/>
<path d="M179.3 98.8C179.3 98.8 180 96.3 181.2 94.6C184.8 89.5 192.8 93.5 191 99.4C190.8 100.1 190.5 100.8 190 101.5C189.8 101.7 190 102.1 190.3 102.1L193.8 102.7C195.4 103 196.4 104.6 195.9 106.2C195.4 107.6 194.1 108.7 192.6 108.9L189.5 109.4L179.3 98.8Z" fill="#CDDFE8"/>
<path d="M179.3 98.8C179.3 98.8 180 96.3 181.2 94.6C184.8 89.5 192.8 93.5 191 99.4C190.8 100.1 190.5 100.8 190 101.5C189.8 101.7 190 102.1 190.3 102.1L193.8 102.7C195.4 103 196.4 104.6 195.9 106.2C195.4 107.6 194.1 108.7 192.6 108.9L189.5 109.4L179.3 98.8Z" fill="#80B5C8"/>
<path d="M189.5 124.2C194.3 117.7 192.8 108.5 186.3 103.7L179.3 98.5C172.8 93.7 163.6 95.2 158.8 101.7C154 108.2 155.5 117.4 162 122.2L169 127.4C175.5 132.1 184.8 130.7 189.5 124.2Z" fill="#EEC441"/>
<path d="M185.3 122.5C189.6 116.6 189.5 108.8 185.6 103.1L186.3 103.6C192.8 108.4 194.2 117.6 189.5 124.1C185.6 129.4 178.7 131.3 172.8 129.3C177.6 129 182.3 126.7 185.3 122.5Z" fill="#562F32"/>
<path d="M166 125.1C171.2 125.1 176.2 122.7 179.5 118.2C183.8 112.3 183.7 104.5 179.8 98.8L185.7 103.1C189.6 108.8 189.7 116.6 185.4 122.5C182.4 126.7 177.7 129 172.9 129.3C171.6 128.8 170.3 128.2 169.1 127.3L166 125.1Z" fill="#EEC441"/>
<path d="M172.4 113.1C176.1 108 176.6 101.5 174.1 96.1C175.9 96.5 177.7 97.3 179.3 98.5L179.8 98.8C183.7 104.5 183.8 112.3 179.5 118.2C176.2 122.7 171.2 125 166 125.1L162 122.2C161.1 121.5 160.3 120.8 159.6 119.9C164.5 119.7 169.3 117.4 172.4 113.1Z" fill="#334250"/>
<path d="M160.3 104.1C162.5 104.7 165 104.6 165 104.6C165.7 104.8 165.8 105.6 165.5 106.5L163.8 106.4C163 106.3 162.3 106.9 162.2 107.7L162.1 108.9C161.9 108.9 161.7 108.8 161.4 108.8C158.2 107.7 158.1 103.5 160.3 104.1Z" fill="#334250"/>
<path d="M163.9 106.4L165.6 106.5C165.5 106.8 165.4 107 165.2 107.3C164.9 107.8 164.4 108.3 163.8 108.7C163.3 109 162.8 109.1 162.2 109L162.3 107.8C162.3 106.9 163.1 106.3 163.9 106.4Z" fill="#D86F8C"/>
<path d="M172.4 102.3C172.2 102.3 172 102.2 171.7 102.2C171.5 102.1 171.2 102 171 102C170.8 101.9 170.6 101.9 170.3 101.8C170.1 101.7 169.8 101.7 169.7 101.6C169.5 101.5 169.5 101.2 169.8 101C170.1 100.8 170.7 100.7 171.3 100.9C172 101.1 172.4 101.5 172.5 101.8C172.8 102.1 172.6 102.3 172.4 102.3Z" fill="#334250"/>
<path d="M155 102.3C155.2 102.4 155.4 102.3 155.7 102.3C155.9 102.3 156.2 102.2 156.4 102.2C156.6 102.2 156.9 102.2 157.1 102.1C157.3 102.1 157.6 102.1 157.8 102C158 101.9 158 101.7 157.8 101.4C157.6 101.2 157 100.9 156.3 101C155.6 101.1 155.1 101.4 155 101.7C154.7 102.1 154.8 102.3 155 102.3Z" fill="#334250"/>
<path d="M167.9 106.2C167.9 106.8 168.3 107.4 169 107.4C169.6 107.4 170.2 107 170.2 106.3C170.2 105.7 169.8 105.1 169.1 105.1C168.5 105 167.9 105.5 167.9 106.2Z" fill="#334250"/>
<path d="M154.6 105.3C154.6 105.9 155 106.5 155.7 106.5C156.3 106.5 156.9 106.1 156.9 105.4C156.9 104.8 156.5 104.2 155.8 104.2C155.2 104.2 154.7 104.7 154.6 105.3Z" fill="#334250"/>
<path d="M170 108.1C170.1 108.1 170.3 108.1 170.4 108C170.6 107.8 170.7 107.5 170.5 107.2C170.1 106.7 169 106 167.5 106.8C167.2 106.9 167.1 107.3 167.3 107.5C167.4 107.8 167.8 107.9 168 107.7C169 107.1 169.6 107.7 169.6 107.8C169.7 108.1 169.8 108.1 170 108.1Z" fill="#E9B9C9"/>
<path d="M156.4 107.1C156.5 107.1 156.7 107.1 156.8 107C157 106.8 157.1 106.5 156.9 106.2C156.6 105.8 155.6 105.2 154.5 105.9C154.2 106 154.1 106.4 154.3 106.6C154.4 106.9 154.8 107 155 106.8C155.7 106.4 156 106.8 156.1 106.8C156.1 107.1 156.3 107.1 156.4 107.1Z" fill="#E9B9C9"/>
<path d="M191.7 119.4L193 123.2C193.3 124 192.6 124.8 191.8 124.7L188.3 124.4L191.7 119.4Z" fill="#334250"/>
<path d="M165 97.1C164.9 95.3 164.7 93.5 163.8 92C163 90.6 161.6 89.5 160 89.3C159.5 89.2 159.7 88.4 160.2 88.5C162 88.8 163.5 90 164.5 91.5C165.5 93.2 165.9 95.2 165.9 97.2C165.9 97.7 165 97.7 165 97.1Z" fill="#334250"/>
<path d="M170.4 97.4C170.7 95.5 171.3 93.6 172.5 92.1C173.6 90.6 175.3 89.6 177.2 89.6C177.7 89.6 177.7 90.4 177.2 90.4C175.5 90.4 173.9 91.4 173 92.8C172 94.2 171.5 95.9 171.2 97.6C171.1 98.1 170.3 97.9 170.4 97.4Z" fill="#334250"/>
<path d="M176.9 89.9C177 90.5 177.5 90.8 178.1 90.7C178.7 90.6 179 90.1 178.9 89.5C178.8 88.9 178.3 88.6 177.7 88.7C177.2 88.8 176.8 89.3 176.9 89.9Z" fill="#D86F8C"/>
<path d="M158.8 89.1C158.9 89.7 159.4 90 160 89.9C160.6 89.8 160.9 89.3 160.8 88.7C160.7 88.1 160.2 87.8 159.6 87.9C159.1 88 158.7 88.5 158.8 89.1Z" fill="#D86F8C"/>
<path d="M160.1 116.4L167.1 121.6C173.6 126.4 182.8 124.9 187.6 118.4C189.8 115.3 190.7 111.7 190.3 108.1C193.1 113 193 119.3 189.5 124.1C184.7 130.6 175.5 132 169 127.3L162 122.1C158.6 119.6 156.5 115.8 156.1 111.9C157.1 113.7 158.4 115.2 160.1 116.4Z" fill="#33527E"/>
<path d="M185.3 122.5C189.6 116.6 189.5 108.8 185.6 103.1L186.3 103.6C192.8 108.4 194.2 117.6 189.5 124.1C185.6 129.4 178.7 131.3 172.8 129.3C177.6 129 182.3 126.7 185.3 122.5Z" fill="#334250"/>
<path d="M168.6 110.2C169.925 110.2 171 109.528 171 108.7C171 107.872 169.925 107.2 168.6 107.2C167.275 107.2 166.2 107.872 166.2 108.7C166.2 109.528 167.275 110.2 168.6 110.2Z" fill="#D66B4A"/>
<path d="M155.3 109.3C156.625 109.3 157.7 108.628 157.7 107.8C157.7 106.972 156.625 106.3 155.3 106.3C153.975 106.3 152.9 106.972 152.9 107.8C152.9 108.628 153.975 109.3 155.3 109.3Z" fill="#D66B4A"/>
<path fill-rule="evenodd" clip-rule="evenodd" d="M8.4 93.9V94.2L8.8 94.3V94L8.4 93.9Z" fill="#7AAFBF"/>
<path d="M7.783 93.809L7.69846 94.0969L8.08226 94.2096L8.1668 93.9218L7.783 93.809Z" fill="#7AAFBF"/>
<path d="M7.00815 93.5575L6.9231 93.8452L7.3067 93.9586L7.39175 93.6709L7.00815 93.5575Z" fill="#7AAFBF"/>
<path fill-rule="evenodd" clip-rule="evenodd" d="M12.8 95.1L12.7 95.4L13.1 95.5L13.2 95.2L12.8 95.1Z" fill="#7AAFBF"/>
<path fill-rule="evenodd" clip-rule="evenodd" d="M12.1 94.9L12 95.2L12.4 95.3L12.5 95L12.1 94.9Z" fill="#7AAFBF"/>
<path fill-rule="evenodd" clip-rule="evenodd" d="M11.4 94.8L11.3 95L11.7 95.1L11.8 94.9L11.4 94.8Z" fill="#7AAFBF"/>
<path fill-rule="evenodd" clip-rule="evenodd" d="M17.2 96.1V96.4L17.6 96.5V96.2L17.2 96.1Z" fill="#7AAFBF"/>
<path fill-rule="evenodd" clip-rule="evenodd" d="M16.5 96L16.4 96.3H16.8L16.9 96.1L16.5 96Z" fill="#7AAFBF"/>
<path fill-rule="evenodd" clip-rule="evenodd" d="M15.7 95.8V96.1L16.1 96.2L16.2 95.9L15.7 95.8Z" fill="#7AAFBF"/>
<path fill-rule="evenodd" clip-rule="evenodd" d="M21.7 96.7V97H22.1V96.8L21.7 96.7Z" fill="#7AAFBF"/>
<path fill-rule="evenodd" clip-rule="evenodd" d="M21 96.7L20.9 96.9L21.3 97L21.4 96.7H21Z" fill="#7AAFBF"/>
<path fill-rule="evenodd" clip-rule="evenodd" d="M20.2 96.6V96.9H20.6V96.6H20.2Z" fill="#7AAFBF"/>
<path fill-rule="evenodd" clip-rule="evenodd" d="M26.2 96.8V97H26.7L26.6 96.7L26.2 96.8Z" fill="#7AAFBF"/>
<path fill-rule="evenodd" clip-rule="evenodd" d="M25.5 96.8V97.1H25.9V96.8H25.5Z" fill="#7AAFBF"/>
<path fill-rule="evenodd" clip-rule="evenodd" d="M24.7 96.8V97.1H25.1V96.8H24.7Z" fill="#7AAFBF"/>
<path fill-rule="evenodd" clip-rule="evenodd" d="M30.7 96V96.3L31.1 96.2V95.9L30.7 96Z" fill="#7AAFBF"/>
<path fill-rule="evenodd" clip-rule="evenodd" d="M29.9 96.2L30 96.5L30.4 96.4L30.3 96.1L29.9 96.2Z" fill="#7AAFBF"/>
<path fill-rule="evenodd" clip-rule="evenodd" d="M29.2 96.4L29.3 96.6H29.7L29.6 96.3L29.2 96.4Z" fill="#7AAFBF"/>
<path fill-rule="evenodd" clip-rule="evenodd" d="M34.9 94.5L35 94.7L35.4 94.5L35.3 94.3L34.9 94.5Z" fill="#7AAFBF"/>
<path fill-rule="evenodd" clip-rule="evenodd" d="M34.2 94.8L34.3 95L34.7 94.9L34.6 94.6L34.2 94.8Z" fill="#7AAFBF"/>
<path fill-rule="evenodd" clip-rule="evenodd" d="M33.5 95.1L33.6 95.3L34 95.2L33.9 94.9L33.5 95.1Z" fill="#7AAFBF"/>
<path fill-rule="evenodd" clip-rule="evenodd" d="M38.6 92L38.8 92.2L39.1 91.9L38.9 91.7L38.6 92Z" fill="#7AAFBF"/>
<path fill-rule="evenodd" clip-rule="evenodd" d="M38 92.4L38.2 92.6C38.3 92.5 38.4 92.4 38.5 92.3L38.3 92.1C38.3 92.3 38.2 92.4 38 92.4Z" fill="#7AAFBF"/>
<path fill-rule="evenodd" clip-rule="evenodd" d="M37.5 92.9L37.6 93.1L38 92.9L37.8 92.6L37.5 92.9Z" fill="#7AAFBF"/>
<path fill-rule="evenodd" clip-rule="evenodd" d="M41.5 88.6L41.8 88.7L42 88.3L41.7 88.2L41.5 88.6Z" fill="#7AAFBF"/>
<path fill-rule="evenodd" clip-rule="evenodd" d="M41.1 89.2L41.3 89.4C41.4 89.3 41.5 89.2 41.5 89L41.3 88.8C41.3 89 41.2 89.1 41.1 89.2Z" fill="#7AAFBF"/>
<path fill-rule="evenodd" clip-rule="evenodd" d="M40.7 89.8L40.9 90C41 89.9 41.1 89.8 41.2 89.7L41 89.5C40.9 89.6 40.8 89.7 40.7 89.8Z" fill="#7AAFBF"/>
<path fill-rule="evenodd" clip-rule="evenodd" d="M43.3 84.4L43.6 84.5L43.7 84.1L43.4 84L43.3 84.4Z" fill="#7AAFBF"/>
<path fill-rule="evenodd" clip-rule="evenodd" d="M43.1 85.1L43.4 85.2L43.5 84.8L43.2 84.7L43.1 85.1Z" fill="#7AAFBF"/>
<path fill-rule="evenodd" clip-rule="evenodd" d="M42.8 85.9L43.1 86L43.3 85.6L43 85.5L42.8 85.9Z" fill="#7AAFBF"/>
<path fill-rule="evenodd" clip-rule="evenodd" d="M44 80H44.3V79.6H44V80Z" fill="#7AAFBF"/>
<path fill-rule="evenodd" clip-rule="evenodd" d="M44 80.7L44.2 80.8L44.3 80.3H44V80.7Z" fill="#7AAFBF"/>
<path fill-rule="evenodd" clip-rule="evenodd" d="M43.9 81.5H44.2V81.1H43.9V81.5Z" fill="#7AAFBF"/>
<path fill-rule="evenodd" clip-rule="evenodd" d="M43.8 75.5L44.1 75.4L44 75L43.8 75.1V75.5Z" fill="#7AAFBF"/>
<path fill-rule="evenodd" clip-rule="evenodd" d="M43.9 76.2H44.2L44.1 75.8H43.9V76.2Z" fill="#7AAFBF"/>
<path fill-rule="evenodd" clip-rule="evenodd" d="M44 77H44.3L44.2 76.5L43.9 76.6L44 77Z" fill="#7AAFBF"/>
<path fill-rule="evenodd" clip-rule="evenodd" d="M42.7 71.1L43 71C42.9 70.9 42.9 70.7 42.8 70.6L42.6 70.7C42.5 70.9 42.6 71 42.7 71.1Z" fill="#7AAFBF"/>
<path fill-rule="evenodd" clip-rule="evenodd" d="M43 71.8L43.3 71.7C43.2 71.6 43.2 71.4 43.1 71.3L42.8 71.4C42.9 71.6 42.9 71.7 43 71.8Z" fill="#7AAFBF"/>
<path fill-rule="evenodd" clip-rule="evenodd" d="M43.2 72.5L43.5 72.4C43.5 72.3 43.4 72.1 43.4 72L43.1 72.1C43.1 72.3 43.2 72.4 43.2 72.5Z" fill="#7AAFBF"/>
<path fill-rule="evenodd" clip-rule="evenodd" d="M39.7 67.9L39.8 67.6C39.7 67.5 39.5 67.5 39.4 67.4L39.3 67.7C39.4 67.8 39.6 67.9 39.7 67.9Z" fill="#7AAFBF"/>
<path fill-rule="evenodd" clip-rule="evenodd" d="M40.3 68.3L40.5 68.1C40.4 68 40.3 67.9 40.1 67.9L40 68.1C40.1 68.2 40.2 68.2 40.3 68.3Z" fill="#7AAFBF"/>
<path fill-rule="evenodd" clip-rule="evenodd" d="M40.9 68.8L41.1 68.6C41 68.5 40.9 68.4 40.8 68.3L40.6 68.5C40.7 68.6 40.8 68.7 40.9 68.8Z" fill="#7AAFBF"/>
<path fill-rule="evenodd" clip-rule="evenodd" d="M35.3 67.4L35.2 67.1C35.1 67.1 34.9 67.2 34.8 67.2L34.9 67.5C35 67.5 35.2 67.5 35.3 67.4Z" fill="#7AAFBF"/>
<path fill-rule="evenodd" clip-rule="evenodd" d="M36.1 67.3V67C36 67 35.8 67 35.7 67.1V67.4C35.8 67.4 35.9 67.3 36.1 67.3Z" fill="#7AAFBF"/>
<path fill-rule="evenodd" clip-rule="evenodd" d="M36.8 67.3V67C36.7 67 36.5 67 36.4 67V67.3C36.5 67.3 36.7 67.3 36.8 67.3Z" fill="#7AAFBF"/>
<path fill-rule="evenodd" clip-rule="evenodd" d="M31.4 69.5L31.2 69.3C31.1 69.4 31 69.5 30.9 69.6L31.1 69.8C31.2 69.7 31.3 69.6 31.4 69.5Z" fill="#7AAFBF"/>
<path fill-rule="evenodd" clip-rule="evenodd" d="M32 69L31.8 68.8C31.7 68.9 31.6 69 31.5 69.1L31.7 69.3C31.7 69.2 31.9 69.1 32 69Z" fill="#7AAFBF"/>
<path fill-rule="evenodd" clip-rule="evenodd" d="M32.6 68.6L32.4 68.3L32.1 68.6L32.2 68.8L32.6 68.6Z" fill="#7AAFBF"/>
<path fill-rule="evenodd" clip-rule="evenodd" d="M28.9 73.2L28.6 73.1C28.5 73.2 28.5 73.4 28.4 73.5L28.7 73.6C28.8 73.4 28.9 73.3 28.9 73.2Z" fill="#7AAFBF"/>
<path fill-rule="evenodd" clip-rule="evenodd" d="M29.2 72.5L29 72.4C28.9 72.5 28.9 72.7 28.8 72.8L29.1 72.9C29.1 72.7 29.2 72.6 29.2 72.5Z" fill="#7AAFBF"/>
<path fill-rule="evenodd" clip-rule="evenodd" d="M29.6 71.8L29.4 71.7C29.3 71.8 29.3 71.9 29.2 72.1L29.5 72.2C29.4 72.1 29.5 72 29.6 71.8Z" fill="#7AAFBF"/>
<path fill-rule="evenodd" clip-rule="evenodd" d="M27.9 77.5H27.6V77.9L27.9 78V77.5Z" fill="#7AAFBF"/>
<path fill-rule="evenodd" clip-rule="evenodd" d="M28 76.8H27.7L27.6 77.2H27.9L28 76.8Z" fill="#7AAFBF"/>
<path fill-rule="evenodd" clip-rule="evenodd" d="M28.1 76.1L27.8 76L27.7 76.4L28 76.5L28.1 76.1Z" fill="#7AAFBF"/>
<path fill-rule="evenodd" clip-rule="evenodd" d="M28.1 82L27.8 82.1L27.9 82.5L28.2 82.4L28.1 82Z" fill="#7AAFBF"/>
<path fill-rule="evenodd" clip-rule="evenodd" d="M28 81.3H27.7V81.7H28V81.3Z" fill="#7AAFBF"/>
<path fill-rule="evenodd" clip-rule="evenodd" d="M27.9 80.5L27.6 80.6V81H27.9V80.5Z" fill="#7AAFBF"/>
<path fill-rule="evenodd" clip-rule="evenodd" d="M29.4 86.3L29.1 86.5L29.3 86.8L29.5 86.7L29.4 86.3Z" fill="#7AAFBF"/>
<path fill-rule="evenodd" clip-rule="evenodd" d="M29.1 85.6L28.8 85.7L29 86.1L29.2 86L29.1 85.6Z" fill="#7AAFBF"/>
<path fill-rule="evenodd" clip-rule="evenodd" d="M28.8 84.9L28.6 85L28.7 85.4L29 85.3L28.8 84.9Z" fill="#7AAFBF"/>
<path fill-rule="evenodd" clip-rule="evenodd" d="M31.5 90.3L31.3 90.5L31.5 90.8L31.8 90.6L31.5 90.3Z" fill="#7AAFBF"/>
<path fill-rule="evenodd" clip-rule="evenodd" d="M31.1 89.7L30.9 89.8L31.1 90.2L31.3 90L31.1 89.7Z" fill="#7AAFBF"/>
<path fill-rule="evenodd" clip-rule="evenodd" d="M30.7 89L30.5 89.2L30.7 89.5L30.9 89.4L30.7 89Z" fill="#7AAFBF"/>
<path fill-rule="evenodd" clip-rule="evenodd" d="M34.4 93.8L34.2 94L34.5 94.3L34.7 94.1L34.4 93.8Z" fill="#7AAFBF"/>
<path fill-rule="evenodd" clip-rule="evenodd" d="M33.9 93.2L33.7 93.4L34 93.7L34.2 93.5L33.9 93.2Z" fill="#7AAFBF"/>
<path fill-rule="evenodd" clip-rule="evenodd" d="M33.4 92.7L33.2 92.9L33.4 93.2L33.6 93L33.4 92.7Z" fill="#7AAFBF"/>
<path fill-rule="evenodd" clip-rule="evenodd" d="M37.9 96.7L37.7 96.9L38 97.1L38.2 96.9L37.9 96.7Z" fill="#7AAFBF"/>
<path fill-rule="evenodd" clip-rule="evenodd" d="M37.2 96.2L37.1 96.5L37.4 96.7L37.6 96.5L37.2 96.2Z" fill="#7AAFBF"/>
<path fill-rule="evenodd" clip-rule="evenodd" d="M36.6 95.8L36.5 96L36.8 96.3L37 96L36.6 95.8Z" fill="#7AAFBF"/>
<path fill-rule="evenodd" clip-rule="evenodd" d="M41.8 98.9L41.6 99.2L42 99.3L42.1 99.1L41.8 98.9Z" fill="#7AAFBF"/>
<path fill-rule="evenodd" clip-rule="evenodd" d="M41.1 98.6L41 98.8L41.3 99L41.5 98.8L41.1 98.6Z" fill="#7AAFBF"/>
<path fill-rule="evenodd" clip-rule="evenodd" d="M40.4 98.2L40.3 98.5L40.7 98.7L40.8 98.4L40.4 98.2Z" fill="#7AAFBF"/>
<path fill-rule="evenodd" clip-rule="evenodd" d="M46 100.5L45.9 100.8L46.3 100.9L46.4 100.7L46 100.5Z" fill="#7AAFBF"/>
<path fill-rule="evenodd" clip-rule="evenodd" d="M45.3 100.3L45.2 100.6L45.6 100.7L45.7 100.4L45.3 100.3Z" fill="#7AAFBF"/>
<path fill-rule="evenodd" clip-rule="evenodd" d="M44.5 100.1L44.4 100.3L44.9 100.5V100.2L44.5 100.1Z" fill="#7AAFBF"/>
<path fill-rule="evenodd" clip-rule="evenodd" d="M50.4 101.6L50.3 101.9L50.7 102L50.8 101.7L50.4 101.6Z" fill="#7AAFBF"/>
<path fill-rule="evenodd" clip-rule="evenodd" d="M49.6 101.5V101.8L50 101.9V101.6L49.6 101.5Z" fill="#7AAFBF"/>
<path fill-rule="evenodd" clip-rule="evenodd" d="M48.9 101.3L48.8 101.6L49.2 101.7L49.3 101.4L48.9 101.3Z" fill="#7AAFBF"/>
<path fill-rule="evenodd" clip-rule="evenodd" d="M54.8 102.3V102.6H55.2V102.3H54.8Z" fill="#7AAFBF"/>
<path fill-rule="evenodd" clip-rule="evenodd" d="M54.1 102.2L54 102.5H54.5V102.2H54.1Z" fill="#7AAFBF"/>
<path fill-rule="evenodd" clip-rule="evenodd" d="M53.3 102.1V102.4H53.7L53.8 102.2L53.3 102.1Z" fill="#7AAFBF"/>
<path fill-rule="evenodd" clip-rule="evenodd" d="M59.3 102.5V102.8H59.8V102.5H59.3Z" fill="#7AAFBF"/>
<path fill-rule="evenodd" clip-rule="evenodd" d="M58.6 102.5V102.8H59V102.5H58.6Z" fill="#7AAFBF"/>
<path fill-rule="evenodd" clip-rule="evenodd" d="M57.8 102.5V102.8H58.3V102.5H57.8Z" fill="#7AAFBF"/>
<path fill-rule="evenodd" clip-rule="evenodd" d="M63.9 102.4V102.7H64.3V102.4H63.9Z" fill="#7AAFBF"/>
<path fill-rule="evenodd" clip-rule="evenodd" d="M63.1 102.4V102.7H63.5V102.4H63.1Z" fill="#7AAFBF"/>
<path fill-rule="evenodd" clip-rule="evenodd" d="M62.4 102.5V102.8L62.8 102.7V102.5H62.4Z" fill="#7AAFBF"/>
<path fill-rule="evenodd" clip-rule="evenodd" d="M68.4 101.9V102.2H68.8V101.9H68.4Z" fill="#7AAFBF"/>
<path fill-rule="evenodd" clip-rule="evenodd" d="M67.6 102L67.7 102.3H68.1L68 102H67.6Z" fill="#7AAFBF"/>
<path fill-rule="evenodd" clip-rule="evenodd" d="M66.9 102.1V102.4H67.3V102.1H66.9Z" fill="#7AAFBF"/>
<path fill-rule="evenodd" clip-rule="evenodd" d="M72.8 101L72.9 101.3L73.3 101.1L73.2 100.9L72.8 101Z" fill="#7AAFBF"/>
<path fill-rule="evenodd" clip-rule="evenodd" d="M72.1 101.2V101.4L72.5 101.3V101.1L72.1 101.2Z" fill="#7AAFBF"/>
<path fill-rule="evenodd" clip-rule="evenodd" d="M71.3 101.4L71.4 101.6L71.8 101.5L71.7 101.3L71.3 101.4Z" fill="#7AAFBF"/>
<path fill-rule="evenodd" clip-rule="evenodd" d="M77 99.4L77.1 99.7L77.5 99.5L77.4 99.2L77 99.4Z" fill="#7AAFBF"/>
<path fill-rule="evenodd" clip-rule="evenodd" d="M76.3 99.7L76.4 100L76.8 99.8L76.7 99.6L76.3 99.7Z" fill="#7AAFBF"/>
<path fill-rule="evenodd" clip-rule="evenodd" d="M75.6 100L75.7 100.3L76.1 100.1L76 99.9L75.6 100Z" fill="#7AAFBF"/>
<path d="M116.4 61.9C116.4 61.9 115.2 57.4 113.1 54.4C106.6 45.2 92.2 52.4 95.6 63.1C96 64.3 96.6 65.6 97.3 66.9C97.6 67.3 97.3 67.9 96.8 68L90.5 69C87.6 69.5 85.8 72.5 86.8 75.2C87.7 77.8 90 79.7 92.7 80.1L98.2 81L116.4 61.9Z" fill="#7AAFBF"/>
<path d="M97.7 63.1C97.7 63.1 96.7 59.6 95.1 57.3C90 50.1 78.7 55.7 81.4 64.1C81.7 65.1 82.1 66.1 82.7 67C82.9 67.3 82.7 67.8 82.3 67.9L77.3 68.7C75 69.1 73.7 71.4 74.4 73.6C75.1 75.6 76.9 77.1 79 77.4L83.3 78.1L97.7 63.1Z" fill="#CDDFE8"/>
<path d="M97.7 63.1C97.7 63.1 96.7 59.6 95.1 57.3C90 50.1 78.7 55.7 81.4 64.1C81.7 65.1 82.1 66.1 82.7 67C82.9 67.3 82.7 67.8 82.3 67.9L77.3 68.7C75 69.1 73.7 71.4 74.4 73.6C75.1 75.6 76.9 77.1 79 77.4L83.3 78.1L97.7 63.1Z" fill="#80B5C8"/>
<path d="M83.3 98.7C76.6 89.6 78.6 76.6 87.8 69.9L97.7 62.7C106.8 56 119.8 58 126.5 67.2C133.2 76.3 131.2 89.3 122 96L112.1 103.2C103 109.9 90 107.9 83.3 98.7Z" fill="#EEC441"/>
<path d="M89.3 96.4C83.3 88.2 83.4 77.2 88.8 69.2L87.8 69.9C78.7 76.6 76.7 89.6 83.3 98.7C88.8 106.2 98.4 108.9 106.8 106C100 105.5 93.5 102.2 89.3 96.4Z" fill="#562F32"/>
<path d="M116.4 100C109.2 99.9 102 96.6 97.5 90.4C91.5 82.2 91.6 71.2 97 63.2L88.8 69.2C83.4 77.2 83.3 88.2 89.3 96.4C93.6 102.2 100.1 105.5 106.8 106C108.7 105.3 110.5 104.4 112.1 103.2L116.4 100Z" fill="#EEC441"/>
<path d="M107.4 83.1C102.1 76 101.5 66.8 105 59.3C102.4 59.9 99.9 61 97.7 62.7L97 63.1C91.6 71.1 91.5 82.1 97.5 90.3C102.1 96.6 109.2 99.9 116.4 99.9L122 95.8C123.3 94.9 124.4 93.8 125.4 92.6C118.5 92.4 111.7 89.1 107.4 83.1Z" fill="#334250"/>
<path d="M124.4 70.5C121.3 71.4 117.8 71.2 117.8 71.2C116.8 71.4 116.6 72.6 117 73.8L119.3 73.7C120.4 73.6 121.4 74.4 121.6 75.5L121.7 77.2C122 77.2 122.3 77.1 122.6 77C127.3 75.5 127.5 69.7 124.4 70.5Z" fill="#334250"/>
<path d="M119.5 76.9C120.2 77.3 120.9 77.5 121.8 77.4C120.9 77.4 120.1 77.2 119.5 76.9Z" fill="#E79E6E"/>
<path d="M119.3 73.7L117 73.8C117.1 74.2 117.3 74.5 117.5 74.9C117.9 75.5 118.6 76.3 119.5 76.8C120.2 77.2 120.9 77.3 121.8 77.3L121.7 75.6C121.5 74.4 120.5 73.6 119.3 73.7Z" fill="#D86F8C"/>
<path d="M107.3 68C107.6 68 107.9 67.9 108.2 67.8C108.5 67.7 108.8 67.6 109.1 67.5C109.4 67.4 109.7 67.3 110.1 67.2C110.4 67.1 110.8 67 111 66.9C111.2 66.7 111.2 66.4 110.8 66.1C110.4 65.8 109.6 65.7 108.6 65.9C107.7 66.2 107.1 66.8 106.9 67.2C106.9 67.7 107 68 107.3 68Z" fill="#334250"/>
<path d="M131.8 68C131.5 68.1 131.2 68 130.8 68C130.5 67.9 130.1 67.9 129.8 67.8C129.5 67.8 129.2 67.7 128.8 67.7C128.5 67.7 128.1 67.7 127.9 67.5C127.7 67.4 127.6 67 127.9 66.7C128.2 66.4 129 66.1 130 66.2C131 66.3 131.7 66.8 131.9 67.2C132.2 67.7 132.1 68 131.8 68Z" fill="#334250"/>
<path d="M113.7 73.4C113.8 74.3 113.1 75.1 112.2 75.1C111.3 75.2 110.5 74.5 110.5 73.6C110.4 72.7 111.1 71.9 112 71.9C112.9 71.8 113.7 72.5 113.7 73.4Z" fill="#334250"/>
<path d="M132.3 72.2C132.4 73.1 131.7 73.9 130.8 73.9C129.9 74 129.1 73.3 129.1 72.4C129 71.5 129.7 70.7 130.6 70.7C131.5 70.7 132.3 71.4 132.3 72.2Z" fill="#334250"/>
<path d="M110.8 76.2C110.6 76.2 110.4 76.1 110.3 76C110 75.7 109.9 75.3 110.2 74.9C110.8 74.2 112.3 73.3 114.4 74.4C114.8 74.6 114.9 75.1 114.7 75.4C114.5 75.8 114 75.9 113.7 75.7C112.3 74.9 111.5 75.7 111.4 75.8C111.2 76.1 111 76.2 110.8 76.2Z" fill="#E9B9C9"/>
<path d="M129.8 74.8C129.6 74.8 129.4 74.7 129.3 74.6C129 74.3 128.9 73.9 129.2 73.5C129.7 72.9 131 72.2 132.6 73.1C133 73.3 133.1 73.8 132.9 74.1C132.7 74.5 132.2 74.6 131.9 74.4C131 73.9 130.5 74.4 130.4 74.5C130.2 74.7 130 74.8 129.8 74.8Z" fill="#E9B9C9"/>
<path d="M80.2 92L78.3 97.4C77.9 98.5 78.8 99.6 79.9 99.5L84.8 99L80.2 92Z" fill="#334250"/>
<path d="M117.7 60.8C117.8 58.3 118.2 55.8 119.4 53.6C120.6 51.6 122.5 50.1 124.8 49.7C125.5 49.6 125.2 48.5 124.5 48.6C122 49 119.8 50.7 118.5 52.8C117.1 55.2 116.6 58 116.5 60.8C116.6 61.5 117.7 61.5 117.7 60.8Z" fill="#334250"/>
<path d="M110.2 61.1C109.8 58.5 109 55.8 107.3 53.7C105.7 51.6 103.3 50.2 100.7 50.1C100 50.1 100 51.2 100.7 51.3C103.1 51.4 105.3 52.8 106.7 54.7C108.1 56.7 108.8 59.1 109.2 61.4C109.2 62.1 110.3 61.8 110.2 61.1Z" fill="#334250"/>
<path d="M101 50.5C100.9 51.3 100.2 51.8 99.4 51.7C98.6 51.6 98.1 50.9 98.2 50.1C98.3 49.3 99 48.8 99.8 48.9C100.6 49 101.1 49.8 101 50.5Z" fill="#D86F8C"/>
<path d="M126.4 49.4C126.3 50.2 125.6 50.7 124.8 50.6C124 50.5 123.5 49.8 123.6 49C123.7 48.2 124.4 47.7 125.2 47.8C126 47.9 126.6 48.6 126.4 49.4Z" fill="#D86F8C"/>
<path d="M124.6 87.8L114.7 95C105.6 101.7 92.6 99.7 85.9 90.5C82.7 86.2 81.5 81 82.1 76.1C78.1 83 78.3 91.8 83.3 98.6C90 107.7 103 109.7 112.1 103.1L122 95.9C126.8 92.4 129.7 87.1 130.3 81.5C128.9 83.9 127 86.1 124.6 87.8Z" fill="#33527E"/>
<path d="M89.3 96.4C83.3 88.2 83.4 77.2 88.8 69.2L87.8 69.9C78.7 76.6 76.7 89.6 83.3 98.7C88.8 106.2 98.4 108.9 106.8 106C100 105.5 93.5 102.2 89.3 96.4Z" fill="#334250"/>
<path d="M112.7 79.1C114.578 79.1 116.1 78.1598 116.1 77C116.1 75.8402 114.578 74.9 112.7 74.9C110.822 74.9 109.3 75.8402 109.3 77C109.3 78.1598 110.822 79.1 112.7 79.1Z" fill="#D66B4A"/>
<path d="M131.4 77.9C133.278 77.9 134.8 76.9598 134.8 75.8C134.8 74.6402 133.278 73.7 131.4 73.7C129.522 73.7 128 74.6402 128 75.8C128 76.9598 129.522 77.9 131.4 77.9Z" fill="#D66B4A"/>
</svg>
